<svg xmlns="http://www.w3.org/2000/svg" xmlns:svg="http://www.w3.org/2000/svg" id="svg8" width="91" height="39.132" version="1.1" viewBox="0 0 24.077 10.354" xml:space="preserve"><metadata id="metadata5"/><g id="layer1" style="display:inline"><g id="g327" transform="matrix(0.53736845,0,0,0.53736845,-6.5383775,-5.7987658)"><path id="path244" fill="#808184" d="m 41.331164,23.665928 c -0.915,0.915 -1.008,2.362 -0.21,3.294 0.452,0.528 1.108,0.831 1.801,0.831 0.634,0 1.229,-0.246 1.675,-0.693 l 5.265,-5.265 c 0.377,-0.376 0.585,-0.877 0.585,-1.41 0,-0.533 -0.208,-1.034 -0.585,-1.41 l -5.265,-5.265 c -0.951,-0.952 -2.655,-0.867 -3.512,0.18 -0.758,0.928 -0.652,2.353 0.24,3.245 l 3.074,3.076 c 0.063,0.062 0.072,0.136 0.072,0.174 0,0.038 -0.009,0.112 -0.072,0.175 z m 3.775,-4.125 -3.074,-3.075 c -0.533,-0.533 -0.609,-1.37 -0.172,-1.905 0.263,-0.322 0.649,-0.506 1.062,-0.506 0.365,0 0.709,0.142 0.968,0.401 l 5.265,5.265 c 0.188,0.188 0.292,0.438 0.292,0.703 0,0.265 -0.104,0.515 -0.292,0.703 l -5.265,5.265 c -0.541,0.541 -1.508,0.504 -2.009,-0.081 -0.452,-0.529 -0.382,-1.398 0.157,-1.937 l 3.068,-3.068 c 0.235,-0.236 0.365,-0.549 0.365,-0.882 10e-4,-0.335 -0.129,-0.648 -0.365,-0.883 z" style="fill:#ea4335;fill-opacity:1"/><path id="path246" fill="#808184" d="m 18.715164,21.534928 c 0.079,0.527 0.358,0.991 0.786,1.308 l 5.985,4.429 c 0.41,0.304 0.897,0.465 1.407,0.465 0.868,0 1.667,-0.476 2.086,-1.243 0.56,-1.028 0.237,-2.354 -0.751,-3.084 l -3.508,-2.595 c -0.109,-0.082 -0.133,-0.237 -0.052,-0.346 l 2.651,-3.583 c 0.396,-0.537 0.549,-1.22 0.417,-1.875 -0.131,-0.655 -0.538,-1.227 -1.115,-1.571 -1.01,-0.602 -2.444,-0.268 -3.173,0.715 l -4.363,5.898 c -0.317,0.428 -0.448,0.954 -0.37,1.482 z m 1.174,-0.887 4.365,-5.9 c 0.285,-0.385 0.749,-0.625 1.211,-0.625 0.233,0 0.45,0.059 0.646,0.175 0.34,0.203 0.57,0.525 0.647,0.909 0.075,0.378 -0.013,0.773 -0.242,1.083 l -2.652,3.583 c -0.408,0.552 -0.291,1.334 0.261,1.744 l 3.509,2.596 c 0.589,0.436 0.79,1.21 0.468,1.801 -0.39,0.713 -1.373,0.933 -2.02,0.453 l -5.985,-4.429 c -0.214,-0.158 -0.354,-0.39 -0.393,-0.652 -0.039,-0.262 0.026,-0.524 0.185,-0.738 z" style="fill:#28a745;fill-opacity:1"/><path id="path248" fill="#808184" d="m 34.774164,12.867928 -4.254,13.705 c -0.188,0.604 -0.128,1.245 0.166,1.804 0.295,0.56 0.79,0.971 1.393,1.158 0.228,0.072 0.464,0.108 0.703,0.108 1.042,0 1.951,-0.669 2.261,-1.666 l 4.254,-13.705 c 0.387,-1.247 -0.312,-2.576 -1.56,-2.963 -1.23,-0.381 -2.582,0.337 -2.963,1.559 z m 3.568,1.108 -4.254,13.704 c -0.22,0.708 -1.005,1.119 -1.712,0.901 -0.35,-0.108 -0.635,-0.346 -0.806,-0.669 -0.17,-0.324 -0.204,-0.694 -0.096,-1.042 l 4.255,-13.705 c 0.179,-0.575 0.703,-0.962 1.306,-0.962 0.138,0 0.274,0.021 0.406,0.062 0.72,0.223 1.124,0.991 0.901,1.711 z" style="fill:#4285f4;fill-opacity:1"/></g></g></svg>