<?xml version="1.0" encoding="UTF-8" standalone="no"?>
<svg
   xmlns:dc="http://purl.org/dc/elements/1.1/"
   xmlns:cc="http://creativecommons.org/ns#"
   xmlns:rdf="http://www.w3.org/1999/02/22-rdf-syntax-ns#"
   xmlns:svg="http://www.w3.org/2000/svg"
   xmlns="http://www.w3.org/2000/svg"
   xmlns:sodipodi="http://sodipodi.sourceforge.net/DTD/sodipodi-0.dtd"
   xmlns:inkscape="http://www.inkscape.org/namespaces/inkscape"
   inkscape:export-ydpi="110"
   inkscape:export-xdpi="110"
   inkscape:export-filename="/home/kaell/Documentos/aboutme/img/logos/fivicon.png"
   width="16"
   height="16"
   viewBox="0 0 4.2333332 4.2333337"
   version="1.1"
   id="svg8"
   inkscape:version="1.0 (1.0+r73+1)"
   sodipodi:docname="fivicon.svg">
  <defs
     id="defs2" />
  <sodipodi:namedview
     id="base"
     pagecolor="#ffffff"
     bordercolor="#666666"
     borderopacity="1.0"
     inkscape:pageopacity="0.0"
     inkscape:pageshadow="2"
     inkscape:zoom="22.627417"
     inkscape:cx="3.7611907"
     inkscape:cy="7.9624306"
     inkscape:document-units="px"
     inkscape:current-layer="layer1"
     inkscape:document-rotation="0"
     showgrid="false"
     units="px"
     inkscape:window-width="1366"
     inkscape:window-height="704"
     inkscape:window-x="0"
     inkscape:window-y="0"
     inkscape:window-maximized="1"
     showguides="false"
     inkscape:guide-bbox="true" />
  <metadata
     id="metadata5">
    <rdf:RDF>
      <cc:Work
         rdf:about="">
        <dc:format>image/svg+xml</dc:format>
        <dc:type
           rdf:resource="http://purl.org/dc/dcmitype/StillImage" />
        <dc:title></dc:title>
      </cc:Work>
    </rdf:RDF>
  </metadata>
  <g
     inkscape:label="ael"
     id="layer2"
     inkscape:groupmode="layer"
     style="display:inline">
    <g
       style="display:inline"
       id="g869"
       transform="translate(9.731747e-7,-0.11482912)" />
  </g>
  <g
     inkscape:label="CGrande"
     inkscape:groupmode="layer"
     id="layer1"
     style="display:inline">
    <g
       transform="matrix(1.2771526,0,0,1.2771526,-0.27392405,-0.77782925)"
       id="g21">
      <g
         style="font-style:normal;font-variant:normal;font-weight:normal;font-stretch:normal;font-size:6.70984px;line-height:1.25;font-family:'URW Gothic';-inkscape-font-specification:'URW Gothic';display:inline;fill:#4285f4;fill-opacity:1;stroke:none;stroke-width:0.339961;stroke-miterlimit:4;stroke-dasharray:none;stroke-opacity:1"
         id="text1251"
         aria-label="a"
         transform="matrix(0.36592204,0,0,0.36592204,2.7893299,0.36725829)">
        <path
           id="path52"
           style="font-style:normal;font-variant:normal;font-weight:600;font-stretch:normal;font-family:'URW Gothic';-inkscape-font-specification:'URW Gothic Semi-Bold';fill:#4285f4;fill-opacity:1;stroke:none;stroke-width:0.339961;stroke-miterlimit:4;stroke-dasharray:none;stroke-opacity:1"
           d="M -0.54478292,3.3313003 H -1.3633834 v 0.4965281 c -0.3086526,-0.4093002 -0.6776938,-0.583756 -1.214481,-0.583756 -1.1004138,0 -1.8921749,0.8253103 -1.8921749,1.9592732 0,1.1205433 0.7850513,1.9324339 1.8720454,1.9324339 0.5233675,0 0.878989,-0.1610362 1.2346105,-0.5703364 v 0.4831085 h 0.81860048 z M -2.4839267,4.0626728 c 0.6374348,0 1.0937039,0.4763987 1.0937039,1.1540925 0,0.2683936 -0.1073574,0.5770462 -0.2683936,0.7649217 -0.1811656,0.2214247 -0.4696888,0.335492 -0.8118906,0.335492 -0.6508545,0 -1.1004137,-0.4428494 -1.1004137,-1.0937039 0,-0.6776938 0.4495592,-1.1608023 1.086994,-1.1608023 z" />
      </g>
      <path
         d="M 1.9334005,0.60908512 A 1.6573273,1.6573273 0 0 0 0.28902913,2.2749832 1.6573273,1.6573273 0 0 0 1.9507553,3.9236933 1.6573273,1.6573273 0 0 0 3.4421037,2.9798568 H 2.7969708 v -0.00868 A 1.1047496,1.1047496 0 0 1 1.9492535,3.3711752 1.1047496,1.1047496 0 0 1 0.8417141,2.2721463 1.1047496,1.1047496 0 0 1 1.9362374,1.1617701 a 1.1047496,1.1047496 0 0 1 0.0015,0 1.1047496,1.1047496 0 0 1 0.8737496,0.4175176 H 3.4546192 A 1.6573273,1.6573273 0 0 0 1.9334005,0.60908512 Z"
         style="fill:#ea4335;fill-opacity:1;stroke:none;stroke-width:0.0205499;stroke-linecap:round;stroke-miterlimit:4;stroke-dasharray:none;paint-order:markers stroke fill"
         id="path19" />
    </g>
  </g>
</svg>
