<svg xmlns="http://www.w3.org/2000/svg" xmlns:svg="http://www.w3.org/2000/svg" id="svg874" width="50" height="50" version="1.1" viewBox="0 0 13.229 13.229"><defs id="defs868"><filter id="filter1128" width="1" height="1" x="0" y="0" style="color-interpolation-filters:sRGB"><feGaussianBlur id="feGaussianBlur1130" stdDeviation="0"/></filter><filter id="filter1013" width="1.169" height="1.688" x="-.084" y="-.344" style="color-interpolation-filters:sRGB"><feGaussianBlur id="feGaussianBlur1015" stdDeviation=".204"/></filter></defs><metadata id="metadata871"/><g id="layer1" style="opacity:1"><g id="g1219" transform="matrix(0.99196503,0,0,0.99196503,0.05355524,-2.4257671)"><path id="rect901" style="mix-blend-mode:normal;fill:#e8e8e8;fill-opacity:1;stroke:#222;stroke-width:.370417;stroke-linecap:round;stroke-linejoin:round;stroke-miterlimit:4;stroke-dasharray:none;stroke-opacity:1;paint-order:markers stroke fill" d="m 10.121578,2.6337602 c -0.02479,6.9e-5 -0.04957,4.88e-4 -0.07433,0.00127 -0.8377138,0.025666 -1.5907071,0.4523876 -1.95751,1.1093192 L 5.1271021,3.7259209 C 4.8139904,3.0877041 3.9968173,2.5883296 3.0493615,2.6335169 2.0250316,2.6823701 0.73216102,3.368942 0.72426779,5.1759184 0.5388617,6.9474631 -0.12356602,8.3440212 0.2420627,9.6214007 0.46887013,10.413787 1.6979999,11.007141 2.6337473,10.248853 3.3936293,9.6330793 3.9337907,8.6354745 4.4308884,7.9861911 4.6856787,7.6533969 4.72955,7.5006897 4.9806249,7.4377955 5.4024332,7.3321332 6.1148772,7.3909119 6.6816677,7.4094327 c 0.5722224,0.018698 1.4131957,-0.072278 1.7118107,0.1406846 0.2986137,0.2129636 0.8107073,0.9072622 1.125673,1.3442261 0.2984539,0.414058 0.5699406,0.7955153 0.8250106,1.1344536 0.63688,0.846286 1.432318,0.477579 1.767302,0.401136 1.884205,-0.5232917 0.502251,-3.3425218 0.424613,-5.426251 -0.05241,-1.4067621 -1.085946,-2.3685041 -2.414493,-2.3699268 z"/><path d="m 10.121578,2.6337602 c -0.02479,6.9e-5 -0.04957,4.88e-4 -0.07433,0.00127 -0.8377138,0.025666 -1.5907071,0.4523876 -1.95751,1.1093192 L 5.1271021,3.7259209 C 4.8139904,3.0877041 3.9968173,2.5883296 3.0493615,2.6335169 2.0250316,2.6823701 0.73216102,3.368942 0.72426779,5.1759184 0.5388617,6.9474631 -0.12356602,7.9892185 0.2420627,9.266598 0.46887013,10.058984 1.6979999,10.652338 2.6337473,9.89405 3.3936293,9.2782766 3.9337907,8.2806718 4.4308884,7.6313884 4.6856787,7.2985942 4.72955,7.145887 4.9806249,7.0829928 5.4024332,6.9773305 6.1148772,7.0361092 6.6816677,7.0546301 c 0.5722224,0.018698 1.4131957,-0.072278 1.7118107,0.1406845 0.2986137,0.2129635 0.8107073,0.9072622 1.125673,1.3442261 0.2984539,0.414058 0.5699406,0.7955152 0.8250106,1.134454 0.63688,0.8462863 1.432318,0.4775783 1.767302,0.4011353 1.884205,-0.5232914 0.502251,-2.9877188 0.424613,-5.071448 -0.05241,-1.4067621 -1.085946,-2.3685041 -2.414493,-2.3699268 z" style="opacity:.513105;mix-blend-mode:normal;fill:#fff;fill-opacity:1;stroke:none;stroke-width:1.69155;stroke-linecap:round;stroke-linejoin:round;stroke-miterlimit:4;stroke-dasharray:none;stroke-opacity:1;paint-order:markers stroke fill" id="path988"/><path d="M 5.0406499,5.2238784 A 1.8934135,1.8934135 0 0 1 3.1693273,7.1171631 1.8934135,1.8934135 0 0 1 1.2543383,5.2680573 1.8934135,1.8934135 0 0 1 3.0809755,3.3316246 a 1.8934135,1.8934135 0 0 1 1.9576127,1.80392" style="fill:#dfdfdf;fill-opacity:1;stroke:#393939;stroke-width:.370417;stroke-linecap:round;stroke-linejoin:round;stroke-miterlimit:4;stroke-dasharray:none;stroke-opacity:1;paint-order:markers stroke fill" id="path912"/><path id="rect916" style="fill:#9b9b9b;fill-opacity:1;stroke:#222;stroke-width:.370417;stroke-linecap:round;stroke-linejoin:round;stroke-miterlimit:4;stroke-dasharray:none;stroke-opacity:1;paint-order:markers stroke fill" d="m 3.1162216,4.1077698 c -0.2296241,0 -0.4142483,0.1978483 -0.4142483,0.4441088 v 0.30052 H 2.4014539 c -0.2462602,0 -0.4447442,0.1852578 -0.4447442,0.414883 0,0.2296246 0.198484,0.4142473 0.4447442,0.4142473 h 0.3005194 v 0.30052 c 0,0.2462608 0.1846242,0.4447445 0.4142483,0.4447445 0.2296254,0 0.4148827,-0.1984837 0.4148827,-0.4447445 v -0.30052 h 0.3005194 c 0.2462602,0 0.4441098,-0.1846227 0.4441098,-0.4142473 0,-0.2296252 -0.1978496,-0.414883 -0.4441098,-0.414883 H 3.5311043 v -0.30052 c 0,-0.2462605 -0.1852573,-0.4441088 -0.4148827,-0.4441088 z"/><path id="path923" d="M 12.053155,5.2238784 A 1.8934135,1.8934135 0 0 1 10.181832,7.1171631 1.8934135,1.8934135 0 0 1 8.2668433,5.2680573 1.8934135,1.8934135 0 0 1 10.093481,3.3316246 a 1.8934135,1.8934135 0 0 1 1.957612,1.80392" style="fill:#dfdfdf;fill-opacity:1;stroke:#222;stroke-width:.370417;stroke-linecap:round;stroke-linejoin:round;stroke-miterlimit:4;stroke-dasharray:none;stroke-opacity:1;paint-order:markers stroke fill"/><path d="M 10.643464,4.2565932 A 0.48372558,0.48372558 0 0 1 10.165382,4.7402859 0.48372558,0.48372558 0 0 1 9.6761447,4.26788 0.48372558,0.48372558 0 0 1 10.14281,3.7731639 a 0.48372558,0.48372558 0 0 1 0.500127,0.460862" style="fill:#fed140;fill-opacity:1;stroke:#222;stroke-width:.370417;stroke-linecap:round;stroke-linejoin:round;stroke-miterlimit:4;stroke-dasharray:none;stroke-opacity:1;paint-order:markers stroke fill" id="path925"/><path id="path927" d="M 10.643464,6.2359834 A 0.48372558,0.48372558 0 0 1 10.165382,6.719676 0.48372558,0.48372558 0 0 1 9.6761447,6.2472701 0.48372558,0.48372558 0 0 1 10.14281,5.7525541 0.48372558,0.48372558 0 0 1 10.642937,6.213416" style="fill:#45b85f;fill-opacity:1;stroke:#222;stroke-width:.370417;stroke-linecap:round;stroke-linejoin:round;stroke-miterlimit:4;stroke-dasharray:none;stroke-opacity:1;paint-order:markers stroke fill"/><path d="M 9.6504135,5.2507558 A 0.48372558,0.48372558 0 0 1 9.1723317,5.7344484 0.48372558,0.48372558 0 0 1 8.6830941,5.2620425 a 0.48372558,0.48372558 0 0 1 0.4666657,-0.494716 0.48372558,0.48372558 0 0 1 0.500127,0.460862" style="fill:#3670a0;fill-opacity:1;stroke:#222;stroke-width:.370417;stroke-linecap:round;stroke-linejoin:round;stroke-miterlimit:4;stroke-dasharray:none;stroke-opacity:1;paint-order:markers stroke fill" id="path929"/><path id="path931" d="m 11.647753,5.2507558 a 0.48372558,0.48372558 0 0 1 -0.478082,0.4836926 0.48372558,0.48372558 0 0 1 -0.489238,-0.4724059 0.48372558,0.48372558 0 0 1 0.466666,-0.494716 0.48372558,0.48372558 0 0 1 0.500127,0.460862" style="fill:#ff5f5f;fill-opacity:1;stroke:#222;stroke-width:.370417;stroke-linecap:round;stroke-linejoin:round;stroke-miterlimit:4;stroke-dasharray:none;stroke-opacity:1;paint-order:markers stroke fill"/><rect style="fill:#dfdfdf;fill-opacity:1;stroke:#222;stroke-width:.370417;stroke-linecap:round;stroke-linejoin:round;stroke-miterlimit:4;stroke-dasharray:none;stroke-opacity:1;paint-order:markers stroke fill" id="rect933" width=".623" height=".534" x="5.724" y="4.974" ry=".095"/><rect id="rect935" width=".623" height=".534" x="6.912" y="4.974" ry=".095" style="fill:#dfdfdf;fill-opacity:1;stroke:#222;stroke-width:.370417;stroke-linecap:round;stroke-linejoin:round;stroke-miterlimit:4;stroke-dasharray:none;stroke-opacity:1;paint-order:markers stroke fill"/><path style="opacity:.644314;fill:none;stroke:#000;stroke-width:.370417;stroke-linecap:butt;stroke-linejoin:miter;stroke-miterlimit:4;stroke-dasharray:none;stroke-dashoffset:0;stroke-opacity:1" id="path996" d="M 0.98890372,7.0348828 C 0.61914889,7.822131 0.82903629,8.4801733 0.76605396,9.1990401"/><path id="path998" d="m -17.243394,-1.3620616 c 0.100255,0.72203701 0.09811,1.18854779 0.181256,1.76022852" style="opacity:.667824;fill:none;stroke:#000;stroke-width:.30128;stroke-linecap:butt;stroke-linejoin:miter;stroke-miterlimit:4;stroke-dasharray:none;stroke-dashoffset:0;stroke-opacity:1;filter:url(#filter1128)" transform="matrix(1.2294752,0,0,1.2294752,33.358978,8.8144952)"/></g><path id="path1221" d="M 9.9670923,11.07103 A 2.8947847,0.7104218 0 0 1 7.1060818,11.781403 2.8947847,0.7104218 0 0 1 4.178311,11.087606 2.8947847,0.7104218 0 0 1 6.9710033,10.361043 2.8947847,0.7104218 0 0 1 9.9639403,11.037886" transform="matrix(1.8728697,0,0,0.71898413,-6.630927,4.4070756)" style="opacity:.0987992;fill:#000;fill-opacity:1;stroke:#000;stroke-width:.370417;stroke-linecap:round;stroke-linejoin:round;stroke-miterlimit:4;stroke-dasharray:none;stroke-dashoffset:0;stroke-opacity:1;paint-order:markers stroke fill;filter:url(#filter1013)"/></g></svg>