<?xml version="1.0" encoding="UTF-8" standalone="no"?>
<!-- Created with Inkscape (http://www.inkscape.org/) -->

<svg
   width="500"
   height="500"
   viewBox="0 0 132.29166 132.29167"
   version="1.1"
   id="svg5"
   xml:space="preserve"
   inkscape:export-filename="php.svg"
   inkscape:export-xdpi="96"
   inkscape:export-ydpi="96"
   xmlns:inkscape="http://www.inkscape.org/namespaces/inkscape"
   xmlns:sodipodi="http://sodipodi.sourceforge.net/DTD/sodipodi-0.dtd"
   xmlns="http://www.w3.org/2000/svg"
   xmlns:svg="http://www.w3.org/2000/svg"><sodipodi:namedview
     id="namedview7"
     pagecolor="#505050"
     bordercolor="#ffffff"
     borderopacity="1"
     inkscape:showpageshadow="0"
     inkscape:pageopacity="0"
     inkscape:pagecheckerboard="1"
     inkscape:deskcolor="#505050"
     inkscape:document-units="px"
     showgrid="false" /><defs
     id="defs2" /><g
     inkscape:label="Layer 1"
     inkscape:groupmode="layer"
     id="layer1"><g
       id="g1165"
       transform="scale(0.51676432)"><path
         d="M 0,0 H 256 V 256 H 0 Z"
         fill="#f7df1e"
         id="path1153" /><path
         d="m 67.312,213.932 19.59,-11.856 c 3.78,6.701 7.218,12.371 15.465,12.371 7.905,0 12.89,-3.092 12.89,-15.12 v -81.798 h 24.057 v 82.138 c 0,24.917 -14.606,36.259 -35.916,36.259 -19.245,0 -30.416,-9.967 -36.087,-21.996 m 85.07,-2.576 19.588,-11.341 c 5.157,8.421 11.859,14.607 23.715,14.607 9.969,0 16.325,-4.984 16.325,-11.858 0,-8.248 -6.53,-11.17 -17.528,-15.98 l -6.013,-2.58 c -17.357,-7.387 -28.87,-16.667 -28.87,-36.257 0,-18.044 13.747,-31.792 35.228,-31.792 15.294,0 26.292,5.328 34.196,19.247 l -18.732,12.03 c -4.125,-7.389 -8.591,-10.31 -15.465,-10.31 -7.046,0 -11.514,4.468 -11.514,10.31 0,7.217 4.468,10.14 14.778,14.608 l 6.014,2.577 c 20.45,8.765 31.963,17.7 31.963,37.804 0,21.654 -17.012,33.51 -39.867,33.51 -22.339,0 -36.774,-10.654 -43.819,-24.574"
         id="path1155" /></g></g></svg>
