<svg xmlns="http://www.w3.org/2000/svg" xmlns:osb="http://www.openswatchbook.org/uri/2009/osb" xmlns:svg="http://www.w3.org/2000/svg" xmlns:xlink="http://www.w3.org/1999/xlink" id="svg56" width="50" height="41.129" version="1.1" viewBox="0 0 50 41.129"><metadata id="metadata62"/><defs id="defs60"><linearGradient id="linearGradient1472"><stop style="stop-color:#e6e6e6;stop-opacity:.5504075" id="stop1468" offset="0"/><stop style="stop-color:#e6e6e6;stop-opacity:.0236304" id="stop1470" offset="1"/></linearGradient><linearGradient id="linearGradient1181" osb:paint="gradient"><stop style="stop-color:#ff5023;stop-opacity:1" id="stop1177" offset="0"/><stop style="stop-color:#ff5023;stop-opacity:0" id="stop1179" offset="1"/></linearGradient><linearGradient id="linearGradient1476" x1="11.926" x2="41.632" y1="14.607" y2="14.755" gradientUnits="userSpaceOnUse" xlink:href="#linearGradient1472"/></defs><g id="layer2" style="display:inline"><g id="g1591"><path id="path1318" style="fill:#fba52e;fill-opacity:1;stroke:none;stroke-width:1.58357;stroke-linecap:round;stroke-miterlimit:4;stroke-dasharray:none;stroke-opacity:1;paint-order:markers fill stroke" d="M 38.073808,12.570274 C 37.793604,9.5568063 36.781733,7.0569254 34.896322,5.1277939 32.453975,2.6288116 30.032731,0.79181361 25.352265,0.79181361 c -2.593763,0 -7.063157,1.65843259 -9.488091,4.10725739 -2.279585,2.3020426 -3.792501,5.282045 -3.773443,8.956802 0.01344,2.524941 0.873605,4.879166 2.230261,6.923481 0.784461,1.032908 1.710344,2.553146 2.275218,4.147893 0.496406,1.40145 0.654759,2.937049 1.007688,3.197254 0.04893,0.221428 1.504854,0.151365 3.246466,0.151365 2.359622,0 5.470617,0.03378 8.351034,0.03378 1.610843,0 3.561882,0.246065 3.836208,-0.290983 0.218087,-0.42695 0.34994,-1.413819 0.568662,-2.294741 0.222154,-0.894744 0.532905,-1.685721 0.981438,-2.391362 1.933956,-2.830978 3.45724,-4.802934 3.606034,-8.204233"/><path d="M 23.673828 0.984375 C 21.111667 1.4714646 17.824799 2.9175942 15.863281 4.8984375 C 13.583696 7.2004801 12.070786 10.180712 12.089844 13.855469 C 12.103284 16.38041 12.963656 18.734982 14.320312 20.779297 C 15.104774 21.812205 16.030829 23.332987 16.595703 24.927734 C 17.092109 26.329184 17.250587 27.864795 17.603516 28.125 C 17.627812 28.23495 18.001197 28.272729 18.582031 28.283203 C 18.60478 28.283299 18.631466 28.283104 18.654297 28.283203 C 19.23711 28.291628 20.002908 28.275391 20.849609 28.275391 C 22.968633 28.275391 25.729834 28.301085 28.349609 28.306641 C 28.685685 28.259166 28.953803 28.182621 29.037109 28.019531 C 29.255196 27.592581 29.386747 26.605531 29.605469 25.724609 C 29.827623 24.829865 30.139358 24.037672 30.587891 23.332031 C 32.521847 20.501053 34.044565 18.530205 34.193359 15.128906 L 34.074219 12.570312 C 33.794015 9.5568448 32.781895 7.0560846 30.896484 5.1269531 C 28.898249 3.0823805 26.892675 1.4991788 23.673828 0.984375 z" style="fill:url(#linearGradient1476);fill-opacity:1;stroke:none;stroke-width:1.58357;stroke-linecap:round;stroke-miterlimit:4;stroke-dasharray:none;stroke-opacity:1;paint-order:markers fill stroke" id="path1446"/><path d="M 37.84664,10.973154 C 37.395478,8.6639753 36.437888,6.7051069 34.896322,5.1277939 32.453975,2.6288116 30.032731,0.79181361 25.352265,0.79181361 c -2.593763,0 -7.063157,1.65843259 -9.488091,4.10725739 -2.279585,2.3020426 -3.792501,5.282045 -3.773443,8.956802 0.01344,2.524941 0.873605,4.879166 2.230261,6.923481 0.784461,1.032908 1.710344,2.553146 2.275218,4.147893 0.496406,1.40145 0.654759,2.937049 1.007688,3.197254 0.04893,0.221428 1.504854,0.151365 3.246466,0.151365 2.359622,0 5.470617,0.03378 8.351034,0.03378 1.610843,0 3.561882,0.246065 3.836208,-0.290983 0.218087,-0.42695 0.34994,-1.413819 0.568662,-2.294741 0.222154,-0.894744 0.532905,-1.685721 0.981438,-2.391362 1.807525,-2.645904 3.256317,-4.541432 3.559498,-7.554846" style="fill:none;fill-opacity:1;stroke:#000;stroke-width:1.58363;stroke-linecap:round;stroke-miterlimit:4;stroke-dasharray:none;stroke-opacity:1;paint-order:markers fill stroke" id="rect83"/><path id="path1144" style="opacity:.806761;fill:#b3b3b3;stroke:none;stroke-width:1.58363;stroke-linecap:round;stroke-miterlimit:4;stroke-dasharray:none;stroke-opacity:1;paint-order:stroke markers fill" d="m 20.516351,18.079707 c 0,0 -1.722403,3.100672 -1.722403,3.540628 0,0.750161 2.586501,6.536916 2.586501,6.536916 2.030108,0.101685 5.776988,-0.02638 7.799806,-0.07954 0,0 2.537716,-5.898955 2.536272,-6.502519 -5.512379,-10.993664 0,0 -5.512379,-10.993664 C 25.692342,9.5608029 25.35391,8.8708056 25.251931,8.86626 c -0.452107,0.029471 -2.212264,4.45818 -3.469559,6.705836"/><path d="m 20.516351,18.079707 c 0,0 -1.722403,3.100672 -1.722403,3.540628 0,0.750161 2.586501,6.536916 2.586501,6.536916 2.030108,0.101685 3.481148,-0.02638 5.503966,-0.07954 0,0 2.432238,-5.898955 2.430796,-6.502519 L 24.455714,9.6039793 C 24.026236,8.5459742 25.35391,8.8708036 25.251931,8.8662581 24.799824,8.8957293 23.039667,13.324438 21.782372,15.572094" style="opacity:.649571;fill:#fff;stroke:none;stroke-width:1.58363;stroke-linecap:round;stroke-miterlimit:4;stroke-dasharray:none;stroke-opacity:1;paint-order:stroke markers fill" id="path1148"/><path style="fill:none;stroke:#000;stroke-width:.684;stroke-linecap:butt;stroke-linejoin:miter;stroke-miterlimit:4;stroke-dasharray:none;stroke-opacity:1" id="path1002" d="M 33.464503,5.9361037 H 17.235968"/><path d="m 32.373932,28.688364 -0.186324,2.305483 H 18.354234 L 18.028858,28.57241" style="fill:none;stroke:#000;stroke-width:1.58363;stroke-linecap:round;stroke-miterlimit:4;stroke-dasharray:none;stroke-opacity:1;paint-order:stroke markers fill" id="rect933"/><rect id="rect936" width="15.631" height="2.95" x="17.486" y="31.334" rx="1.456" ry="1.456" style="fill:none;stroke:#000;stroke-width:1.58363;stroke-linecap:round;stroke-miterlimit:4;stroke-dasharray:none;stroke-opacity:1;paint-order:stroke markers fill"/><path d="m 25.80559,37.233169 h -6.862963 c -0.806882,0 -1.195416,-0.84201 -1.195416,-1.474829 0,-0.632821 0.388534,-1.47483 1.195416,-1.47483 h 12.717768 c 0.806883,0 1.181878,0.844842 1.181878,1.47483 0,0.629986 -0.374995,1.474829 -1.181878,1.474829 h -3.323212" style="fill:none;stroke:#000;stroke-width:1.58363;stroke-linecap:round;stroke-miterlimit:4;stroke-dasharray:none;stroke-opacity:1;paint-order:stroke markers fill" id="rect948"/><path d="m 30.879923,37.218194 c 0.433116,0.141125 0.892499,0.523548 1.068349,0.810208 0.174223,0.284008 0.238084,0.613737 0.223092,0.938251 -0.02842,0.615033 -0.469434,1.411041 -1.191891,1.411041 H 19.59237 c -0.722459,0 -1.328857,-0.796496 -1.332605,-1.403876 -0.0026,-0.425566 0.0031,-1.186241 1.150475,-1.6787" style="fill:none;stroke:#000;stroke-width:1.50261;stroke-linecap:round;stroke-miterlimit:4;stroke-dasharray:none;stroke-opacity:1;paint-order:stroke markers fill" id="rect953"/><path d="m 20.516351,18.079707 c 0,0 -1.722403,3.100672 -1.722403,3.540628 0,0.750161 2.586501,6.536916 2.586501,6.536916 2.030108,0.101685 5.776988,-0.02638 7.799806,-0.07954 0,0 2.537716,-5.898955 2.536272,-6.502519 L 26.204148,10.581528 C 25.692342,9.5608029 25.35391,8.8708056 25.251931,8.86626 c -0.37116,0.024194 -1.623906,3.013341 -2.756261,5.326568" style="fill:none;stroke:#000;stroke-width:1.58363;stroke-linecap:round;stroke-miterlimit:4;stroke-dasharray:none;stroke-opacity:1;paint-order:stroke markers fill" id="rect958"/><path id="path968" style="fill:#fba52e;fill-opacity:1;stroke:#000;stroke-width:3.68386;stroke-linecap:round;stroke-miterlimit:4;stroke-dasharray:none;stroke-opacity:1;paint-order:stroke markers fill" d="m 26.860479,21.378719 a 1.6710883,1.7491126 0 0 1 -1.66675,1.749107 1.6710883,1.7491126 0 0 1 -1.675405,-1.740025 1.6710883,1.7491126 0 0 1 1.658051,-1.758141 1.6710883,1.7491126 0 0 1 1.684013,1.730896"/><path id="path970" d="M 25.18953,8.8776338 V 19.615853" style="fill:none;stroke:#000;stroke-width:1.62017;stroke-linecap:butt;stroke-linejoin:miter;stroke-miterlimit:4;stroke-dasharray:none;stroke-opacity:1"/><path d="m 17.933745,9.631856 c 1.243072,-2.0590657 4.073503,-3.4017525 7.218718,-3.42438 3.145214,-0.022627 6.013106,1.2790637 7.314254,3.3198256" style="fill:none;stroke:#000;stroke-width:.872;stroke-linecap:round;stroke-miterlimit:4;stroke-dasharray:none;stroke-opacity:1;paint-order:stroke markers fill" id="path1024"/><path style="fill:#6fd085;fill-opacity:1;stroke:#000;stroke-width:1.872;stroke-linecap:round;stroke-miterlimit:4;stroke-dasharray:none;stroke-opacity:1;paint-order:stroke markers fill" id="path1000" d="m 33.53242,11.00596 a 0.97869045,0.97869045 0 0 1 -0.976149,0.978688 0.97869045,0.97869045 0 0 1 -0.981218,-0.973606 0.97869045,0.97869045 0 0 1 0.971055,-0.983742 0.97869045,0.97869045 0 0 1 0.98626,0.968497"/><path id="path1014" style="fill:#6fd085;fill-opacity:1;stroke:#000;stroke-width:1.872;stroke-linecap:round;stroke-miterlimit:4;stroke-dasharray:none;stroke-opacity:1;paint-order:stroke markers fill" d="m 18.357893,11.005825 a 0.97876704,0.97876704 0 0 1 -0.976226,0.978764 0.97876704,0.97876704 0 0 1 -0.981295,-0.973682 0.97876704,0.97876704 0 0 1 0.971131,-0.983819 0.97876704,0.97876704 0 0 1 0.986337,0.968573"/><path style="fill:#6fd085;fill-opacity:1;stroke:#000;stroke-width:1.872;stroke-linecap:round;stroke-miterlimit:4;stroke-dasharray:none;stroke-opacity:1;paint-order:stroke markers fill" id="path1016" d="M 16.708734,5.9462676 A 0.97876704,0.97876704 0 0 1 15.732508,6.9250313 0.97876704,0.97876704 0 0 1 14.751213,5.9513497 0.97876704,0.97876704 0 0 1 15.722344,4.9675303 0.97876704,0.97876704 0 0 1 16.708681,5.9361036"/><path id="path1018" style="fill:#6fd085;fill-opacity:1;stroke:#000;stroke-width:1.872;stroke-linecap:round;stroke-miterlimit:4;stroke-dasharray:none;stroke-opacity:1;paint-order:stroke markers fill" d="M 35.414672,5.9462676 A 0.97876704,0.97876704 0 0 1 34.438447,6.9250313 0.97876704,0.97876704 0 0 1 33.457152,5.9513497 0.97876704,0.97876704 0 0 1 34.428282,4.9675303 0.97876704,0.97876704 0 0 1 35.41462,5.9361036"/><rect id="rect1022" width="1.83" height="1.83" x="24.33" y="4.651" rx=".53" ry=".199" style="fill:#6fd085;fill-opacity:1;stroke:#000;stroke-width:1.872;stroke-linecap:round;stroke-miterlimit:4;stroke-dasharray:none;stroke-opacity:1;paint-order:stroke markers fill"/><g id="g1078" transform="matrix(-1.1209972,0,0,1.1209972,-48.227738,-5.5139212)" style="fill:#fed140;fill-opacity:1;stroke:#000;stroke-width:.960168;stroke-miterlimit:4;stroke-dasharray:none"><g id="g1501" transform="rotate(-15,-74.765278,12.485624)"><path style="fill:#fed140;fill-opacity:1;stroke:#000;stroke-width:.960168;stroke-linecap:round;stroke-linejoin:miter;stroke-miterlimit:4;stroke-dasharray:none;stroke-opacity:1" id="path1072" d="m -78.025606,9.4858594 c 0.444408,0.119079 0.906288,0.2428395 1.358101,0.3639025"/><path id="path1074" d="m -76.623442,7.3594484 c 0.349858,0.2987956 0.713469,0.6093376 1.069155,0.9131111" style="fill:#fed140;fill-opacity:1;stroke:#000;stroke-width:.960168;stroke-linecap:round;stroke-linejoin:miter;stroke-miterlimit:4;stroke-dasharray:none;stroke-opacity:1"/><path style="fill:#fed140;fill-opacity:1;stroke:#000;stroke-width:.960168;stroke-linecap:round;stroke-linejoin:miter;stroke-miterlimit:4;stroke-dasharray:none;stroke-opacity:1" id="path1076" d="m -74.682919,5.9206605 c 0.153587,0.4336932 0.313213,0.8844362 0.469359,1.3253549"/></g></g><g style="fill:#fed140;fill-opacity:1;stroke:#000;stroke-width:.960168;stroke-miterlimit:4;stroke-dasharray:none" id="g1358" transform="matrix(1.0828001,-0.29013542,0.29013542,1.0828001,92.196524,-26.729062)"><path style="fill:#fed140;fill-opacity:1;stroke:#000;stroke-width:.960168;stroke-linecap:round;stroke-linejoin:miter;stroke-miterlimit:4;stroke-dasharray:none;stroke-opacity:1" id="path1352" d="m -78.025606,9.4858594 c 0.444408,0.119079 0.906288,0.2428395 1.358101,0.3639025"/><path id="path1354" d="m -76.623442,7.3594484 c 0.349858,0.2987956 0.713469,0.6093376 1.069155,0.9131111" style="fill:#fed140;fill-opacity:1;stroke:#000;stroke-width:.960168;stroke-linecap:round;stroke-linejoin:miter;stroke-miterlimit:4;stroke-dasharray:none;stroke-opacity:1"/><path style="fill:#fed140;fill-opacity:1;stroke:#000;stroke-width:.960168;stroke-linecap:round;stroke-linejoin:miter;stroke-miterlimit:4;stroke-dasharray:none;stroke-opacity:1" id="path1356" d="m -74.682919,5.9206605 c 0.153587,0.4336932 0.313213,0.8844362 0.469359,1.3253549"/></g></g></g></svg>