<?xml version="1.0" encoding="UTF-8" standalone="no"?>
<svg
   xmlns:dc="http://purl.org/dc/elements/1.1/"
   xmlns:cc="http://creativecommons.org/ns#"
   xmlns:rdf="http://www.w3.org/1999/02/22-rdf-syntax-ns#"
   xmlns:svg="http://www.w3.org/2000/svg"
   xmlns="http://www.w3.org/2000/svg"
   xmlns:sodipodi="http://sodipodi.sourceforge.net/DTD/sodipodi-0.dtd"
   xmlns:inkscape="http://www.inkscape.org/namespaces/inkscape"
   sodipodi:docname="logo.svg"
   inkscape:version="1.0 (1.0+r73+1)"
   id="svg8"
   version="1.1"
   viewBox="0 0 33.072916 10.353676"
   height="39.132"
   width="125">
  <defs
     id="defs2" />
  <sodipodi:namedview
     inkscape:guide-bbox="true"
     showguides="false"
     inkscape:window-maximized="1"
     inkscape:window-y="0"
     inkscape:window-x="0"
     inkscape:window-height="704"
     inkscape:window-width="1366"
     units="px"
     showgrid="false"
     inkscape:document-rotation="0"
     inkscape:current-layer="layer2"
     inkscape:document-units="px"
     inkscape:cy="34.072693"
     inkscape:cx="48.143437"
     inkscape:zoom="5.6568543"
     inkscape:pageshadow="2"
     inkscape:pageopacity="0.0"
     borderopacity="1.0"
     bordercolor="#666666"
     pagecolor="#ffffff"
     id="base" />
  <metadata
     id="metadata5">
    <rdf:RDF>
      <cc:Work
         rdf:about="">
        <dc:format>image/svg+xml</dc:format>
        <dc:type
           rdf:resource="http://purl.org/dc/dcmitype/StillImage" />
        <dc:title />
      </cc:Work>
    </rdf:RDF>
  </metadata>
  <g
     style="display:inline"
     inkscape:groupmode="layer"
     id="layer2"
     inkscape:label="ael">
    <g
       transform="translate(9.731747e-7,-0.11482912)"
       id="g869"
       style="display:inline" />
    <g
       style="font-style:normal;font-variant:normal;font-weight:normal;font-stretch:normal;font-size:6.70984px;line-height:1.25;font-family:'URW Gothic';-inkscape-font-specification:'URW Gothic';fill:#4285f4;fill-opacity:1;stroke:none;stroke-width:0.339961;stroke-miterlimit:4;stroke-dasharray:none;stroke-opacity:1"
       id="text1251"
       aria-label="a"
       transform="matrix(1.1401886,0,0,1.1401886,7.7908401,-0.74065662)">
      <path
         id="path52"
         style="font-style:normal;font-variant:normal;font-weight:600;font-stretch:normal;font-family:'URW Gothic';-inkscape-font-specification:'URW Gothic Semi-Bold';fill:#4285f4;fill-opacity:1;stroke:none;stroke-width:0.339961;stroke-miterlimit:4;stroke-dasharray:none;stroke-opacity:1"
         d="M -0.54478292,3.3313003 H -1.3633834 v 0.4965281 c -0.3086526,-0.4093002 -0.6776938,-0.583756 -1.214481,-0.583756 -1.1004138,0 -1.8921749,0.8253103 -1.8921749,1.9592732 0,1.1205433 0.7850513,1.9324339 1.8720454,1.9324339 0.5233675,0 0.878989,-0.1610362 1.2346105,-0.5703364 v 0.4831085 h 0.81860048 z M -2.4839267,4.0626728 c 0.6374348,0 1.0937039,0.4763987 1.0937039,1.1540925 0,0.2683936 -0.1073574,0.5770462 -0.2683936,0.7649217 -0.1811656,0.2214247 -0.4696888,0.335492 -0.8118906,0.335492 -0.6508545,0 -1.1004137,-0.4428494 -1.1004137,-1.0937039 0,-0.6776938 0.4495592,-1.1608023 1.086994,-1.1608023 z" />
    </g>
    <g
       transform="matrix(1.3318902,0,0,1.3318902,-3.5817425,-3.3882884)"
       style="font-style:normal;font-variant:normal;font-weight:normal;font-stretch:normal;font-size:13.37px;line-height:1.25;font-family:'Tlwg Typist';-inkscape-font-specification:'Tlwg Typist';fill:#fbbc05;fill-opacity:1;stroke:none;stroke-width:0.677493;stroke-miterlimit:4;stroke-dasharray:none;stroke-opacity:1"
       id="text1235"
       aria-label="e">
      <path
         id="path49"
         style="font-style:normal;font-variant:normal;font-weight:600;font-stretch:normal;font-family:'URW Gothic';-inkscape-font-specification:'URW Gothic Semi-Bold';fill:#fbbc05;fill-opacity:1;stroke:none;stroke-width:0.677493;stroke-miterlimit:4;stroke-dasharray:none;stroke-opacity:1"
         d="m 18.677454,7.253798 c 0.05348,-0.2674 0.06685,-0.42784 0.06685,-0.69524 0,-2.28627 -1.61777,-3.97089 -3.82382,-3.97089 -2.17931,0 -3.90404,1.72473 -3.90404,3.90404 0,2.16594 1.75147,3.85056 4.011,3.85056 1.21667,0 2.16594,-0.44121 2.9414,-1.337 0.28077,-0.34762 0.46795,-0.65513 0.58828,-1.02949 h -1.93865 c -0.45458,0.5348 -0.89579,0.73535 -1.63114,0.73535 -1.05623,0 -1.83169,-0.56154 -2.04561,-1.45733 z m -5.78921,-1.56429 c 0.28077,-0.96264 1.00275,-1.4707 2.05898,-1.4707 1.09634,0 1.81832,0.52143 2.04561,1.4707 z" />
    </g>
    <g
       style="font-style:normal;font-variant:normal;font-weight:600;font-stretch:normal;font-size:13.7298px;line-height:1.25;font-family:'URW Gothic';-inkscape-font-specification:'URW Gothic Semi-Bold';fill:#28a745;fill-opacity:1;stroke:none;stroke-width:0.695748"
       id="text1303"
       transform="matrix(1.0321043,0,0,1.017938,2.044928,-0.25978995)"
       aria-label="l">
      <path
         id="path55"
         style="font-style:normal;font-variant:normal;font-weight:600;font-stretch:normal;font-family:'URW Gothic';-inkscape-font-specification:'URW Gothic Semi-Bold';fill:#28a745;fill-opacity:1;stroke:none;stroke-width:0.695748"
         d="m 19.520767,10.413985 h 1.826064 V 0.26766289 h -1.826064 z" />
    </g>
  </g>
  <g
     style="display:inline"
     id="layer1"
     inkscape:groupmode="layer"
     inkscape:label="CGrande">
    <path
       d="M 5.1238213,0.01285954 A 5.1641212,5.1641212 0 0 0 6.9870253e-5,5.2036867 5.1641212,5.1641212 0 0 0 5.1778978,10.340957 5.1641212,5.1641212 0 0 0 9.8248397,7.4000258 H 7.8146487 V 7.3729874 A 3.4423258,3.4423258 0 0 1 5.1732182,8.6193476 3.4423258,3.4423258 0 0 1 1.7221995,5.194847 3.4423258,3.4423258 0 0 1 5.1326607,1.7349891 a 3.4423258,3.4423258 0 0 1 0.00468,0 3.4423258,3.4423258 0 0 1 2.7225455,1.3009566 H 9.8638371 A 5.1641212,5.1641212 0 0 0 5.1238213,0.01285954 Z"
       style="fill:#ea4335;stroke:none;stroke-width:0.0640322;stroke-linecap:round;stroke-miterlimit:4;stroke-dasharray:none;paint-order:markers stroke fill;fill-opacity:1"
       id="path19" />
  </g>
</svg>
