<?xml version="1.0" encoding="UTF-8" standalone="no"?>
<!-- Created with Inkscape (http://www.inkscape.org/) -->

<svg
   width="500"
   height="500"
   viewBox="0 0 132.29166 132.29167"
   version="1.1"
   id="svg5"
   xml:space="preserve"
   inkscape:export-filename="mysql.svg"
   inkscape:export-xdpi="96"
   inkscape:export-ydpi="96"
   xmlns:inkscape="http://www.inkscape.org/namespaces/inkscape"
   xmlns:sodipodi="http://sodipodi.sourceforge.net/DTD/sodipodi-0.dtd"
   xmlns="http://www.w3.org/2000/svg"
   xmlns:svg="http://www.w3.org/2000/svg"><sodipodi:namedview
     id="namedview7"
     pagecolor="#505050"
     bordercolor="#ffffff"
     borderopacity="1"
     inkscape:showpageshadow="0"
     inkscape:pageopacity="0"
     inkscape:pagecheckerboard="1"
     inkscape:deskcolor="#505050"
     inkscape:document-units="px"
     showgrid="false"
     inkscape:zoom="0.75722503"
     inkscape:cx="260.16044"
     inkscape:cy="456.27124"
     inkscape:window-width="1874"
     inkscape:window-height="1016"
     inkscape:window-x="46"
     inkscape:window-y="27"
     inkscape:window-maximized="1"
     inkscape:current-layer="layer1" /><defs
     id="defs2"><linearGradient
       id="linearGradient2039"
       inkscape:swatch="solid"><stop
         style="stop-color:#3670a0;stop-opacity:1;"
         offset="0"
         id="stop2037" /></linearGradient></defs><g
     inkscape:label="Layer 1"
     inkscape:groupmode="layer"
     id="layer1"><g
       style="opacity:1"
       id="layer1-3"
       inkscape:label="Logo"
       transform="matrix(10.217233,0,0,10.217233,-1.4369082,-3.4803863e-6)"><path
         d="m 12.066976,9.9292632 c -0.704328,-0.019613 -1.250738,0.052587 -1.708709,0.2452208 -0.131865,0.05298 -0.343478,0.05298 -0.3608478,0.218934 0.07048,0.06962 0.07896,0.183624 0.1407498,0.28014 0.105611,0.175185 0.290775,0.411186 0.457974,0.533604 l 0.563577,0.402755 c 0.343479,0.209909 0.730981,0.332523 1.065574,0.542628 0.193853,0.122614 0.387502,0.280141 0.581346,0.411584 0.09871,0.07001 0.158511,0.184014 0.281891,0.227569 v -0.02649 c -0.06158,-0.07847 -0.07936,-0.19225 -0.140749,-0.280141 L 12.683261,12.231409 C 12.428023,11.890055 12.110799,11.592264 11.767317,11.34743 11.485427,11.154781 10.86914,10.8923 10.754647,10.568606 l -0.01735,-0.01961 c 0.193453,-0.01961 0.422437,-0.08769 0.6076,-0.140265 0.299659,-0.07847 0.572462,-0.06118 0.880412,-0.139874 L 12.648343,10.14624 V 10.06777 C 12.489809,9.9102327 12.375314,9.7001275 12.208114,9.5514233 11.759024,9.1663282 11.265521,8.7898596 10.754646,8.4747989 10.48164,8.299809 10.129278,8.1858292 9.8387042,8.0373202 9.7327012,7.9847333 9.5568132,7.9584556 9.4952248,7.8709646 9.3363156,7.6787062 9.248473,7.4246562 9.1339774,7.1968998 L 8.4118813,5.673971 C 8.2533707,5.3326176 8.1562452,4.9912721 7.9627912,4.6762097 7.0555333,3.1882001 6.06892,2.2867626 4.5540596,1.4025888 4.2283496,1.2187693 3.8408479,1.1397094 3.4288703,1.0435841 L 2.7683625,1.0082657 C 2.6272219,0.94708371 2.4864721,0.78069678 2.3631001,0.70183216 1.8611107,0.38677218 0.56635111,-0.29592914 0.19622255,0.60374562 -0.04164495,1.1726601 0.54858561,1.7327489 0.74894681,2.0217194 0.89897181,2.222995 1.0924256,2.4505639 1.1984276,2.6781328 c 0.059229,0.1487043 0.078958,0.3064336 0.1407498,0.4639597 0.14075,0.3850949 0.2730062,0.8141379 0.4579742,1.1731443 0.098703,0.1838194 0.2023383,0.3766638 0.3257103,0.5428242 0.07048,0.098087 0.1938445,0.14007 0.2201067,0.2976039 C 2.2195888,5.3308502 2.211103,5.5931436 2.1406305,5.8122737 1.823406,6.8014022 1.9467858,8.0267294 2.395868,8.7549422 2.5370086,8.9736814 2.869634,9.4553003 3.3208922,9.2712855 3.7172704,9.1137516 3.6288417,8.6148721 3.7433294,8.1772012 c 0.026645,-0.1049546 0.0089,-0.17499 0.061573,-0.2452203 v 0.019613 L 4.1661495,8.6780423 C 4.4391556,9.1068867 4.9148906,9.553388 5.3110788,9.8511864 5.5223012,10.00872 5.6896963,10.280225 5.953818,10.376351 v -0.02648 H 5.9364715 C 5.8835721,10.271389 5.8042152,10.236078 5.7337425,10.174872 5.575232,10.017339 5.3991481,9.8246974 5.2757683,9.6497074 4.9060351,9.1596576 4.580325,8.6168303 4.2895495,8.056743 4.1484089,7.7854324 4.0250291,7.4878285 3.9109321,7.2165124 3.857642,7.1113622 3.857642,6.9536329 3.7697916,6.9014525 3.6375354,7.0937108 3.4440813,7.2604571 3.3467607,7.4966603 3.1793658,7.8729337 3.1619956,8.3368909 3.1003995,8.8183113 c -0.035553,0.00882 -0.019769,0 -0.035553,0.019613 C 2.7833548,8.7680685 2.6862294,8.4789191 2.5806182,8.2340895 2.3164962,7.612596 2.2722781,6.614837 2.5012613,5.8970221 2.5628339,5.7132026 2.8273699,5.1354585 2.7217587,4.9604686 2.6684686,4.7941129 2.4927755,4.6979798 2.3956501,4.5665439 2.2811545,4.4001884 2.1581733,4.1902708 2.0788162,4.0064591 1.8675938,3.5160106 1.7619904,2.9735817 1.5328039,2.4833335 1.4268021,2.2557645 1.2420293,2.0193737 1.0921999,1.8094641 0.92480501,1.5730733 0.74023531,1.4067098 0.60797121,1.126765 0.56397951,1.0286785 0.50235996,0.8729105 0.57280911,0.76776027 c 0.017347,-0.0700116 0.052899,-0.0980865 0.1229814,-0.11378446 0.1144954,-0.0980866 0.44059629,0.0262544 0.55509189,0.0784739 C 1.5765925,0.86388553 1.8495986,0.98630423 2.122608,1.1699284 2.24598,1.2574273 2.3782441,1.423783 2.5367546,1.4677277 h 0.1851635 c 0.2818904,0.061182 0.5987163,0.019613 0.8626452,0.098087 0.4668508,0.1490949 0.8894911,0.3676389 1.2685021,0.6042249 1.1536153,0.7264485 2.1050908,1.7593234 2.7478308,2.9936755 0.1056108,0.2012754 0.1496264,0.385095 0.2467518,0.5952078 0.1851635,0.4290399 0.4141467,0.8665178 0.5987163,1.2869272 0.1851635,0.4113884 0.3612474,0.8317948 0.6253693,1.1731442 0.1322562,0.1838195 0.6605076,0.2799449 0.8981776,0.3762733 0.1762788,0.078474 0.4490898,0.149095 0.6079988,0.2452203 0.299261,0.1838196 0.598716,0.3939245 0.880412,0.5952078 0.140749,0.1047596 0.581346,0.3236943 0.6076,0.4982935 z M 3.0852025,2.3230522 a 1.3995774,1.3909016 0 0 0 -0.3608489,0.043757 v 0.019613 h 0.017346 c 0.07048,0.1400695 0.1938451,0.236398 0.2818908,0.3590043 l 0.202729,0.4202102 0.017346,-0.019613 C 3.3670459,3.0585255 3.4288296,2.9184555 3.4288296,2.7085457 3.3759303,2.6473637 3.367257,2.5859316 3.3232184,2.5247263 3.2703191,2.4372274 3.1558235,2.3932905 3.0851556,2.3234507 Z"
         fill-rule="evenodd"
         fill="#00678c"
         id="path1852"
         style="stroke-width:0.19679" /></g></g></svg>
