<?xml version="1.0" encoding="UTF-8" standalone="no"?>
<svg
   xmlns:dc="http://purl.org/dc/elements/1.1/"
   xmlns:cc="http://creativecommons.org/ns#"
   xmlns:rdf="http://www.w3.org/1999/02/22-rdf-syntax-ns#"
   xmlns:svg="http://www.w3.org/2000/svg"
   xmlns="http://www.w3.org/2000/svg"
   xmlns:sodipodi="http://sodipodi.sourceforge.net/DTD/sodipodi-0.dtd"
   xmlns:inkscape="http://www.inkscape.org/namespaces/inkscape"
   sodipodi:docname="python.svg"
   inkscape:version="1.0 (1.0+r73+1)"
   id="svg874"
   version="1.1"
   viewBox="0 0 13.229167 13.229167"
   height="50"
   width="50">
  <defs
     id="defs868" />
  <sodipodi:namedview
     inkscape:window-maximized="1"
     inkscape:window-y="0"
     inkscape:window-x="0"
     inkscape:window-height="704"
     inkscape:window-width="1366"
     units="px"
     showgrid="false"
     inkscape:document-rotation="0"
     inkscape:current-layer="layer1"
     inkscape:document-units="px"
     inkscape:cy="32.221521"
     inkscape:cx="26.182677"
     inkscape:zoom="5.6568543"
     inkscape:pageshadow="2"
     inkscape:pageopacity="0.0"
     borderopacity="1.0"
     bordercolor="#666666"
     pagecolor="#ffffff"
     id="base" />
  <metadata
     id="metadata871">
    <rdf:RDF>
      <cc:Work
         rdf:about="">
        <dc:format>image/svg+xml</dc:format>
        <dc:type
           rdf:resource="http://purl.org/dc/dcmitype/StillImage" />
        <dc:title />
      </cc:Work>
    </rdf:RDF>
  </metadata>
  <g
     style="opacity:1"
     id="layer1"
     inkscape:groupmode="layer"
     inkscape:label="Logo">
    <path
       sodipodi:nodetypes="cccsssssscscsssscc"
       d="m 6.6296288,2.9889761 -3.1936589,0.00464 0.00344,-1.6033715 C 3.577694,0.46015272 4.8370496,0.04048998 6.5616278,0.0366092 7.6041714,0.03426908 8.6534159,0.20777972 9.2865243,0.70345891 9.8701553,1.1604016 9.8224028,1.9476968 9.80673,2.7768575 9.7933307,3.4860213 9.8526057,4.2276847 9.8056003,4.7962388 9.7719241,5.2036112 9.6241727,5.5753836 9.3992203,5.8326928 9.1157745,6.1569095 8.7197384,6.3187831 8.386794,6.3585113 7.6517838,6.4462156 6.5853235,6.3900196 5.0630878,6.3859523 3.86025,6.3201429 3.2600303,7.0109293 3.1299272,7.7396735 3.0027309,8.4521363 3.0611374,9.0024301 3.0627173,9.7996712 2.1512425,9.8698639 1.4293999,9.8609418 0.94958907,9.4233244 0.21300497,8.7515149 -0.02786739,7.4415561 0.07258874,5.9426495 0.14870772,4.8068037 0.54326485,4.0715167 1.1665483,3.6947214 1.6145931,3.4238633 2.3345683,3.447036 3.1272795,3.444144 4.3047062,3.4398439 5.6560199,3.501605 6.6236621,3.45672 Z"
       style="fill:#3670a0;fill-opacity:1;stroke:#3670a0;stroke-width:0.21351876;stroke-linecap:round;stroke-linejoin:round;stroke-miterlimit:4;stroke-dasharray:none;paint-order:markers stroke fill;stroke-opacity:1"
       id="rect917" />
    <rect
       style="fill:#ffffff;fill-opacity:1;stroke:none;stroke-width:0.21351876;stroke-linecap:round;stroke-linejoin:round;stroke-miterlimit:4;stroke-dasharray:none;paint-order:markers stroke fill"
       id="rect965"
       width="1.142688"
       height="1.1236746"
       x="4.241899"
       y="1.0431921"
       ry="0.56183732" />
    <path
       id="path973"
       style="fill:#fed140;fill-opacity:1;stroke:#fed140;stroke-width:0.21351876;stroke-linecap:round;stroke-linejoin:round;stroke-miterlimit:4;stroke-dasharray:none;paint-order:markers stroke fill;stroke-opacity:1"
       d="m 6.5995376,10.240191 3.1936589,-0.0046 -0.00344,1.603372 C 9.6514724,12.769014 8.3921168,13.188677 6.6675386,13.192558 5.624995,13.194898 4.5757506,13.021387 3.9426422,12.525708 3.3590111,12.068765 3.4067637,11.28147 3.4224365,10.45231 3.4358357,9.7431458 3.3765608,9.0014824 3.4235661,8.4329282 3.4572424,8.0255558 3.6049937,7.6537836 3.8299462,7.3964742 4.1133919,7.0722575 4.509428,6.910384 4.8423725,6.8706558 c 0.7350101,-0.087704 1.8014704,-0.031508 3.3237061,-0.027441 1.2028378,0.06581 1.8030575,-0.6249769 1.9331604,-1.3537211 0.127197,-0.7124628 0.06879,-1.2627566 0.06721,-2.0599977 0.911475,-0.070193 1.633318,-0.061271 2.113128,0.3763467 0.736584,0.6718096 0.977457,1.9817684 0.877001,3.480675 -0.07612,1.1358458 -0.470676,1.8711329 -1.09396,2.2479281 -0.448045,0.2708581 -1.16802,0.2476854 -1.960731,0.2505774 -1.1774268,0.0043 -2.5287405,-0.057461 -3.4963827,-0.012576 z"
       sodipodi:nodetypes="cccsssssscscsssscc" />
    <rect
       transform="scale(-1)"
       ry="0.56183732"
       y="-12.185975"
       x="-8.9872665"
       height="1.1236746"
       width="1.142688"
       id="rect975"
       style="fill:#ffffff;fill-opacity:1;stroke:none;stroke-width:0.21351876;stroke-linecap:round;stroke-linejoin:round;stroke-miterlimit:4;stroke-dasharray:none;paint-order:markers stroke fill" />
  </g>
</svg>
