<?xml version="1.0" encoding="UTF-8" standalone="no"?>
<svg
   xmlns:dc="http://purl.org/dc/elements/1.1/"
   xmlns:cc="http://creativecommons.org/ns#"
   xmlns:rdf="http://www.w3.org/1999/02/22-rdf-syntax-ns#"
   xmlns:svg="http://www.w3.org/2000/svg"
   xmlns="http://www.w3.org/2000/svg"
   xmlns:sodipodi="http://sodipodi.sourceforge.net/DTD/sodipodi-0.dtd"
   xmlns:inkscape="http://www.inkscape.org/namespaces/inkscape"
   width="448"
   height="512"
   viewBox="0 0 118.53333 135.46667"
   version="1.1"
   id="svg874"
   inkscape:version="1.0 (1.0+r73+1)"
   sodipodi:docname="python.svg">
  <defs
     id="defs868" />
  <sodipodi:namedview
     id="base"
     pagecolor="#ffffff"
     bordercolor="#666666"
     borderopacity="1.0"
     inkscape:pageopacity="0.0"
     inkscape:pageshadow="2"
     inkscape:zoom="0.35"
     inkscape:cx="400"
     inkscape:cy="560"
     inkscape:document-units="px"
     inkscape:current-layer="layer1"
     inkscape:document-rotation="0"
     showgrid="false"
     units="px"
     inkscape:window-width="1366"
     inkscape:window-height="704"
     inkscape:window-x="0"
     inkscape:window-y="0"
     inkscape:window-maximized="1" />
  <metadata
     id="metadata871">
    <rdf:RDF>
      <cc:Work
         rdf:about="">
        <dc:format>image/svg+xml</dc:format>
        <dc:type
           rdf:resource="http://purl.org/dc/dcmitype/StillImage" />
        <dc:title />
      </cc:Work>
    </rdf:RDF>
  </metadata>
  <g
     inkscape:label="Layer 1"
     inkscape:groupmode="layer"
     id="layer1">
    <path
       style="fill:#02434f;fill-opacity:1;stroke-width:0.264583"
       id="path2"
       d="M 116.36206,53.047277 C 114.32477,44.871652 110.46185,38.70686 102.23331,38.70686 H 91.623512 v 12.54125 c 0,9.736667 -8.255,17.938752 -17.674167,17.938752 h -28.2575 c -7.725833,0 -14.12875,6.61458 -14.12875,14.36687 v 26.934578 c 0,7.67292 6.6675,12.17084 14.12875,14.36688 8.942917,2.61937 17.541875,3.09562 28.2575,0 7.117292,-2.06375 14.12875,-6.21771 14.12875,-14.36688 V 99.719782 H 59.847053 v -3.59834 h 42.386257 c 8.22854,0 11.27125,-5.74146 14.12875,-14.34041 2.96333,-8.86355 2.83104,-17.38313 0,-28.733755 z M 75.722053,106.88998 c 2.936875,0 5.318125,2.40771 5.318125,5.37104 0,2.98979 -2.38125,5.3975 -5.318125,5.3975 -2.910416,0 -5.318125,-2.43416 -5.318125,-5.3975 0.02646,-2.98979 2.407709,-5.37104 5.318125,-5.37104 z M 44.395387,65.641444 h 28.2575 c 7.858125,0 14.12875,-6.482292 14.12875,-14.366875 V 24.313528 c 0,-7.672917 -6.455834,-13.414375 -14.12875,-14.7108335 -9.472084,-1.561041 -19.764375,-1.481666 -28.2575,0.02646 C 32.43622,11.745822 30.266637,16.164363 30.266637,24.339988 v 10.768539 h 28.283958 v 3.598333 h -38.89375 c -8.228541,0 -15.4252074,4.947709 -17.6741658,14.340417 -2.59291656,10.768542 -2.69874996,17.488955 0,28.733755 2.0108334,8.36083 6.7997917,14.34041 15.0283328,14.34041 h 9.710208 v -12.91166 c 0,-9.3398 8.069792,-17.568338 17.674167,-17.568338 z M 42.622678,27.911861 c -2.936875,0 -5.318125,-2.407708 -5.318125,-5.371042 0.02646,-2.989791 2.38125,-5.397499 5.318125,-5.397499 2.910417,0 5.318125,2.434166 5.318125,5.397499 0,2.963334 -2.38125,5.371042 -5.318125,5.371042 z"
       fill="currentColor" />
  </g>
</svg>
