<?xml version="1.0" encoding="UTF-8" standalone="no"?>
<svg
   xmlns:osb="http://www.openswatchbook.org/uri/2009/osb"
   xmlns:dc="http://purl.org/dc/elements/1.1/"
   xmlns:cc="http://creativecommons.org/ns#"
   xmlns:rdf="http://www.w3.org/1999/02/22-rdf-syntax-ns#"
   xmlns:svg="http://www.w3.org/2000/svg"
   xmlns="http://www.w3.org/2000/svg"
   xmlns:sodipodi="http://sodipodi.sourceforge.net/DTD/sodipodi-0.dtd"
   xmlns:inkscape="http://www.inkscape.org/namespaces/inkscape"
   sodipodi:docname="python.svg"
   inkscape:version="1.0 (1.0+r73+1)"
   id="svg874"
   version="1.1"
   viewBox="0 0 13.229167 13.229167"
   height="50"
   width="50"
   inkscape:export-filename="/home/kaell/Documentos/aboutme/img/logos/python.png"
   inkscape:export-xdpi="110"
   inkscape:export-ydpi="110">
  <defs
     id="defs868">
    <linearGradient
       id="linearGradient2039"
       osb:paint="solid">
      <stop
         style="stop-color:#3670a0;stop-opacity:1;"
         offset="0"
         id="stop2037" />
    </linearGradient>
    <filter
       inkscape:collect="always"
       style="color-interpolation-filters:sRGB"
       id="filter1369"
       x="-0.086017155"
       width="1.1720343"
       y="-0.4753951"
       height="1.9507902">
      <feGaussianBlur
         inkscape:collect="always"
         stdDeviation="0.25086835"
         id="feGaussianBlur1371" />
    </filter>
  </defs>
  <sodipodi:namedview
     inkscape:window-maximized="1"
     inkscape:window-y="0"
     inkscape:window-x="0"
     inkscape:window-height="704"
     inkscape:window-width="1366"
     units="px"
     showgrid="false"
     inkscape:document-rotation="0"
     inkscape:current-layer="layer1"
     inkscape:document-units="px"
     inkscape:cy="106.28903"
     inkscape:cx="-43.345989"
     inkscape:zoom="1.4142136"
     inkscape:pageshadow="2"
     inkscape:pageopacity="0.0"
     borderopacity="1.0"
     bordercolor="#666666"
     pagecolor="#ffffff"
     id="base" />
  <metadata
     id="metadata871">
    <rdf:RDF>
      <cc:Work
         rdf:about="">
        <dc:format>image/svg+xml</dc:format>
        <dc:type
           rdf:resource="http://purl.org/dc/dcmitype/StillImage" />
        <dc:title />
      </cc:Work>
    </rdf:RDF>
  </metadata>
  <g
     style="opacity:1"
     id="layer1"
     inkscape:groupmode="layer"
     inkscape:label="Logo">
    <g
       id="g893"
       transform="matrix(0.73062938,0,0,0.73062938,11.091263,4.4099994)">
      <path
         style="stroke-width:0.264583"
         fill="#85cbf8"
         d="m -6.1271541,-5.7713078 c -2.6265189,0 -3.4395835,1.245923 -3.4395835,2.0542251 v 1.3853584 h 3.4395835 v 1.0583333 h -5.3541089 c -1.044046,0 -2.054225,0.75538548 -2.054225,2.9104168 0,2.1550313 1.010179,2.9104171 2.054225,2.9104171 h 1.9867567 V 2.9840195 c 0,-0.7408333 0.6061604,-1.3469937 1.3469938,-1.3469937 h 4.0409813 c 0.7408332,0 1.4192252,-0.6061605 1.4192252,-1.34699382 V -3.7170827 c -2.65e-4,-0.8419042 -0.813329,-2.0542251 -3.4398481,-2.0542251 z"
         id="path2" />
      <path
         style="stroke-width:0.264583"
         fill="#f9dd8f"
         d="m -6.1271541,9.0453589 c 2.6265191,0 3.3673521,-1.245923 3.3673521,-2.054225 v -1.385358 h -3.3673521 v -1.058333 h 5.35410808 c 1.044046,0 2.05422502,-0.7553858 2.05422502,-2.9104171 0,-2.15503132 -1.01017902,-2.9104168 -2.05422502,-2.9104168 H -2.687571 v 1.56342298 c 0,0.74083332 -0.678391,1.34699382 -1.4192248,1.34699382 h -4.0407167 c -0.7408334,0 -1.4192251,0.6061604 -1.4192251,1.3469937 v 4.0071144 c 0,0.808302 0.8130646,2.054225 3.4395835,2.054225 z"
         id="path4" />
      <path
         style="stroke-width:0.264583"
         fill="#8d6c9e"
         d="m -7.5823625,-4.4483911 a 0.66145835,0.66145835 0 1 0 0,1.3229167 0.66145835,0.66145835 0 1 0 0,-1.3229167 z m 3.1750001,10.847917 a 0.6614585,0.6614585 0 1 0 0,1.322917 0.6614585,0.6614585 0 1 0 0,-1.322917 z"
         id="path6" />
      <path
         style="stroke-width:0.264583"
         fill="#ace3ff"
         d="m -13.535488,1.6370258 c 0,2.1550313 1.010179,2.9104171 2.054225,2.9104171 h 1.6666109 c 0,-0.730515 -0.5924019,-1.3229171 -1.3229169,-1.3229171 h -0.343694 c -0.539221,0 -0.731308,-0.8202084 -0.731308,-1.5875 0,-0.76729172 0.192087,-1.58750012 0.728663,-1.58750012 l 4.3082101,0.0082 c 7.937e-4,0 0.00185,0 0.00265,0 0.7294563,0 1.3215938,-0.59055 1.3229167,-1.32027088 0,-0.0037 -0.00106,-0.00714 -0.00106,-0.010848 h -5.6300718 c -1.044046,0 -2.054225,0.75538548 -2.054225,2.9104168 z"
         id="path8" />
      <path
         style="stroke-width:0.264583"
         fill="#efc88e"
         d="m 1.293615,1.6370258 c 0,-2.15503132 -1.01017902,-2.9104168 -2.05422502,-2.9104168 H -2.427221 c 0,0.73051458 0.592402,1.32291668 1.322917,1.32291668 h 0.34369398 c 0.539221,0 0.731308,0.8202084 0.731308,1.58750012 0,0.7672916 -0.192087,1.5875 -0.728662,1.5875 l -4.30821088,-0.0082 c -7.938e-4,0 -0.00185,0 -0.00265,0 -0.7294562,0 -1.3215938,0.59055 -1.3229167,1.3202711 0,0.0037 0.00106,0.0071 0.00106,0.01085 h 5.63006858 c 1.044046,0 2.05422502,-0.7553857 2.05422502,-2.910417 z"
         id="path10" />
      <path
         fill="#8d6c9f"
         d="m -9.3021542,4.8120259 h -2.1791088 c -0.543983,0 -2.318808,-0.228865 -2.318808,-3.1750001 0,-2.9461355 1.774825,-3.1750001 2.318808,-3.1750001 h 5.0895255 V -2.067141 h -3.4395834 v -1.6499417 c 0,-0.8022167 0.7741709,-2.3188084 3.7041668,-2.3188084 2.9241751,0 3.7041671,1.4575896 3.7041671,2.3188084 v 4.00737928 c 0,0.87338962 -0.770996,1.61131252 -1.6835442,1.61131252 h -4.0409813 c -0.6151563,0 -1.1546417,0.5058833 -1.1546417,1.0824104 z m -2.1791088,-5.8208335 c -1.137443,0 -1.789641,0.96440618 -1.789641,2.6458334 0,1.6814271 0.652198,2.6458331 1.789641,2.6458331 h 1.6499421 V 2.9840195 c 0,-0.8736541 0.7709959,-1.6115771 1.6838084,-1.6115771 h 4.0409813 c 0.6148922,0 1.1543772,-0.50588332 1.1543772,-1.08241042 V -3.7170827 c 0,-0.6648979 -0.668602,-1.7896417 -3.1750001,-1.7896417 -2.5114251,0 -3.1750001,1.1705167 -3.1750001,1.7896417 v 1.120775 h 3.4395834 v 1.5875001 z"
         id="path12"
         style="stroke-width:0.264583" />
      <path
         style="stroke-width:0.264583"
         fill="#8d6c9e"
         d="m -6.1271541,9.3099429 c -2.9299959,0 -3.7041668,-1.516592 -3.7041668,-2.318809 V 2.9840195 c 0,-0.8736541 0.7709959,-1.6115771 1.6838084,-1.6115771 h 4.0409813 c 0.6148922,0 1.1543772,-0.50588332 1.1543772,-1.08241042 V -1.5379743 h 2.17910798 c 0.543984,0 2.31880902,0.2288646 2.31880902,3.1750001 0,2.9461351 -1.77482502,3.1750001 -2.31880902,3.1750001 H -5.8625708 v 0.529167 h 3.4395838 v 1.649941 c 0,0.802217 -0.774171,2.318809 -3.7041671,2.318809 z M -8.1475125,1.9016091 c -0.6151563,0 -1.1546417,0.5058833 -1.1546417,1.0824104 v 4.0073794 c 0,0.61886 0.663575,1.789377 3.1750001,1.789377 2.5114251,0 3.1750001,-1.170517 3.1750001,-1.789642 v -1.120775 h -3.4395835 v -1.5875 h 5.61869148 c 1.137444,0 1.78964202,-0.964406 1.78964202,-2.6458331 0,-1.68142722 -0.65219802,-2.6458334 -1.78964202,-2.6458334 H -2.422987 v 1.29883958 c 0,0.87365422 -0.770996,1.61157712 -1.6835442,1.61157712 z"
         id="path14" />
      <path
         style="stroke-width:0.264583"
         fill="#8d6c9f"
         d="m -4.6317291,3.7536925 c -0.1463146,0 -0.2645833,-0.1185334 -0.2645833,-0.2645834 V 2.9599425 c 0,-0.14605 0.1182687,-0.2645834 0.2645833,-0.2645834 0.1463146,0 0.2645833,0.1185334 0.2645833,0.2645834 v 0.5291666 c 0,0.14605 -0.1182687,0.2645834 -0.2645833,0.2645834 z m 1.2080871,0 c -0.146314,0 -0.264583,-0.1185334 -0.264583,-0.2645834 V 2.9599425 c 0,-0.14605 0.118269,-0.2645834 0.264583,-0.2645834 0.146315,0 0.264584,0.1185334 0.264584,0.2645834 v 0.5291666 c 0,0.14605 -0.118269,0.2645834 -0.264584,0.2645834 z m 1.207559,0 c -0.146315,0 -0.264584,-0.1185334 -0.264584,-0.2645834 V 2.9599425 c 0,-0.14605 0.118269,-0.2645834 0.264584,-0.2645834 0.146314,0 0.264583,0.1185334 0.264583,0.2645834 v 0.5291666 c 0,0.14605 -0.118269,0.2645834 -0.264583,0.2645834 z m 1.208087,0 c -0.146314,0 -0.264583,-0.1185334 -0.264583,-0.2645834 V 2.9599425 c 0,-0.14605 0.118269,-0.2645834 0.264583,-0.2645834 0.14631498,0 0.26458398,0.1185334 0.26458398,0.2645834 v 0.5291666 c 0,0.14605 -0.118534,0.2645834 -0.26458398,0.2645834 z"
         id="path16" />
      <g
         transform="matrix(0.26458334,0,0,0.26458334,-14.593821,-6.8296411)"
         id="g20">
        <path
           fill="#8d6c9f"
           d="m 15.652,28.083 c -0.552,0 -1,-0.448 -1,-1 v -2 c 0,-0.552 0.448,-1 1,-1 0.552,0 1,0.448 1,1 v 2 c 0,0.553 -0.447,1 -1,1 z m 4.565,0 c -0.552,0 -1,-0.448 -1,-1 v -2 c 0,-0.552 0.448,-1 1,-1 0.552,0 1,0.448 1,1 v 2 c 0,0.553 -0.447,1 -1,1 z m 4.566,0 c -0.552,0 -1,-0.448 -1,-1 v -2 c 0,-0.552 0.448,-1 1,-1 0.552,0 1,0.448 1,1 v 2 c 0,0.553 -0.448,1 -1,1 z m 4.565,0 c -0.552,0 -1,-0.448 -1,-1 v -2 c 0,-0.552 0.448,-1 1,-1 0.552,0 1,0.448 1,1 v 2 c 0,0.553 -0.448,1 -1,1 z"
           id="path18" />
      </g>
    </g>
    <ellipse
       style="opacity:0.510446;fill:#000000;fill-opacity:0.271895;stroke:none;stroke-width:0.519654;stroke-linecap:round;paint-order:stroke markers fill;filter:url(#filter1369)"
       id="path895"
       cx="6.6145835"
       cy="12.336094"
       rx="3.4997904"
       ry="0.63324594"
       transform="matrix(1.4789174,0,0,0.51197985,-3.1678389,5.9996006)" />
  </g>
</svg>
