<?xml version="1.0" encoding="UTF-8" standalone="no"?>
<svg
   xmlns:osb="http://www.openswatchbook.org/uri/2009/osb"
   xmlns:dc="http://purl.org/dc/elements/1.1/"
   xmlns:cc="http://creativecommons.org/ns#"
   xmlns:rdf="http://www.w3.org/1999/02/22-rdf-syntax-ns#"
   xmlns:svg="http://www.w3.org/2000/svg"
   xmlns="http://www.w3.org/2000/svg"
   xmlns:sodipodi="http://sodipodi.sourceforge.net/DTD/sodipodi-0.dtd"
   xmlns:inkscape="http://www.inkscape.org/namespaces/inkscape"
   sodipodi:docname="python.svg"
   inkscape:version="1.0 (1.0+r73+1)"
   id="svg874"
   version="1.1"
   viewBox="0 0 13.229167 13.229167"
   height="50"
   width="50"
   inkscape:export-filename="/home/kaell/Documentos/aboutme/img/logos/python.png"
   inkscape:export-xdpi="110"
   inkscape:export-ydpi="110">
  <defs
     id="defs868">
    <linearGradient
       id="linearGradient2039"
       osb:paint="solid">
      <stop
         style="stop-color:#3670a0;stop-opacity:1;"
         offset="0"
         id="stop2037" />
    </linearGradient>
    <linearGradient
       id="a"
       x1="70.251999"
       x2="170.659"
       y1="1237.476"
       y2="1151.089"
       gradientTransform="matrix(0.14896042,0,0,-0.15028334,-7.7298017,187.27659)"
       gradientUnits="userSpaceOnUse">
      <stop
         offset="0"
         stop-color="#5A9FD4"
         id="stop2" />
      <stop
         offset="1"
         stop-color="#306998"
         id="stop4" />
    </linearGradient>
    <linearGradient
       id="b"
       x1="209.474"
       x2="173.62"
       y1="1098.811"
       y2="1149.537"
       gradientTransform="matrix(0.14896042,0,0,-0.15028334,-7.7298017,187.27659)"
       gradientUnits="userSpaceOnUse">
      <stop
         offset="0"
         stop-color="#FFD43B"
         id="stop9" />
      <stop
         offset="1"
         stop-color="#FFE873"
         id="stop11" />
    </linearGradient>
    <radialGradient
       id="c"
       cx="1825.678"
       cy="444.45001"
       r="26.743"
       gradientTransform="matrix(0,-0.0635,-0.27913542,0,141.01736,147.52532)"
       gradientUnits="userSpaceOnUse">
      <stop
         offset="0"
         stop-color="#B8B8B8"
         stop-opacity=".498"
         id="stop16" />
      <stop
         offset="1"
         stop-color="#7F7F7F"
         stop-opacity="0"
         id="stop18" />
    </radialGradient>
    <filter
       height="1.6734979"
       y="-0.33674894"
       width="1.1305924"
       x="-0.065296199"
       id="filter1980"
       style="color-interpolation-filters:sRGB"
       inkscape:collect="always">
      <feGaussianBlur
         id="feGaussianBlur1982"
         stdDeviation="0.19206294"
         inkscape:collect="always" />
    </filter>
  </defs>
  <sodipodi:namedview
     inkscape:window-maximized="1"
     inkscape:window-y="0"
     inkscape:window-x="0"
     inkscape:window-height="704"
     inkscape:window-width="1366"
     units="px"
     showgrid="false"
     inkscape:document-rotation="0"
     inkscape:current-layer="layer1"
     inkscape:document-units="px"
     inkscape:cy="73.105968"
     inkscape:cx="-180.2891"
     inkscape:zoom="1"
     inkscape:pageshadow="2"
     inkscape:pageopacity="0.0"
     borderopacity="1.0"
     bordercolor="#666666"
     pagecolor="#ffffff"
     id="base" />
  <metadata
     id="metadata871">
    <rdf:RDF>
      <cc:Work
         rdf:about="">
        <dc:format>image/svg+xml</dc:format>
        <dc:type
           rdf:resource="http://purl.org/dc/dcmitype/StillImage" />
        <dc:title />
      </cc:Work>
    </rdf:RDF>
  </metadata>
  <g
     style="opacity:1"
     id="layer1"
     inkscape:groupmode="layer"
     inkscape:label="Logo">
    <path
       style="fill:#016aab;stroke-width:0.106664;fill-opacity:1"
       fill="url(#a)"
       d="M 6.9289311,0.01358532 C 6.478593,0.01571438 6.0487344,0.05401071 5.6702882,0.12099669 4.5556429,0.31789944 4.3534068,0.73005207 4.3534068,1.490251 v 1.0038209 h 2.6338698 v 0.334607 H 3.3648391 c -0.7654255,0 -1.4357061,0.4600442 -1.6454091,1.3355478 -0.2419149,1.0031807 -0.2525815,1.6293021 0,2.6768554 0.1871969,0.7798253 0.6343346,1.3353347 1.399867,1.3353347 H 4.0249864 V 6.9730264 c 0,-0.8694235 0.7520923,-1.6362353 1.6454086,-1.6362353 h 2.6308832 c 0.7323593,0 1.3168816,-0.6030822 1.3168816,-1.338428 V 1.4903574 c 0,-0.71390663 -0.6022283,-1.25010916 -1.3168816,-1.3692536 C 7.8485934,0.04579855 7.3791625,0.01155873 6.9289311,0.01358532 Z M 5.5045316,0.82093001 c 0.2719949,0 0.4942838,0.22580929 0.4942838,0.50356419 0,0.2765813 -0.2221824,0.5002569 -0.4942838,0.5002569 -0.2730615,0 -0.4941773,-0.2236756 -0.4941773,-0.5002569 C 5.0102476,1.0467393 5.2314701,0.82093001 5.5045316,0.82093001 Z"
       id="path7" />
    <path
       style="fill:#feb43b;stroke-width:0.106664;fill-opacity:1"
       fill="url(#b)"
       d="m 9.9465802,2.8286789 v 1.1696842 c 0,0.9066493 -0.7688388,1.6698349 -1.6454084,1.6698349 H 5.6702882 c -0.7206261,0 -1.3168814,0.6168414 -1.3168814,1.3385343 v 2.5082193 c 0,0.7136924 0.6205749,1.1336314 1.3168814,1.3383214 0.833691,0.245008 1.6332493,0.289381 2.6308836,0 C 8.9641992,10.661169 9.618053,10.27483 9.618053,9.5149516 V 8.5110238 H 6.9872766 V 8.1763104 h 3.9478714 c 0.765426,0 1.05086,-0.5338567 1.317095,-1.3353347 0.274981,-0.8250509 0.263141,-1.6185293 0,-2.6768559 C 12.06302,3.4020011 11.701747,2.8285721 10.935148,2.8285721 H 9.9465802 Z M 8.466822,9.1802378 c 0.2731678,0 0.4942838,0.2236756 0.4942838,0.5004704 0,0.2775414 -0.2212225,0.5033498 -0.4942838,0.5033498 -0.271995,0 -0.4941774,-0.2258084 -0.4941774,-0.5033498 0,-0.2767948 0.2221824,-0.5004704 0.4941774,-0.5004704 z"
       id="path14-3" />
    <path
       style="opacity:0.66350791;fill:#d7d8d0;stroke-width:0.106664;filter:url(#filter1980);fill-opacity:1"
       fill="url(#c)"
       d="m 10.167348,12.083856 c 0,0.377913 -1.5803432,0.68436 -3.5296396,0.68436 -1.9494027,0 -3.529746,-0.306447 -3.529746,-0.68436 0,-0.37802 1.5802365,-0.684467 3.529746,-0.684467 1.9492964,0 3.5296396,0.306341 3.5296396,0.684467 z"
       enable-background="new"
       opacity="0.444"
       id="path21" />
  </g>
</svg>
