<?xml version="1.0" encoding="UTF-8" standalone="no"?>
<svg
   xmlns:dc="http://purl.org/dc/elements/1.1/"
   xmlns:cc="http://creativecommons.org/ns#"
   xmlns:rdf="http://www.w3.org/1999/02/22-rdf-syntax-ns#"
   xmlns:svg="http://www.w3.org/2000/svg"
   xmlns="http://www.w3.org/2000/svg"
   xmlns:sodipodi="http://sodipodi.sourceforge.net/DTD/sodipodi-0.dtd"
   xmlns:inkscape="http://www.inkscape.org/namespaces/inkscape"
   inkscape:version="1.0 (1.0+r73+1)"
   sodipodi:docname="servicos-web.svg"
   id="svg56"
   version="1.1"
   width="50"
   viewBox="0 0 50 41.129002"
   height="41.129002">
  <metadata
     id="metadata62">
    <rdf:RDF>
      <cc:Work
         rdf:about="">
        <dc:format>image/svg+xml</dc:format>
        <dc:type
           rdf:resource="http://purl.org/dc/dcmitype/StillImage" />
        <dc:title></dc:title>
      </cc:Work>
    </rdf:RDF>
  </metadata>
  <defs
     id="defs60" />
  <sodipodi:namedview
     inkscape:current-layer="svg56"
     inkscape:window-maximized="1"
     inkscape:window-y="0"
     inkscape:window-x="0"
     inkscape:cy="26.241639"
     inkscape:cx="10.230204"
     inkscape:zoom="7.15625"
     showgrid="false"
     id="namedview58"
     inkscape:window-height="704"
     inkscape:window-width="1366"
     inkscape:pageshadow="2"
     inkscape:pageopacity="0"
     guidetolerance="10"
     gridtolerance="10"
     objecttolerance="10"
     borderopacity="1"
     bordercolor="#666666"
     pagecolor="#ffffff"
     inkscape:document-rotation="0" />
  <g
     transform="matrix(0.10080645,0,0,0.10080645,-0.8064512,-5.6451762)"
     id="g1090">
    <g
       id="g32">
      <g
         id="g10">
        <path
           id="path2"
           fill="#57565c"
           d="m 496,336 v 24 a 24.006,24.006 0 0 1 -24,24 H 40 A 24.006,24.006 0 0 1 16,360 v -24 z" />
        <path
           id="path4"
           fill="#83d8f4"
           d="M 496,88 V 336 H 16 V 88 A 24.006,24.006 0 0 1 40,64 h 432 a 24.006,24.006 0 0 1 24,24 z"
           style="fill:#6fd085;fill-opacity:0.622412" />
        <path
           id="path6"
           fill="#e0e0e2"
           d="M 312,432 H 200 l 16,-48 h 80 z" />
        <path
           id="path8"
           fill="#57565c"
           d="m 168,432 h 176 v 24 H 168 Z" />
      </g>
      <g
         id="g30">
        <path
           id="path12"
           fill="#e0e0e2"
           d="M 256,336 V 128 h 72 v 208" />
        <path
           id="path14"
           fill="#ff5023"
           d="m 184,192 h 48 v 143 h -48 z" />
        <path
           id="path16"
           fill="#d9ccbc"
           d="m 232,176 v 16 h -48 v -16 l 4,-8 h 40 z" />
        <path
           id="path18"
           fill="#57565c"
           d="m 228,168 h -40 l 20,-40 z" />
        <path
           id="path20"
           fill="#ffda44"
           d="m 352,256 h 48 v 80 h -48 z" />
        <path
           id="path22"
           fill="#e0e0e2"
           d="m 400,240 v 16 h -48 v -16 l 24,-48 z" />
        <path
           id="path24"
           fill="#5f4d37"
           d="m 160,168 c 0,17.673 -10.745,32 -24,32 -13.255,0 -24,-14.327 -24,-32 0,-17.673 24,-40 24,-40 0,0 24,22.327 24,40 z" />
        <path
           id="path26"
           fill="#e0e0e2"
           d="m 152,248 h -32 l 8,-48 h 16 z" />
        <path
           id="path28"
           fill="#2d2d30"
           d="M 123.667,336 120,248 h 32 l -3.667,88" />
      </g>
    </g>
    <g
       id="g52">
      <path
         id="path34"
         d="M 472,56 H 40 A 32.042,32.042 0 0 0 8,88 v 272 a 32.042,32.042 0 0 0 32,32 h 164.9 l -10.67,32 H 168 a 8,8 0 0 0 -8,8 v 16 H 88 a 8,8 0 0 0 0,16 h 352 a 8,8 0 0 0 0,-16 h -88 v -16 a 8,8 0 0 0 -8,-8 H 317.77 L 307.1,392 H 472 a 32.042,32.042 0 0 0 32,-32 V 88 A 32.042,32.042 0 0 0 472,56 Z M 336,440 v 8 H 176 v -8 z m -124.9,-16 10.67,-32 h 68.46 l 10.67,32 z M 488,360 a 16.021,16.021 0 0 1 -16,16 H 40 A 16.021,16.021 0 0 1 24,360 v -16 h 464 z m -344.34,-104 -3,72 h -9.32 l -3,-72 z m -14.22,-16 5.34,-32 h 2.44 l 5.34,32 z M 136,192 c -8.67,0 -16,-10.99 -16,-24 0,-8.21 8.38,-20.14 15.98,-28.55 6.85,7.6 16.02,19.75 16.02,28.55 0,13.01 -7.33,24 -16,24 z m 87.06,-16 0.94,1.89 V 184 h -32 v -6.11 L 192.94,176 Z M 200.94,160 208,145.89 215.06,160 Z M 224,200 v 127 a 8.258,8.258 0 0 0 0.07,1 H 191.93 A 8.258,8.258 0 0 0 192,327 V 200 Z m 72,-32 h 24 v 16 h -8 a 8,8 0 0 0 0,16 h 8 v 16 h -24 a 8,8 0 0 0 0,16 h 24 v 16 h -8 a 8,8 0 0 0 0,16 h 8 v 16 h -24 a 8,8 0 0 0 0,16 h 24 v 32 H 264 V 136 h 56 v 16 h -24 a 8,8 0 0 0 0,16 z m 96,96 v 63 a 8.258,8.258 0 0 0 0.07,1 h -32.14 a 8.258,8.258 0 0 0 0.07,-1 v -63 z m -32,-16 v -6.11 l 16,-32 16,32 V 248 Z m 128,80 h -80.07 a 8.258,8.258 0 0 0 0.07,-1 v -87 a 8.081,8.081 0 0 0 -0.84,-3.58 l -24,-48 a 8.009,8.009 0 0 0 -14.32,0 l -24,48 A 8.081,8.081 0 0 0 344,240 v 87 a 8.258,8.258 0 0 0 0.07,1 H 336 V 128 a 8,8 0 0 0 -8,-8 h -72 a 8,8 0 0 0 -8,8 v 200 h -8.07 A 8.258,8.258 0 0 0 240,327 V 176 a 8.081,8.081 0 0 0 -0.84,-3.58 l -24,-48 a 8.009,8.009 0 0 0 -14.32,0 l -24,48 A 8.081,8.081 0 0 0 176,176 v 151 a 8.258,8.258 0 0 0 0.07,1 h -19.4 l 3.32,-79.67 c 0.01,-0.18 0,-0.36 0,-0.55 v -0.24 a 8.013,8.013 0 0 0 -0.1,-0.84 v -0.02 l -7.4,-44.41 C 161.78,195.26 168,182.52 168,168 c 0,-20.56 -23.83,-43.33 -26.55,-45.86 a 8.017,8.017 0 0 0 -10.9,0 C 127.83,124.67 104,147.44 104,168 c 0,14.52 6.22,27.26 15.51,34.27 l -7.4,44.41 v 0.02 a 8.013,8.013 0 0 0 -0.1,0.84 v 0.24 c 0,0.19 -0.01,0.37 0,0.55 L 115.33,328 H 24 V 88 A 16.021,16.021 0 0 1 40,72 h 432 a 16.021,16.021 0 0 1 16,16 z" />
      <path
         id="path36"
         d="M 96,352 H 48 a 8,8 0 0 0 0,16 h 48 a 8,8 0 0 0 0,-16 z" />
      <path
         id="path38"
         d="m 128,352 h -8 a 8,8 0 0 0 0,16 h 8 a 8,8 0 0 0 0,-16 z" />
      <path
         id="path40"
         d="m 208,208 a 8,8 0 0 0 -8,8 v 88 a 8,8 0 0 0 16,0 v -88 a 8,8 0 0 0 -8,-8 z" />
      <path
         id="path42"
         d="m 376,272 a 8,8 0 0 0 -8,8 v 24 a 8,8 0 0 0 16,0 v -24 a 8,8 0 0 0 -8,-8 z" />
      <path
         id="path44"
         d="m 48,104 h 64 a 8,8 0 0 0 0,-16 H 48 a 8,8 0 0 0 0,16 z" />
      <path
         id="path46"
         d="m 48,128 h 16 a 8,8 0 0 0 0,-16 H 48 a 8,8 0 0 0 0,16 z" />
      <path
         id="path48"
         d="m 432,312 h 32 a 8,8 0 0 0 0,-16 h -32 a 8,8 0 0 0 0,16 z" />
      <path
         id="path50"
         d="m 456,288 h 8 a 8,8 0 0 0 0,-16 h -8 a 8,8 0 0 0 0,16 z" />
    </g>
  </g>
</svg>
