<?xml version="1.0" encoding="UTF-8" standalone="no"?>
<svg
   xmlns:dc="http://purl.org/dc/elements/1.1/"
   xmlns:cc="http://creativecommons.org/ns#"
   xmlns:rdf="http://www.w3.org/1999/02/22-rdf-syntax-ns#"
   xmlns:svg="http://www.w3.org/2000/svg"
   xmlns="http://www.w3.org/2000/svg"
   xmlns:sodipodi="http://sodipodi.sourceforge.net/DTD/sodipodi-0.dtd"
   xmlns:inkscape="http://www.inkscape.org/namespaces/inkscape"
   inkscape:export-ydpi="110"
   inkscape:export-xdpi="110"
   inkscape:export-filename="/home/kaell/Documentos/aboutme/wireframes/mobile/contato-2.png"
   width="375"
   height="667"
   viewBox="0 0 99.218754 176.47708"
   version="1.1"
   id="svg8"
   inkscape:version="1.0 (1.0+r73+1)"
   sodipodi:docname="contato-2.svg">
  <defs
     id="defs2">
    <rect
       x="7.2314534"
       y="89.543671"
       width="99.758783"
       height="34.948174"
       id="rect1043" />
    <rect
       id="rect890"
       height="38.626713"
       width="144.05202"
       y="82.962128"
       x="14.434642" />
    <rect
       id="rect870"
       height="24.862329"
       width="113.60208"
       y="44.049358"
       x="14.058795" />
    <symbol
       id="Restrooms">
      <title
         id="title2213">Restrooms</title>
      <g
         id="g2225"
         style="stroke:none">
        <!-- Divider -->
        <rect
           id="rect2215"
           height="12.7"
           width="1.3229166"
           y="3.175"
           x="8.8635416"
           style="stroke-width:0.264583" />
        <!-- Woman -->
        <circle
           id="circle2217"
           r="1.0583333"
           cy="3.96875"
           cx="5.1593752"
           style="stroke-width:0.264583" />
        <path
           id="path2219"
           d="m 5.0270833,11.773958 v 3.704167 a 0.52916667,0.52916667 0 0 1 -1.0583333,0 V 11.773958 H 2.6458333 L 4.1010417,6.8791667 H 3.8364583 l -0.79375,2.778125 A 0.48180625,0.48180625 0 0 1 2.1166667,9.3927083 l 0.9260416,-3.175 A 1.508125,1.2170833 0 0 1 4.4979167,5.2916667 h 1.3229166 a 1.508125,1.2170833 0 0 1 1.4552084,0.9260416 l 0.9260416,3.175 A 0.48180625,0.48180625 0 0 1 7.2760417,9.6572917 l -0.79375,-2.778125 H 6.2177083 L 7.6729167,11.773958 H 6.35 v 3.704167 a 0.52916667,0.52916667 0 0 1 -1.0583333,0 v -3.704167 z"
           style="stroke-width:0.264583" />
        <!-- Man -->
        <circle
           id="circle2221"
           r="1.0583333"
           cy="3.96875"
           cx="13.890625"
           style="stroke-width:0.264583" />
        <path
           id="path2223"
           d="m 11.377083,6.6145833 v 3.4395837 a 0.463021,0.463021 0 0 0 0.926042,0 V 7.0114583 h 0.264583 v 8.4005207 a 0.5953125,0.5953125 0 0 0 1.190625,0 v -4.960937 h 0.264584 v 4.960937 a 0.5953125,0.5953125 0 0 0 1.190625,0 V 7.0114583 h 0.264583 v 3.0427087 a 0.463021,0.463021 0 0 0 0.926042,0 V 6.6145833 A 1.3229167,1.3229167 0 0 0 15.08125,5.2916667 H 12.7 a 1.3229167,1.3229167 0 0 0 -1.322917,1.3229166 z"
           style="stroke-width:0.264583" />
      </g>
    </symbol>
    <symbol
       id="Amphitheatre">
      <title
         id="title1462">Amphitheatre</title>
      <circle
         id="circle1464"
         style="stroke:none;stroke-width:0.264583"
         r="0.92604166"
         cy="2.2489583"
         cx="9.5249996" />
      <path
         id="path1466"
         style="stroke:none;stroke-width:0.264583"
         d="M 11.1125,3.571875 A 1.190625,1.190625 0 0 1 12.303125,4.7625 v 2.2489583 a 0.396875,0.396875 0 0 1 -0.79375,0 V 4.8947917 h -0.79375 v 2.778125 a 5.2916667,5.2916667 0 0 1 -2.38125,0 v -2.778125 h -0.79375 v 2.1166666 a 0.396875,0.396875 0 0 1 -0.79375,0 V 4.7625 A 1.190625,1.190625 0 0 1 7.9375,3.571875 Z" />
      <path
         id="path1468"
         style="fill:none;stroke-width:1.45521"
         d="m 13.520208,9.1016667 a 7.14375,7.14375 0 0 1 -7.9904163,0" />
      <path
         id="path1470"
         style="fill:none;stroke-width:1.45521"
         d="m 15.160625,11.509375 a 10.054167,10.054167 0 0 1 -11.27125,0" />
      <path
         id="path1472"
         style="fill:none;stroke-width:1.45521"
         d="m 16.774583,13.917083 a 12.964583,12.964583 0 0 1 -14.4991663,0" />
    </symbol>
    <rect
       x="14.434642"
       y="82.962128"
       width="144.05202"
       height="38.626713"
       id="rect890-1" />
    <rect
       x="14.434642"
       y="82.962128"
       width="144.05202"
       height="38.626713"
       id="rect943" />
    <rect
       x="14.058795"
       y="44.049358"
       width="113.60208"
       height="24.862329"
       id="rect870-7" />
    <rect
       x="14.058795"
       y="44.049358"
       width="113.60208"
       height="24.862329"
       id="rect946" />
    <rect
       id="rect1081"
       height="20.820784"
       width="156.11337"
       y="89.543671"
       x="7.2314534" />
  </defs>
  <sodipodi:namedview
     id="base"
     pagecolor="#ffffff"
     bordercolor="#666666"
     borderopacity="1.0"
     inkscape:pageopacity="1"
     inkscape:pageshadow="2"
     inkscape:zoom="0.74773574"
     inkscape:cx="237.96086"
     inkscape:cy="296.89971"
     inkscape:document-units="px"
     inkscape:current-layer="layer1"
     inkscape:document-rotation="0"
     showgrid="false"
     units="px"
     inkscape:window-width="1366"
     inkscape:window-height="704"
     inkscape:window-x="0"
     inkscape:window-y="0"
     inkscape:window-maximized="1"
     showguides="true"
     inkscape:guide-bbox="true" />
  <metadata
     id="metadata5">
    <rdf:RDF>
      <cc:Work
         rdf:about="">
        <dc:format>image/svg+xml</dc:format>
        <dc:type
           rdf:resource="http://purl.org/dc/dcmitype/StillImage" />
        <dc:title></dc:title>
      </cc:Work>
    </rdf:RDF>
  </metadata>
  <g
     inkscape:label="contato1"
     id="layer4"
     inkscape:groupmode="layer"
     style="display:inline" />
  <g
     inkscape:groupmode="layer"
     id="layer1"
     inkscape:label="contato2"
     style="display:inline">
    <g
       id="g107"
       transform="translate(0,-25.840877)">
      <rect
         ry="1.9403961"
         y="26.333149"
         x="4.923872"
         height="16.319857"
         width="89.371017"
         id="rect1189"
         style="fill:#e6e6e6;fill-opacity:1;stroke:#808080;stroke-width:0.984543;stroke-linecap:butt;stroke-miterlimit:2.3;stroke-dasharray:none;stroke-opacity:1;paint-order:markers stroke fill" />
      <text
         id="text1206"
         y="37.063145"
         x="7.9719982"
         style="font-size:7.06036px;line-height:1.25;font-family:sans-serif;fill:#666666;stroke-width:0.264763"
         xml:space="preserve"><tspan
           style="font-style:normal;font-variant:normal;font-weight:normal;font-stretch:normal;font-family:Purisa;-inkscape-font-specification:Purisa;fill:#666666;stroke-width:0.264763"
           y="37.063145"
           x="7.9719982"
           id="tspan1204"
           sodipodi:role="line">NOME</tspan></text>
    </g>
    <rect
       style="fill:#e6e6e6;fill-opacity:1;stroke:#808080;stroke-width:1.70825;stroke-linecap:butt;stroke-miterlimit:2.3;stroke-dasharray:none;stroke-opacity:1;paint-order:markers stroke fill"
       id="rect1212"
       width="88.639282"
       height="49.537075"
       x="5.2897315"
       y="68.660133"
       ry="2.5653107" />
    <text
       xml:space="preserve"
       style="font-size:5.58191px;line-height:1.25;font-family:sans-serif;fill:#666666;stroke-width:0.209321"
       x="4.1221666"
       y="64.042694"
       id="text1220"><tspan
         sodipodi:role="line"
         id="tspan1218"
         x="4.1221666"
         y="64.042694"
         style="font-style:normal;font-variant:normal;font-weight:normal;font-stretch:normal;font-family:Purisa;-inkscape-font-specification:Purisa;fill:#666666;stroke-width:0.209321">COMO POSSO AJUDAR ?</tspan></text>
    <text
       id="text898"
       y="137.29489"
       x="36.374462"
       style="font-style:normal;font-variant:normal;font-weight:normal;font-stretch:normal;font-size:8.41917px;line-height:1.25;font-family:Purisa;-inkscape-font-specification:Purisa;fill:#1a1a1a;fill-opacity:1;stroke:#000000;stroke-width:0.210479"
       xml:space="preserve"><tspan
         style="font-style:normal;font-variant:normal;font-weight:normal;font-stretch:normal;font-family:Purisa;-inkscape-font-specification:Purisa;fill:#1a1a1a;stroke:#000000;stroke-width:0.210479"
         y="137.29489"
         x="36.374462"
         id="tspan896"
         sodipodi:role="line">Enviar</tspan></text>
    <rect
       ry="7.4591293"
       y="126.45967"
       x="27.231983"
       height="14.918259"
       width="44.75478"
       id="rect894"
       style="opacity:0.503713;fill:none;stroke:#000000;stroke-width:0.563731;stroke-linecap:round;stroke-linejoin:round" />
    <g
       transform="translate(0,1.1466333)"
       id="g115">
      <rect
         style="fill:#e6e6e6;fill-opacity:1;stroke:#808080;stroke-width:0.984543;stroke-linecap:butt;stroke-miterlimit:2.3;stroke-dasharray:none;stroke-opacity:1;paint-order:markers stroke fill"
         id="rect109"
         width="89.371017"
         height="16.319857"
         x="4.923872"
         y="26.333149"
         ry="1.9403961" />
      <text
         xml:space="preserve"
         style="font-size:7.06036px;line-height:1.25;font-family:sans-serif;fill:#666666;stroke-width:0.264763"
         x="7.9719982"
         y="37.063145"
         id="text113"><tspan
           sodipodi:role="line"
           id="tspan111"
           x="7.9719982"
           y="37.063145"
           style="font-style:normal;font-variant:normal;font-weight:normal;font-stretch:normal;font-family:Purisa;-inkscape-font-specification:Purisa;fill:#666666;stroke-width:0.264763">EMAIL</tspan></text>
    </g>
    <rect
       ry="0"
       y="161.78078"
       x="0.79236275"
       height="13.800637"
       width="97.634026"
       id="rect125"
       style="fill:#1a1a1a;fill-opacity:1;stroke:#4d4d4d;stroke-width:0.94629;stroke-linecap:butt;stroke-miterlimit:2.3;stroke-dasharray:none;stroke-opacity:1;paint-order:markers stroke fill" />
    <text
       id="text129"
       y="170.036"
       x="20.634945"
       style="font-size:3.68679px;line-height:1.25;font-family:sans-serif;fill:#b3b3b3;stroke:none;stroke-width:0.138254"
       xml:space="preserve"><tspan
         style="font-style:normal;font-variant:normal;font-weight:normal;font-stretch:normal;font-family:Purisa;-inkscape-font-specification:Purisa;fill:#b3b3b3;stroke:none;stroke-width:0.138254"
         y="170.036"
         x="20.634945"
         id="tspan127"
         sodipodi:role="line">© 2020 All rights reserved. </tspan></text>
  </g>
</svg>
