<svg xmlns="http://www.w3.org/2000/svg" xmlns:svg="http://www.w3.org/2000/svg" id="svg8" width="375" height="667" version="1.1" viewBox="0 0 99.219 176.477"><defs id="defs2"><rect id="rect1043" width="99.759" height="34.948" x="7.231" y="89.544"/><rect id="rect890" width="144.052" height="38.627" x="14.435" y="82.962"/><rect id="rect870" width="113.602" height="24.862" x="14.059" y="44.049"/><symbol id="Restrooms"><title id="title2213">Restrooms</title><g id="g2225" style="stroke:none"><rect id="rect2215" width="1.323" height="12.7" x="8.864" y="3.175" style="stroke-width:.264583"/><circle id="circle2217" cx="5.159" cy="3.969" r="1.058" style="stroke-width:.264583"/><path id="path2219" d="m 5.0270833,11.773958 v 3.704167 a 0.52916667,0.52916667 0 0 1 -1.0583333,0 V 11.773958 H 2.6458333 L 4.1010417,6.8791667 H 3.8364583 l -0.79375,2.778125 A 0.48180625,0.48180625 0 0 1 2.1166667,9.3927083 l 0.9260416,-3.175 A 1.508125,1.2170833 0 0 1 4.4979167,5.2916667 h 1.3229166 a 1.508125,1.2170833 0 0 1 1.4552084,0.9260416 l 0.9260416,3.175 A 0.48180625,0.48180625 0 0 1 7.2760417,9.6572917 l -0.79375,-2.778125 H 6.2177083 L 7.6729167,11.773958 H 6.35 v 3.704167 a 0.52916667,0.52916667 0 0 1 -1.0583333,0 v -3.704167 z" style="stroke-width:.264583"/><circle id="circle2221" cx="13.891" cy="3.969" r="1.058" style="stroke-width:.264583"/><path id="path2223" d="m 11.377083,6.6145833 v 3.4395837 a 0.463021,0.463021 0 0 0 0.926042,0 V 7.0114583 h 0.264583 v 8.4005207 a 0.5953125,0.5953125 0 0 0 1.190625,0 v -4.960937 h 0.264584 v 4.960937 a 0.5953125,0.5953125 0 0 0 1.190625,0 V 7.0114583 h 0.264583 v 3.0427087 a 0.463021,0.463021 0 0 0 0.926042,0 V 6.6145833 A 1.3229167,1.3229167 0 0 0 15.08125,5.2916667 H 12.7 a 1.3229167,1.3229167 0 0 0 -1.322917,1.3229166 z" style="stroke-width:.264583"/></g></symbol><symbol id="Amphitheatre"><title id="title1462">Amphitheatre</title><circle id="circle1464" style="stroke:none;stroke-width:.264583" cx="9.525" cy="2.249" r=".926"/><path id="path1466" style="stroke:none;stroke-width:.264583" d="M 11.1125,3.571875 A 1.190625,1.190625 0 0 1 12.303125,4.7625 v 2.2489583 a 0.396875,0.396875 0 0 1 -0.79375,0 V 4.8947917 h -0.79375 v 2.778125 a 5.2916667,5.2916667 0 0 1 -2.38125,0 v -2.778125 h -0.79375 v 2.1166666 a 0.396875,0.396875 0 0 1 -0.79375,0 V 4.7625 A 1.190625,1.190625 0 0 1 7.9375,3.571875 Z"/><path id="path1468" style="fill:none;stroke-width:1.45521" d="m 13.520208,9.1016667 a 7.14375,7.14375 0 0 1 -7.9904163,0"/><path id="path1470" style="fill:none;stroke-width:1.45521" d="m 15.160625,11.509375 a 10.054167,10.054167 0 0 1 -11.27125,0"/><path id="path1472" style="fill:none;stroke-width:1.45521" d="m 16.774583,13.917083 a 12.964583,12.964583 0 0 1 -14.4991663,0"/></symbol><rect id="rect890-1" width="144.052" height="38.627" x="14.435" y="82.962"/><rect id="rect943" width="144.052" height="38.627" x="14.435" y="82.962"/><rect id="rect870-7" width="113.602" height="24.862" x="14.059" y="44.049"/><rect id="rect946" width="113.602" height="24.862" x="14.059" y="44.049"/><rect id="rect1081" width="156.113" height="20.821" x="7.231" y="89.544"/></defs><metadata id="metadata5"/><g id="layer1" style="display:inline"><g id="g107" transform="translate(0,-25.840877)"><rect id="rect1189" width="89.371" height="16.32" x="4.924" y="26.333" ry="1.94" style="fill:#e6e6e6;fill-opacity:1;stroke:gray;stroke-width:.984543;stroke-linecap:butt;stroke-miterlimit:2.3;stroke-dasharray:none;stroke-opacity:1;paint-order:markers stroke fill"/><text id="text1206" x="7.972" y="37.063" style="font-size:7.06036px;line-height:1.25;font-family:sans-serif;fill:#666;stroke-width:.264763" xml:space="preserve"><tspan style="font-style:normal;font-variant:normal;font-weight:400;font-stretch:normal;font-family:Purisa;-inkscape-font-specification:Purisa;fill:#666;stroke-width:.264763" id="tspan1204" x="7.972" y="37.063">NOME</tspan></text></g><rect style="fill:#e6e6e6;fill-opacity:1;stroke:gray;stroke-width:1.70825;stroke-linecap:butt;stroke-miterlimit:2.3;stroke-dasharray:none;stroke-opacity:1;paint-order:markers stroke fill" id="rect1212" width="88.639" height="49.537" x="5.29" y="68.66" ry="2.565"/><text xml:space="preserve" style="font-size:5.58191px;line-height:1.25;font-family:sans-serif;fill:#666;stroke-width:.209321" id="text1220" x="4.122" y="64.043"><tspan id="tspan1218" x="4.122" y="64.043" style="font-style:normal;font-variant:normal;font-weight:400;font-stretch:normal;font-family:Purisa;-inkscape-font-specification:Purisa;fill:#666;stroke-width:.209321">COMO POSSO AJUDAR ?</tspan></text><text id="text898" x="36.374" y="137.295" style="font-style:normal;font-variant:normal;font-weight:400;font-stretch:normal;font-size:8.41917px;line-height:1.25;font-family:Purisa;-inkscape-font-specification:Purisa;fill:#1a1a1a;fill-opacity:1;stroke:#000;stroke-width:.210479" xml:space="preserve"><tspan style="font-style:normal;font-variant:normal;font-weight:400;font-stretch:normal;font-family:Purisa;-inkscape-font-specification:Purisa;fill:#1a1a1a;stroke:#000;stroke-width:.210479" id="tspan896" x="36.374" y="137.295">Enviar</tspan></text><rect id="rect894" width="44.755" height="14.918" x="27.232" y="126.46" ry="7.459" style="opacity:.503713;fill:none;stroke:#000;stroke-width:.563731;stroke-linecap:round;stroke-linejoin:round"/><g id="g115" transform="translate(0,1.1466333)"><rect style="fill:#e6e6e6;fill-opacity:1;stroke:gray;stroke-width:.984543;stroke-linecap:butt;stroke-miterlimit:2.3;stroke-dasharray:none;stroke-opacity:1;paint-order:markers stroke fill" id="rect109" width="89.371" height="16.32" x="4.924" y="26.333" ry="1.94"/><text xml:space="preserve" style="font-size:7.06036px;line-height:1.25;font-family:sans-serif;fill:#666;stroke-width:.264763" id="text113" x="7.972" y="37.063"><tspan id="tspan111" x="7.972" y="37.063" style="font-style:normal;font-variant:normal;font-weight:400;font-stretch:normal;font-family:Purisa;-inkscape-font-specification:Purisa;fill:#666;stroke-width:.264763">EMAIL</tspan></text></g><rect id="rect125" width="97.634" height="13.801" x=".792" y="161.781" ry="0" style="fill:#1a1a1a;fill-opacity:1;stroke:#4d4d4d;stroke-width:.94629;stroke-linecap:butt;stroke-miterlimit:2.3;stroke-dasharray:none;stroke-opacity:1;paint-order:markers stroke fill"/><text id="text129" x="20.635" y="170.036" style="font-size:3.68679px;line-height:1.25;font-family:sans-serif;fill:#b3b3b3;stroke:none;stroke-width:.138254" xml:space="preserve"><tspan style="font-style:normal;font-variant:normal;font-weight:400;font-stretch:normal;font-family:Purisa;-inkscape-font-specification:Purisa;fill:#b3b3b3;stroke:none;stroke-width:.138254" id="tspan127" x="20.635" y="170.036">© 2020 All rights reserved.</tspan></text></g></svg>