<svg xmlns="http://www.w3.org/2000/svg" xmlns:svg="http://www.w3.org/2000/svg" xmlns:xlink="http://www.w3.org/1999/xlink" id="svg8" width="375" height="667" version="1.1" viewBox="0 0 99.219 176.477"><defs id="defs2"><rect id="rect215" width="24.825" height="44.586" x="38.607" y="124.682"/><rect id="rect205" width="124.552" height="29.305" x="22.036" y="94.527"/><rect id="rect1055" width="278.761" height="103.879" x="17.123" y="86.826"/><rect id="rect890" width="144.052" height="38.627" x="14.435" y="82.962"/><rect id="rect870" width="113.602" height="24.862" x="14.059" y="44.049"/><symbol id="Restrooms"><title id="title2213">Restrooms</title><g style="stroke:none" id="g2225"><rect style="stroke-width:.264583" id="rect2215" width="1.323" height="12.7" x="8.864" y="3.175"/><circle style="stroke-width:.264583" id="circle2217" cx="5.159" cy="3.969" r="1.058"/><path style="stroke-width:.264583" id="path2219" d="m 5.0270833,11.773958 v 3.704167 a 0.52916667,0.52916667 0 0 1 -1.0583333,0 V 11.773958 H 2.6458333 L 4.1010417,6.8791667 H 3.8364583 l -0.79375,2.778125 A 0.48180625,0.48180625 0 0 1 2.1166667,9.3927083 l 0.9260416,-3.175 A 1.508125,1.2170833 0 0 1 4.4979167,5.2916667 h 1.3229166 a 1.508125,1.2170833 0 0 1 1.4552084,0.9260416 l 0.9260416,3.175 A 0.48180625,0.48180625 0 0 1 7.2760417,9.6572917 l -0.79375,-2.778125 H 6.2177083 L 7.6729167,11.773958 H 6.35 v 3.704167 a 0.52916667,0.52916667 0 0 1 -1.0583333,0 v -3.704167 z"/><circle style="stroke-width:.264583" id="circle2221" cx="13.891" cy="3.969" r="1.058"/><path style="stroke-width:.264583" id="path2223" d="m 11.377083,6.6145833 v 3.4395837 a 0.463021,0.463021 0 0 0 0.926042,0 V 7.0114583 h 0.264583 v 8.4005207 a 0.5953125,0.5953125 0 0 0 1.190625,0 v -4.960937 h 0.264584 v 4.960937 a 0.5953125,0.5953125 0 0 0 1.190625,0 V 7.0114583 h 0.264583 v 3.0427087 a 0.463021,0.463021 0 0 0 0.926042,0 V 6.6145833 A 1.3229167,1.3229167 0 0 0 15.08125,5.2916667 H 12.7 a 1.3229167,1.3229167 0 0 0 -1.322917,1.3229166 z"/></g></symbol><symbol id="Amphitheatre"><title id="title1462">Amphitheatre</title><circle style="stroke:none;stroke-width:.264583" id="circle1464" cx="9.525" cy="2.249" r=".926"/><path style="stroke:none;stroke-width:.264583" id="path1466" d="M 11.1125,3.571875 A 1.190625,1.190625 0 0 1 12.303125,4.7625 v 2.2489583 a 0.396875,0.396875 0 0 1 -0.79375,0 V 4.8947917 h -0.79375 v 2.778125 a 5.2916667,5.2916667 0 0 1 -2.38125,0 v -2.778125 h -0.79375 v 2.1166666 a 0.396875,0.396875 0 0 1 -0.79375,0 V 4.7625 A 1.190625,1.190625 0 0 1 7.9375,3.571875 Z"/><path style="fill:none;stroke-width:1.45521" id="path1468" d="m 13.520208,9.1016667 a 7.14375,7.14375 0 0 1 -7.9904163,0"/><path style="fill:none;stroke-width:1.45521" id="path1470" d="m 15.160625,11.509375 a 10.054167,10.054167 0 0 1 -11.27125,0"/><path style="fill:none;stroke-width:1.45521" id="path1472" d="m 16.774583,13.917083 a 12.964583,12.964583 0 0 1 -14.4991663,0"/></symbol><rect id="rect890-1" width="144.052" height="38.627" x="14.435" y="82.962"/><rect id="rect943" width="144.052" height="38.627" x="14.435" y="82.962"/><rect id="rect870-7" width="113.602" height="24.862" x="14.059" y="44.049"/><rect id="rect946" width="113.602" height="24.862" x="14.059" y="44.049"/><linearGradient id="linearGradient9802" x1="167.203" x2="169.529" y1="62.757" y2="189.149" gradientTransform="translate(0.07898975)" gradientUnits="userSpaceOnUse" xlink:href="#linearGradient9800"/><linearGradient id="linearGradient9800"><stop id="stop9796" offset="0" style="stop-color:#333;stop-opacity:1"/><stop id="stop9798" offset="1" style="stop-color:#333;stop-opacity:0"/></linearGradient><rect id="rect205-3" width="124.552" height="29.305" x="22.036" y="94.527"/><rect id="rect237" width="124.552" height="29.305" x="22.036" y="94.527"/><rect id="rect215-6" width="24.825" height="44.586" x="38.607" y="124.682"/><rect id="rect240" width="24.825" height="44.586" x="38.607" y="124.682"/></defs><metadata id="metadata5"/><g style="display:inline" id="layer1"><rect id="rect99" width="119.509" height="194.163" x="-8.735" y="-5.895" ry="0" style="fill:#fff;stroke:#ccc;stroke-width:.46877;stroke-linecap:round;stroke-linejoin:round;paint-order:markers stroke fill"/></g><g id="layer2"><g id="g160" transform="translate(-0.07898975)"><rect style="display:inline;opacity:.354203;mix-blend-mode:normal;fill:url(#linearGradient9802);fill-opacity:1;stroke:#ccc;stroke-width:.0909853;stroke-linecap:square;stroke-linejoin:miter;stroke-miterlimit:4;stroke-dasharray:none;stroke-dashoffset:0" id="rect9612" width="99.054" height="58.854" x=".161" y="15.047" ry="0"/><rect id="rect189" width="77.622" height="127.14" x="10.798" y="55.738" ry="3.974" style="fill:#fff;stroke:#ccc;stroke-width:.421735;stroke-linecap:round;stroke-linejoin:round;paint-order:markers stroke fill"/><text style="font-style:normal;font-weight:400;font-size:10.5833px;line-height:1.25;font-family:sans-serif;white-space:pre;inline-size:224.1;display:inline;opacity:1;mix-blend-mode:normal;fill:#000;fill-opacity:1;stroke:none;stroke-width:.264583" id="text9663" x="227.381" y="70.261" transform="matrix(0.30828747,0,0,0.30828747,-53.721884,16.243716)" xml:space="preserve"><tspan x="227.381" y="70.261"><tspan style="text-align:center;text-anchor:middle;stroke-width:.264583">Lorem Ipsum is simply dummy text of the </tspan></tspan><tspan x="227.381" y="83.49"><tspan style="text-align:center;text-anchor:middle;stroke-width:.264583">printing and typesetting industrLorem </tspan></tspan><tspan x="227.381" y="96.719"><tspan style="text-align:center;text-anchor:middle;stroke-width:.264583">Ipsum is simply dummy text of the </tspan></tspan><tspan x="227.381" y="109.948"><tspan style="text-align:center;text-anchor:middle;stroke-width:.264583">printing and typesetting industry.y.</tspan></tspan></text><text style="font-size:5.67404px;line-height:1.25;font-family:sans-serif;display:inline;stroke-width:.0886575" id="text9759" x="31.634" y="27.453" xml:space="preserve"><tspan id="tspan9757" x="31.634" y="27.453" style="font-size:5.67404px;stroke-width:.0886575">Lorem Ipsum!</tspan></text><g id="g191" transform="matrix(1.0361096,0,0,1.0361096,177.88713,12.178256)"><rect id="rect9805" width="18.796" height="18.796" x="-133.34" y="51.31" style="fill:none;stroke:#4d4d4d;stroke-width:.46645;stroke-linecap:square;stroke-linejoin:miter;stroke-miterlimit:2.3;stroke-dasharray:none;stroke-dashoffset:0"/><text id="text9809" x="-133.186" y="69.306" xml:space="preserve" style="font-size:31.447px;line-height:1.25;font-family:sans-serif;fill:none;stroke:#999;stroke-width:1.17926"><tspan style="fill:none;stroke:#999;stroke-width:1.17926" id="tspan9807" x="-133.186" y="69.306">x</tspan></text></g><g id="g174" transform="matrix(1.8504781,0,0,1.8504781,-34.135252,-12.938881)"><g style="display:inline;opacity:1" id="g9765" transform="matrix(0.26554912,0,0,0.26554912,0.38270635,-0.37078271)"><rect id="rect9604" width="99.688" height="28.338" x="118.38" y="27.727" ry="0" style="opacity:.697037;fill:#ff0;stroke:none;stroke-width:.435683;stroke-linecap:square;stroke-linejoin:miter;stroke-miterlimit:2.3;stroke-dasharray:none;stroke-dashoffset:0"/><rect style="opacity:1;fill:none;stroke:#1a1a1a;stroke-width:.773324;stroke-linecap:square;stroke-linejoin:miter;stroke-miterlimit:2.3;stroke-dasharray:none;stroke-dashoffset:0" id="rect9553" width="99.688" height="28.338" x="120.599" y="29.391" ry="0"/><text style="font-style:normal;font-weight:400;font-size:8.66098px;line-height:1.25;font-family:sans-serif;opacity:1;fill:#000;fill-opacity:1;stroke:#4d4d4d;stroke-width:.216525" id="text9592" x="121.949" y="46.713" xml:space="preserve"><tspan id="tspan9590" x="121.949" y="46.713" style="fill:#000;stroke:#4d4d4d;stroke-width:.216525">IMG SECTION CURSOS</tspan></text></g></g><text style="font-size:8.55723px;line-height:1.25;font-family:sans-serif;stroke-width:.320896" id="text197" x="40.54" y="95.88" xml:space="preserve"><tspan id="tspan195" x="40.54" y="95.88" style="stroke-width:.320896">Title</tspan></text><text id="text203" x="21.78" y="0" transform="matrix(0.6119605,0,0,0.6119605,-2.3505864,42.578667)" xml:space="preserve" style="font-size:8.06649px;line-height:1.25;font-family:sans-serif;white-space:pre;shape-inside:url(#rect205-3)"><tspan x="35.945" y="101.664"><tspan style="font-size:8.06649px;text-align:center;text-anchor:middle">mbled it to make a type </tspan></tspan><tspan x="40.006" y="111.747"><tspan style="font-size:8.06649px;text-align:center;text-anchor:middle">specimen book. It has</tspan></tspan></text><text style="font-size:5.72735px;line-height:1.25;font-family:sans-serif;fill:#666;stroke-width:.214776" id="text211" x="35.732" y="120.194" xml:space="preserve"><tspan id="tspan209" x="35.732" y="120.194" style="fill:#666;stroke-width:.214776">Conteúdo</tspan></text><text id="text213" x="7.385" y="0" transform="matrix(0.93930612,0,0,0.93930612,1.605628,4.9409301)" xml:space="preserve" style="font-size:7.05556px;line-height:1.25;font-family:sans-serif;white-space:pre;shape-inside:url(#rect215-6);fill:#1a1a1a"><tspan x="42.989" y="130.924"><tspan style="text-align:center;text-anchor:middle;fill:#1a1a1a">Item </tspan></tspan><tspan x="42.989" y="139.744"><tspan style="text-align:center;text-anchor:middle;fill:#1a1a1a">Item </tspan></tspan><tspan x="42.989" y="148.563"><tspan style="text-align:center;text-anchor:middle;fill:#1a1a1a">Item </tspan></tspan><tspan x="42.989" y="157.383"><tspan style="text-align:center;text-anchor:middle;fill:#1a1a1a">Item </tspan></tspan><tspan x="42.989" y="166.202"><tspan style="text-align:center;text-anchor:middle;fill:#1a1a1a">Item</tspan></tspan></text></g></g></svg>