<svg xmlns="http://www.w3.org/2000/svg" xmlns:svg="http://www.w3.org/2000/svg" id="svg8" width="375" height="667" version="1.1" viewBox="0 0 99.219 176.477"><defs id="defs2"><rect id="rect976" width="86.123" height="16.285" x="64.679" y="75.462"/><rect id="rect890" width="144.052" height="38.627" x="14.435" y="82.962"/><rect id="rect870" width="113.602" height="24.862" x="14.059" y="44.049"/><symbol id="Restrooms"><title id="title2213">Restrooms</title><g style="stroke:none" id="g2225"><rect style="stroke-width:.264583" id="rect2215" width="1.323" height="12.7" x="8.864" y="3.175"/><circle style="stroke-width:.264583" id="circle2217" cx="5.159" cy="3.969" r="1.058"/><path style="stroke-width:.264583" id="path2219" d="m 5.0270833,11.773958 v 3.704167 a 0.52916667,0.52916667 0 0 1 -1.0583333,0 V 11.773958 H 2.6458333 L 4.1010417,6.8791667 H 3.8364583 l -0.79375,2.778125 A 0.48180625,0.48180625 0 0 1 2.1166667,9.3927083 l 0.9260416,-3.175 A 1.508125,1.2170833 0 0 1 4.4979167,5.2916667 h 1.3229166 a 1.508125,1.2170833 0 0 1 1.4552084,0.9260416 l 0.9260416,3.175 A 0.48180625,0.48180625 0 0 1 7.2760417,9.6572917 l -0.79375,-2.778125 H 6.2177083 L 7.6729167,11.773958 H 6.35 v 3.704167 a 0.52916667,0.52916667 0 0 1 -1.0583333,0 v -3.704167 z"/><circle style="stroke-width:.264583" id="circle2221" cx="13.891" cy="3.969" r="1.058"/><path style="stroke-width:.264583" id="path2223" d="m 11.377083,6.6145833 v 3.4395837 a 0.463021,0.463021 0 0 0 0.926042,0 V 7.0114583 h 0.264583 v 8.4005207 a 0.5953125,0.5953125 0 0 0 1.190625,0 v -4.960937 h 0.264584 v 4.960937 a 0.5953125,0.5953125 0 0 0 1.190625,0 V 7.0114583 h 0.264583 v 3.0427087 a 0.463021,0.463021 0 0 0 0.926042,0 V 6.6145833 A 1.3229167,1.3229167 0 0 0 15.08125,5.2916667 H 12.7 a 1.3229167,1.3229167 0 0 0 -1.322917,1.3229166 z"/></g></symbol><symbol id="Amphitheatre"><title id="title1462">Amphitheatre</title><circle style="stroke:none;stroke-width:.264583" id="circle1464" cx="9.525" cy="2.249" r=".926"/><path style="stroke:none;stroke-width:.264583" id="path1466" d="M 11.1125,3.571875 A 1.190625,1.190625 0 0 1 12.303125,4.7625 v 2.2489583 a 0.396875,0.396875 0 0 1 -0.79375,0 V 4.8947917 h -0.79375 v 2.778125 a 5.2916667,5.2916667 0 0 1 -2.38125,0 v -2.778125 h -0.79375 v 2.1166666 a 0.396875,0.396875 0 0 1 -0.79375,0 V 4.7625 A 1.190625,1.190625 0 0 1 7.9375,3.571875 Z"/><path style="fill:none;stroke-width:1.45521" id="path1468" d="m 13.520208,9.1016667 a 7.14375,7.14375 0 0 1 -7.9904163,0"/><path style="fill:none;stroke-width:1.45521" id="path1470" d="m 15.160625,11.509375 a 10.054167,10.054167 0 0 1 -11.27125,0"/><path style="fill:none;stroke-width:1.45521" id="path1472" d="m 16.774583,13.917083 a 12.964583,12.964583 0 0 1 -14.4991663,0"/></symbol><rect id="rect890-1" width="144.052" height="38.627" x="14.435" y="82.962"/><rect id="rect943" width="144.052" height="38.627" x="14.435" y="82.962"/><rect id="rect870-7" width="113.602" height="24.862" x="14.059" y="44.049"/><rect id="rect946" width="113.602" height="24.862" x="14.059" y="44.049"/></defs><metadata id="metadata5"/><g id="layer2" style="display:inline"><path id="rect28" d="M 98.867063,176.11006 H 0.22688053 V 10.968222 L 98.867063,55.762562 Z" style="display:inline;fill:#e6e6e6;fill-opacity:1;stroke:#000;stroke-width:.119898;stroke-linecap:round;stroke-linejoin:round;stroke-miterlimit:4;stroke-dasharray:none;stroke-opacity:1"/><rect id="rect960" width="99.129" height="18.104" x=".045" y="158.188" style="fill:#333;stroke:#1a1a1a;stroke-width:.370469;stroke-miterlimit:4;stroke-dasharray:none;paint-order:markers stroke fill"/><text id="text964" x="20.898" y="168.582" xml:space="preserve" style="font-size:3.65329px;line-height:1.25;font-family:sans-serif;letter-spacing:0;fill:#e6e6e6;stroke:#e6e6e6;stroke-width:.136998"><tspan style="font-style:normal;font-variant:normal;font-weight:400;font-stretch:normal;font-family:Purisa;-inkscape-font-specification:Purisa;fill:#e6e6e6;stroke:#e6e6e6;stroke-width:.136998" id="tspan962" x="20.898" y="168.582">© 2020 All rights reserved.</tspan></text><g id="g363" transform="translate(8.1605849)"><g id="g1001" transform="matrix(0.73379692,0,0,0.73379692,-162.42524,57.212193)"><rect id="rect992" width="12.375" height="11.138" x="229.369" y="74.499" style="opacity:1;fill:none;stroke:#000;stroke-width:.0887982;stroke-miterlimit:4;stroke-dasharray:none;paint-order:markers stroke fill"/><text id="text996" x="229.63" y="85.582" xml:space="preserve" style="font-size:20.1638px;line-height:1.25;font-family:sans-serif;fill:none;stroke:#000;stroke-width:.0943122;stroke-miterlimit:4;stroke-dasharray:none"><tspan style="fill:none;stroke:#000;stroke-width:.0943122;stroke-miterlimit:4;stroke-dasharray:none" id="tspan994" x="229.63" y="85.582">x</tspan></text></g><text style="font-size:5.17734px;line-height:1.25;font-family:sans-serif;stroke-width:.19415" id="text1005" x="19.372" y="117.896" xml:space="preserve"><tspan id="tspan1003" x="19.372" y="117.896" style="stroke-width:.19415">github</tspan></text><g id="g213" transform="matrix(1.3167742,0,0,1.3167742,0.27809941,-39.517)"><g id="g1013" transform="matrix(0.5572686,0,0,0.5572686,-123.56206,100.13703)"><rect id="rect1007" width="12.375" height="11.138" x="229.369" y="74.499" style="opacity:1;fill:none;stroke:#000;stroke-width:.0887982;stroke-miterlimit:4;stroke-dasharray:none;paint-order:markers stroke fill"/><text id="text1011" x="229.63" y="85.582" xml:space="preserve" style="font-size:20.1638px;line-height:1.25;font-family:sans-serif;fill:none;stroke:#000;stroke-width:.0943122;stroke-miterlimit:4;stroke-dasharray:none"><tspan style="fill:none;stroke:#000;stroke-width:.0943122;stroke-miterlimit:4;stroke-dasharray:none" id="tspan1009" x="229.63" y="85.582">x</tspan></text></g><text style="font-size:3.93184px;line-height:1.25;font-family:sans-serif;stroke-width:.147444" id="text1017" x="14.501" y="146.222" xml:space="preserve"><tspan id="tspan1015" x="14.501" y="146.222" style="stroke-width:.147444">instagram</tspan></text><g id="g1025" transform="matrix(0.5572686,0,0,0.5572686,-123.56206,86.798118)"><rect style="opacity:1;fill:none;stroke:#000;stroke-width:.0887982;stroke-miterlimit:4;stroke-dasharray:none;paint-order:markers stroke fill" id="rect1019" width="12.375" height="11.138" x="229.369" y="74.499"/><text style="font-size:20.1638px;line-height:1.25;font-family:sans-serif;fill:none;stroke:#000;stroke-width:.0943122;stroke-miterlimit:4;stroke-dasharray:none" id="text1023" x="229.63" y="85.582" xml:space="preserve"><tspan id="tspan1021" x="229.63" y="85.582" style="fill:none;stroke:#000;stroke-width:.0943122;stroke-miterlimit:4;stroke-dasharray:none">x</tspan></text></g><text id="text1029" x="14.501" y="132.883" xml:space="preserve" style="font-size:3.93184px;line-height:1.25;font-family:sans-serif;stroke-width:.147444"><tspan style="stroke-width:.147444" id="tspan1027" x="14.501" y="132.883">twitter</tspan></text></g><g id="g1037" transform="matrix(0.73379692,0,0,0.73379692,-162.42524,39.647863)"><rect style="opacity:1;fill:none;stroke:#000;stroke-width:.0887982;stroke-miterlimit:4;stroke-dasharray:none;paint-order:markers stroke fill" id="rect1031" width="12.375" height="11.138" x="229.369" y="74.499"/><text style="font-size:20.1638px;line-height:1.25;font-family:sans-serif;fill:none;stroke:#000;stroke-width:.0943122;stroke-miterlimit:4;stroke-dasharray:none" id="text1035" x="229.63" y="85.582" xml:space="preserve"><tspan id="tspan1033" x="229.63" y="85.582" style="fill:none;stroke:#000;stroke-width:.0943122;stroke-miterlimit:4;stroke-dasharray:none">x</tspan></text></g><text id="text1041" x="19.372" y="100.332" xml:space="preserve" style="font-size:5.17734px;line-height:1.25;font-family:sans-serif;stroke-width:.19415"><tspan style="stroke-width:.19415" id="tspan1039" x="19.372" y="100.332">email</tspan></text></g><text id="text968" x="49.629" y="56.42" xml:space="preserve" style="font-size:4.97621px;line-height:1.25;font-family:sans-serif;fill:#1a1a1a;stroke:#000;stroke-width:.186608"><tspan id="tspan972" x="49.629" y="56.42" style="font-style:normal;font-variant:normal;font-weight:400;font-stretch:normal;font-family:Purisa;-inkscape-font-specification:Purisa;text-align:center;text-anchor:middle;fill:#1a1a1a;stroke:#000;stroke-width:.186608">Vamos Trabalhar Juntos</tspan></text><text style="font-size:4.00984px;line-height:1.25;font-family:sans-serif;fill:#999;stroke:#999;stroke-width:.150369" id="text986" x="49.858" y="65.144" xml:space="preserve"><tspan style="font-style:normal;font-variant:normal;font-weight:400;font-stretch:normal;font-family:Purisa;-inkscape-font-specification:Purisa;text-align:center;text-anchor:middle;fill:#999;stroke:#999;stroke-width:.150369" id="tspan982" x="49.858" y="65.144">Tem algum projeto em mente ?</tspan></text><g id="g149" transform="matrix(0.74505784,0,0,0.74505784,13.12457,6.406528)"><rect style="opacity:1;fill:none;stroke:#000;stroke-width:.535356;stroke-miterlimit:4;stroke-dasharray:none;paint-order:markers stroke fill" id="rect990" width="48.973" height="16.312" x="26.994" y="89.621" ry="8.156"/><text id="text1079" x="51.475" y="100.47" xml:space="preserve" style="font-size:7.39923px;line-height:1.25;font-family:sans-serif;fill:#000;stroke:#000;stroke-width:.27747"><tspan id="tspan1075" x="51.475" y="100.47" style="font-style:normal;font-variant:normal;font-weight:400;font-stretch:normal;font-family:Purisa;-inkscape-font-specification:Purisa;text-align:center;text-anchor:middle;fill:#000;stroke:#000;stroke-width:.27747">Contato</tspan></text></g></g></svg>