<svg xmlns="http://www.w3.org/2000/svg" xmlns:svg="http://www.w3.org/2000/svg" id="svg8" width="375" height="667" version="1.1" viewBox="0 0 99.219 176.477"><defs id="defs2"><rect id="rect889" width="88.116" height="35.978" x="41.35" y="118.307"/><rect id="rect890" width="144.052" height="38.627" x="14.435" y="82.962"/><rect id="rect870" width="113.602" height="24.862" x="14.059" y="44.049"/><symbol id="Restrooms"><title id="title2213">Restrooms</title><g id="g2225" style="stroke:none"><rect id="rect2215" width="1.323" height="12.7" x="8.864" y="3.175" style="stroke-width:.264583"/><circle id="circle2217" cx="5.159" cy="3.969" r="1.058" style="stroke-width:.264583"/><path id="path2219" d="m 5.0270833,11.773958 v 3.704167 a 0.52916667,0.52916667 0 0 1 -1.0583333,0 V 11.773958 H 2.6458333 L 4.1010417,6.8791667 H 3.8364583 l -0.79375,2.778125 A 0.48180625,0.48180625 0 0 1 2.1166667,9.3927083 l 0.9260416,-3.175 A 1.508125,1.2170833 0 0 1 4.4979167,5.2916667 h 1.3229166 a 1.508125,1.2170833 0 0 1 1.4552084,0.9260416 l 0.9260416,3.175 A 0.48180625,0.48180625 0 0 1 7.2760417,9.6572917 l -0.79375,-2.778125 H 6.2177083 L 7.6729167,11.773958 H 6.35 v 3.704167 a 0.52916667,0.52916667 0 0 1 -1.0583333,0 v -3.704167 z" style="stroke-width:.264583"/><circle id="circle2221" cx="13.891" cy="3.969" r="1.058" style="stroke-width:.264583"/><path id="path2223" d="m 11.377083,6.6145833 v 3.4395837 a 0.463021,0.463021 0 0 0 0.926042,0 V 7.0114583 h 0.264583 v 8.4005207 a 0.5953125,0.5953125 0 0 0 1.190625,0 v -4.960937 h 0.264584 v 4.960937 a 0.5953125,0.5953125 0 0 0 1.190625,0 V 7.0114583 h 0.264583 v 3.0427087 a 0.463021,0.463021 0 0 0 0.926042,0 V 6.6145833 A 1.3229167,1.3229167 0 0 0 15.08125,5.2916667 H 12.7 a 1.3229167,1.3229167 0 0 0 -1.322917,1.3229166 z" style="stroke-width:.264583"/></g></symbol><symbol id="Amphitheatre"><title id="title1462">Amphitheatre</title><circle id="circle1464" cx="9.525" cy="2.249" r=".926" style="stroke:none;stroke-width:.264583"/><path id="path1466" d="M 11.1125,3.571875 A 1.190625,1.190625 0 0 1 12.303125,4.7625 v 2.2489583 a 0.396875,0.396875 0 0 1 -0.79375,0 V 4.8947917 h -0.79375 v 2.778125 a 5.2916667,5.2916667 0 0 1 -2.38125,0 v -2.778125 h -0.79375 v 2.1166666 a 0.396875,0.396875 0 0 1 -0.79375,0 V 4.7625 A 1.190625,1.190625 0 0 1 7.9375,3.571875 Z" style="stroke:none;stroke-width:.264583"/><path id="path1468" d="m 13.520208,9.1016667 a 7.14375,7.14375 0 0 1 -7.9904163,0" style="fill:none;stroke-width:1.45521"/><path id="path1470" d="m 15.160625,11.509375 a 10.054167,10.054167 0 0 1 -11.27125,0" style="fill:none;stroke-width:1.45521"/><path id="path1472" d="m 16.774583,13.917083 a 12.964583,12.964583 0 0 1 -14.4991663,0" style="fill:none;stroke-width:1.45521"/></symbol><rect id="rect890-1" width="144.052" height="38.627" x="14.435" y="82.962"/><rect id="rect943" width="144.052" height="38.627" x="14.435" y="82.962"/><rect id="rect870-7" width="113.602" height="24.862" x="14.059" y="44.049"/><rect id="rect946" width="113.602" height="24.862" x="14.059" y="44.049"/><symbol id="LogicalAnd"><title id="title1372">Logical And</title><desc id="desc1374">Summing junction. Shows when multiple branches converge.</desc><circle id="circle1376" cx="75" cy="75" r="20" style="stroke-width:2"/><path id="path1378" d="M 61,61 89,89" style="stroke-width:2"/><path id="path1380" d="M 61,89 89,61" style="stroke-width:2"/></symbol><symbol id="Core"><title id="title1310">Core</title><desc id="desc1312">Core memory. (ISO)</desc><rect id="rect1314" width="80" height="80" x="35" y="35" style="stroke-width:2"/><path id="path1316" d="m 35,50 h 80" style="stroke-width:2"/><path id="path1318" d="m 50,35 v 80" style="stroke-width:2"/></symbol><rect id="rect951" width="88.116" height="35.978" x="41.35" y="118.307"/><rect id="rect260" width="88.116" height="35.978" x="41.35" y="118.307"/></defs><metadata id="metadata5"/><g id="layer6"><g id="g214"><g id="g881" transform="matrix(0.66497804,0,0,0.84923295,-1.1949522,-22.578922)"><rect style="fill:#4d4d4d;stroke:#4d4d4d;stroke-width:.775758;stroke-linecap:square;stroke-linejoin:miter;stroke-miterlimit:2.3;stroke-dasharray:none;stroke-dashoffset:0" id="rect9805" width="127.687" height="108.338" x="12.556" y="43.895" ry="4.897"/><rect id="rect877" width="127.687" height="108.338" x="12.556" y="47.07" ry="4.897" style="fill:#fff;stroke:#ccc;stroke-width:.775758;stroke-linecap:square;stroke-linejoin:miter;stroke-miterlimit:2.3;stroke-dasharray:none;stroke-dashoffset:0"/></g><g id="g903" transform="matrix(0.77802498,0,0,0.77802498,-9.5034421,-14.818498)"><g id="g931" transform="matrix(0.62722921,0,0,0.62722921,42.377758,25.32669)"><rect style="fill:none;stroke:#1a1a1a;stroke-width:.715799;stroke-linecap:square;stroke-linejoin:miter;stroke-miterlimit:2.3;stroke-dasharray:none;stroke-dashoffset:0" id="rect9842" width="28.843" height="28.843" x="39.82" y="47.406"/><text style="font-size:48.2575px;line-height:1.25;font-family:sans-serif;fill:none;stroke:#1a1a1a;stroke-width:1.80965" id="text9846" x="40.057" y="75.024" xml:space="preserve"><tspan id="tspan9844" x="40.057" y="75.024" style="fill:none;stroke:#1a1a1a;stroke-width:1.80965">x</tspan></text></g><text id="text935" x="66.964" y="84.671" xml:space="preserve" style="font-size:8.63884px;line-height:1.25;font-family:sans-serif;fill:#000;stroke:#000;stroke-width:.323956"><tspan style="fill:#000;stroke:#000;stroke-width:.323956" id="tspan933" x="66.964" y="84.671">Title</tspan></text><text style="font-size:6.47965px;line-height:1.25;font-family:sans-serif;fill:#ccc;stroke:#b3b3b3;stroke-width:.242987" id="text885" x="62.267" y="94.979" xml:space="preserve"><tspan id="tspan883" x="62.267" y="94.979" style="fill:#ccc;stroke:#b3b3b3;stroke-width:.242987">Sub-title</tspan></text><text style="font-size:7.05556px;line-height:1.25;font-family:sans-serif;white-space:pre;shape-inside:url(#rect889)" id="text887" x="43.864" y="0" transform="matrix(1.1252423,0,0,1.1252423,-20.487398,-28.813836)" xml:space="preserve"><tspan x="45.833" y="124.549"><tspan style="text-align:center;text-anchor:middle">Lorem Ipsum is simply </tspan></tspan><tspan x="52.456" y="133.369"><tspan style="text-align:center;text-anchor:middle">dummy text of the </tspan></tspan><tspan x="42.673" y="142.188"><tspan style="text-align:center;text-anchor:middle">printing and typesetting </tspan></tspan><tspan x="70.339" y="151.007"><tspan style="text-align:center;text-anchor:middle">industry.</tspan></tspan></text></g></g><g id="g258" transform="translate(0,104.24585)"><g id="g220" transform="matrix(0.66497804,0,0,0.84923295,-1.1949522,-22.578922)"><rect id="rect216" width="127.687" height="108.338" x="12.556" y="43.895" ry="4.897" style="fill:#4d4d4d;stroke:#4d4d4d;stroke-width:.775758;stroke-linecap:square;stroke-linejoin:miter;stroke-miterlimit:2.3;stroke-dasharray:none;stroke-dashoffset:0"/><rect style="fill:#fff;stroke:#ccc;stroke-width:.775758;stroke-linecap:square;stroke-linejoin:miter;stroke-miterlimit:2.3;stroke-dasharray:none;stroke-dashoffset:0" id="rect218" width="127.687" height="108.338" x="12.556" y="47.07" ry="4.897"/></g><g id="g256" transform="matrix(0.77802498,0,0,0.77802498,-9.5034421,-14.818498)"><g id="g228" transform="matrix(0.62722921,0,0,0.62722921,42.377758,25.32669)"><rect id="rect222" width="28.843" height="28.843" x="39.82" y="47.406" style="fill:none;stroke:#1a1a1a;stroke-width:.715799;stroke-linecap:square;stroke-linejoin:miter;stroke-miterlimit:2.3;stroke-dasharray:none;stroke-dashoffset:0"/><text id="text226" x="40.057" y="75.024" xml:space="preserve" style="font-size:48.2575px;line-height:1.25;font-family:sans-serif;fill:none;stroke:#1a1a1a;stroke-width:1.80965"><tspan style="fill:none;stroke:#1a1a1a;stroke-width:1.80965" id="tspan224" x="40.057" y="75.024">x</tspan></text></g><text style="font-size:8.63884px;line-height:1.25;font-family:sans-serif;fill:#000;stroke:#000;stroke-width:.323956" id="text232" x="66.964" y="84.671" xml:space="preserve"><tspan id="tspan230" x="66.964" y="84.671" style="fill:#000;stroke:#000;stroke-width:.323956">Title</tspan></text><text id="text236" x="62.267" y="94.979" xml:space="preserve" style="font-size:6.47965px;line-height:1.25;font-family:sans-serif;fill:#ccc;stroke:#b3b3b3;stroke-width:.242987"><tspan style="fill:#ccc;stroke:#b3b3b3;stroke-width:.242987" id="tspan234" x="62.267" y="94.979">Sub-title</tspan></text><text id="text254" x="43.864" y="0" transform="matrix(1.1252423,0,0,1.1252423,-20.487398,-28.813836)" xml:space="preserve" style="font-size:7.05556px;line-height:1.25;font-family:sans-serif;white-space:pre;shape-inside:url(#rect260)"><tspan x="45.833" y="124.549"><tspan style="text-align:center;text-anchor:middle">Lorem Ipsum is simply </tspan></tspan><tspan x="52.456" y="133.369"><tspan style="text-align:center;text-anchor:middle">dummy text of the </tspan></tspan><tspan x="42.673" y="142.188"><tspan style="text-align:center;text-anchor:middle">printing and typesetting </tspan></tspan><tspan x="70.339" y="151.007"><tspan style="text-align:center;text-anchor:middle">industry.</tspan></tspan></text></g></g></g><g id="layer1" style="display:inline"><text style="font-size:4.84642px;line-height:1.25;font-family:sans-serif;stroke-width:.0757256" id="text9759" x="24.898" y="5.221" xml:space="preserve"><tspan id="tspan9757" x="24.898" y="5.221" style="font-size:4.84642px;stroke-width:.0757256">&lt;MEUS SERVIÇOS/&gt;</tspan></text><path id="path91" d="M 7.6205123,7.8254554 H 91.598239" style="opacity:.0799576;fill:#000;stroke:#000;stroke-width:1.36425;stroke-linecap:butt;stroke-linejoin:miter;stroke-miterlimit:4;stroke-dasharray:none;stroke-opacity:1"/></g></svg>