<?xml version="1.0" encoding="UTF-8" standalone="no"?>
<svg
   xmlns:dc="http://purl.org/dc/elements/1.1/"
   xmlns:cc="http://creativecommons.org/ns#"
   xmlns:rdf="http://www.w3.org/1999/02/22-rdf-syntax-ns#"
   xmlns:svg="http://www.w3.org/2000/svg"
   xmlns="http://www.w3.org/2000/svg"
   xmlns:sodipodi="http://sodipodi.sourceforge.net/DTD/sodipodi-0.dtd"
   xmlns:inkscape="http://www.inkscape.org/namespaces/inkscape"
   inkscape:export-ydpi="110"
   inkscape:export-xdpi="110"
   inkscape:export-filename="/home/kaell/Documentos/aboutme/wireframes/mobile/sobre1.png"
   width="375"
   height="667"
   viewBox="0 0 99.218754 176.47708"
   version="1.1"
   id="svg8"
   inkscape:version="1.0 (1.0+r73+1)"
   sodipodi:docname="sobre2.svg">
  <defs
     id="defs2">
    <rect
       id="rect109"
       height="62.277482"
       width="96.045816"
       y="111.13238"
       x="3.4977562" />
    <rect
       x="17.122874"
       y="86.825863"
       width="278.76069"
       height="103.87922"
       id="rect1055" />
    <rect
       id="rect890"
       height="38.626713"
       width="144.05202"
       y="82.962128"
       x="14.434642" />
    <rect
       id="rect870"
       height="24.862329"
       width="113.60208"
       y="44.049358"
       x="14.058795" />
    <symbol
       id="Restrooms">
      <title
         id="title2213">Restrooms</title>
      <g
         id="g2225"
         style="stroke:none">
        <!-- Divider -->
        <rect
           id="rect2215"
           height="12.7"
           width="1.3229166"
           y="3.175"
           x="8.8635416"
           style="stroke-width:0.264583" />
        <!-- Woman -->
        <circle
           id="circle2217"
           r="1.0583333"
           cy="3.96875"
           cx="5.1593752"
           style="stroke-width:0.264583" />
        <path
           id="path2219"
           d="m 5.0270833,11.773958 v 3.704167 a 0.52916667,0.52916667 0 0 1 -1.0583333,0 V 11.773958 H 2.6458333 L 4.1010417,6.8791667 H 3.8364583 l -0.79375,2.778125 A 0.48180625,0.48180625 0 0 1 2.1166667,9.3927083 l 0.9260416,-3.175 A 1.508125,1.2170833 0 0 1 4.4979167,5.2916667 h 1.3229166 a 1.508125,1.2170833 0 0 1 1.4552084,0.9260416 l 0.9260416,3.175 A 0.48180625,0.48180625 0 0 1 7.2760417,9.6572917 l -0.79375,-2.778125 H 6.2177083 L 7.6729167,11.773958 H 6.35 v 3.704167 a 0.52916667,0.52916667 0 0 1 -1.0583333,0 v -3.704167 z"
           style="stroke-width:0.264583" />
        <!-- Man -->
        <circle
           id="circle2221"
           r="1.0583333"
           cy="3.96875"
           cx="13.890625"
           style="stroke-width:0.264583" />
        <path
           id="path2223"
           d="m 11.377083,6.6145833 v 3.4395837 a 0.463021,0.463021 0 0 0 0.926042,0 V 7.0114583 h 0.264583 v 8.4005207 a 0.5953125,0.5953125 0 0 0 1.190625,0 v -4.960937 h 0.264584 v 4.960937 a 0.5953125,0.5953125 0 0 0 1.190625,0 V 7.0114583 h 0.264583 v 3.0427087 a 0.463021,0.463021 0 0 0 0.926042,0 V 6.6145833 A 1.3229167,1.3229167 0 0 0 15.08125,5.2916667 H 12.7 a 1.3229167,1.3229167 0 0 0 -1.322917,1.3229166 z"
           style="stroke-width:0.264583" />
      </g>
    </symbol>
    <symbol
       id="Amphitheatre">
      <title
         id="title1462">Amphitheatre</title>
      <circle
         id="circle1464"
         style="stroke:none;stroke-width:0.264583"
         r="0.92604166"
         cy="2.2489583"
         cx="9.5249996" />
      <path
         id="path1466"
         style="stroke:none;stroke-width:0.264583"
         d="M 11.1125,3.571875 A 1.190625,1.190625 0 0 1 12.303125,4.7625 v 2.2489583 a 0.396875,0.396875 0 0 1 -0.79375,0 V 4.8947917 h -0.79375 v 2.778125 a 5.2916667,5.2916667 0 0 1 -2.38125,0 v -2.778125 h -0.79375 v 2.1166666 a 0.396875,0.396875 0 0 1 -0.79375,0 V 4.7625 A 1.190625,1.190625 0 0 1 7.9375,3.571875 Z" />
      <path
         id="path1468"
         style="fill:none;stroke-width:1.45521"
         d="m 13.520208,9.1016667 a 7.14375,7.14375 0 0 1 -7.9904163,0" />
      <path
         id="path1470"
         style="fill:none;stroke-width:1.45521"
         d="m 15.160625,11.509375 a 10.054167,10.054167 0 0 1 -11.27125,0" />
      <path
         id="path1472"
         style="fill:none;stroke-width:1.45521"
         d="m 16.774583,13.917083 a 12.964583,12.964583 0 0 1 -14.4991663,0" />
    </symbol>
    <rect
       x="14.434642"
       y="82.962128"
       width="144.05202"
       height="38.626713"
       id="rect890-1" />
    <rect
       x="14.434642"
       y="82.962128"
       width="144.05202"
       height="38.626713"
       id="rect943" />
    <rect
       x="14.058795"
       y="44.049358"
       width="113.60208"
       height="24.862329"
       id="rect870-7" />
    <rect
       x="14.058795"
       y="44.049358"
       width="113.60208"
       height="24.862329"
       id="rect946" />
  </defs>
  <sodipodi:namedview
     id="base"
     pagecolor="#ffffff"
     bordercolor="#666666"
     borderopacity="1.0"
     inkscape:pageopacity="1"
     inkscape:pageshadow="2"
     inkscape:zoom="0.49497476"
     inkscape:cx="42.413181"
     inkscape:cy="402.45265"
     inkscape:document-units="px"
     inkscape:current-layer="layer4"
     inkscape:document-rotation="0"
     showgrid="false"
     units="px"
     inkscape:window-width="1366"
     inkscape:window-height="704"
     inkscape:window-x="0"
     inkscape:window-y="0"
     inkscape:window-maximized="1"
     showguides="true"
     inkscape:guide-bbox="true" />
  <metadata
     id="metadata5">
    <rdf:RDF>
      <cc:Work
         rdf:about="">
        <dc:format>image/svg+xml</dc:format>
        <dc:type
           rdf:resource="http://purl.org/dc/dcmitype/StillImage" />
        <dc:title></dc:title>
      </cc:Work>
    </rdf:RDF>
  </metadata>
  <g
     inkscape:label="Barra_menu"
     inkscape:groupmode="layer"
     id="layer1"
     style="display:inline">
    <text
       xml:space="preserve"
       style="font-style:normal;font-weight:normal;font-size:7.08562px;line-height:1.25;font-family:sans-serif;fill:#98a690;fill-opacity:1;stroke:none;stroke-width:0.177141"
       x="3.0063598"
       y="10.992903"
       id="text873"><tspan
         sodipodi:role="line"
         id="tspan871"
         x="3.0063598"
         y="10.992903"
         style="fill:#98a690;fill-opacity:1;stroke-width:0.177141">LOGO</tspan></text>
    <g
       id="g146"
       transform="translate(2.3257603,-2.1296597)">
      <rect
         ry="1.0614986"
         y="5.6102567"
         x="80.006035"
         height="2.1229973"
         width="10.582171"
         id="rect137"
         style="fill:#e6e6e6;stroke:#e6e6e6;stroke-width:0.013266;paint-order:markers stroke fill" />
      <rect
         style="fill:#e6e6e6;stroke:#e6e6e6;stroke-width:0.013266;paint-order:markers stroke fill"
         id="rect139"
         width="10.582171"
         height="2.1229973"
         x="80.006035"
         y="9.4818039"
         ry="1.0614986" />
      <rect
         ry="1.0614986"
         y="13.353352"
         x="80.410591"
         height="2.1229973"
         width="10.582171"
         id="rect141"
         style="fill:#e6e6e6;stroke:#e6e6e6;stroke-width:0.013266;paint-order:markers stroke fill" />
    </g>
    <path
       style="fill:#4d4d4d;stroke:#4d4d4d;stroke-width:0.449792;stroke-linecap:round;stroke-linejoin:round;stroke-miterlimit:4;stroke-dasharray:none;stroke-opacity:1"
       d="M 3.9266705,17.978231 H 93.10026"
       id="path148" />
  </g>
  <g
     inkscape:groupmode="layer"
     id="layer3"
     inkscape:label="img"
     style="display:inline;opacity:1;mix-blend-mode:normal">
    <g
       transform="matrix(0.71811649,0,0,0.71811649,-269.12787,17.901679)"
       id="g886">
      <path
         id="path8318"
         d="M 286.50601,88.158384 A 43.986968,43.986968 0 0 1 242.51905,132.14535 43.986968,43.986968 0 0 1 198.53209,88.158384 43.986968,43.986968 0 0 1 242.51905,44.171423 43.986968,43.986968 0 0 1 286.50601,88.158384"
         style="fill:none;fill-opacity:1;stroke:#4d4d4d;stroke-width:0.386208;stroke-linecap:round;stroke-linejoin:round;stroke-miterlimit:4;stroke-dasharray:none;stroke-opacity:1" />
      <g
         transform="matrix(0.44183395,0,0,0.44183395,140.64286,42.639786)"
         id="g8589">
        <g
           transform="matrix(15.32202,0,0,15.32202,83.046001,33.065321)"
           style="fill:#4d4d4d;stroke:none;stroke-width:0.0172682;stroke-miterlimit:4;stroke-dasharray:none"
           id="g8579">
          <title
             id="title8573">Amphitheatre</title>
          <path
             d="M 10.451041,2.2489583 A 0.92604166,0.92604166 0 0 1 9.5249996,3.175 0.92604166,0.92604166 0 0 1 8.598958,2.2489583 0.92604166,0.92604166 0 0 1 9.5249996,1.3229167 0.92604166,0.92604166 0 0 1 10.451041,2.2489583"
             style="fill:#4d4d4d;stroke:none;stroke-width:0.0172682;stroke-miterlimit:4;stroke-dasharray:none"
             id="path8575" />
          <path
             id="path8577"
             style="fill:#4d4d4d;stroke:none;stroke-width:0.0172682;stroke-miterlimit:4;stroke-dasharray:none"
             d="M 11.1125,3.571875 A 1.190625,1.190625 0 0 1 12.303125,4.7625 v 2.2489583 a 0.396875,0.396875 0 0 1 -0.79375,0 V 4.8947917 h -0.79375 v 2.778125 a 5.2916667,5.2916667 0 0 1 -2.38125,0 v -2.778125 h -0.79375 v 2.1166666 a 0.396875,0.396875 0 0 1 -0.79375,0 V 4.7625 A 1.190625,1.190625 0 0 1 7.9375,3.571875 Z" />
        </g>
        <g
           id="use8536"
           style="fill:#e6e6e6;stroke:none;stroke-width:0.0172682;stroke-miterlimit:4;stroke-dasharray:none"
           transform="matrix(15.32202,0,0,15.32202,86.221003,33.065321)">
          <title
             id="title8558">Amphitheatre</title>
          <path
             id="circle8560"
             style="fill:#e6e6e6;stroke:none;stroke-width:0.0172682;stroke-miterlimit:4;stroke-dasharray:none"
             d="M 10.451041,2.2489583 A 0.92604166,0.92604166 0 0 1 9.5249996,3.175 0.92604166,0.92604166 0 0 1 8.598958,2.2489583 0.92604166,0.92604166 0 0 1 9.5249996,1.3229167 0.92604166,0.92604166 0 0 1 10.451041,2.2489583" />
          <path
             d="M 11.1125,3.571875 A 1.190625,1.190625 0 0 1 12.303125,4.7625 v 2.2489583 a 0.396875,0.396875 0 0 1 -0.79375,0 V 4.8947917 h -0.79375 v 2.778125 a 5.2916667,5.2916667 0 0 1 -2.38125,0 v -2.778125 h -0.79375 v 2.1166666 a 0.396875,0.396875 0 0 1 -0.79375,0 V 4.7625 A 1.190625,1.190625 0 0 1 7.9375,3.571875 Z"
             style="fill:#e6e6e6;stroke:none;stroke-width:0.0172682;stroke-miterlimit:4;stroke-dasharray:none"
             id="path8562" />
        </g>
      </g>
    </g>
  </g>
  <g
     inkscape:groupmode="layer"
     id="layer2"
     inkscape:label="menu_itens"
     style="display:inline">
    <path
       sodipodi:nodetypes="ccccc"
       d="M 0.12458525,0.12458548 H 99.17441 l 0,90.05721852 L 0.12458525,60.753199 Z"
       style="display:inline;fill:none;fill-opacity:1;stroke:#4d4d4d;stroke-width:0.24917;stroke-linecap:round;stroke-linejoin:round;stroke-miterlimit:4;stroke-dasharray:none;stroke-opacity:1"
       id="rect28" />
  </g>
  <g
     inkscape:label="Descricao"
     id="layer4"
     inkscape:groupmode="layer"
     style="display:inline">
    <g
       style="font-style:normal;font-weight:normal;font-size:10.5833px;line-height:1.25;font-family:sans-serif;white-space:pre;shape-inside:url(#rect870-7);mix-blend-mode:normal;fill:#000000;fill-opacity:1;stroke:none"
       id="text868"
       transform="matrix(1.1546427,0,0,1.1546427,-1.8478053,-22.588563)"
       aria-label="Hey, I’m .... ">
      <text
         id="text89"
         y="55.278595"
         x="14.311394"
         style="font-style:normal;font-variant:normal;font-weight:normal;font-stretch:normal;font-size:11.9224px;line-height:1.25;font-family:'URW Gothic';-inkscape-font-specification:'URW Gothic';stroke-width:0.604164"
         xml:space="preserve"><tspan
           style="font-style:normal;font-variant:normal;font-weight:normal;font-stretch:normal;font-family:sans-serif;-inkscape-font-specification:sans-serif;stroke-width:0.604164"
           y="55.278595"
           x="14.311394"
           id="tspan87"
           sodipodi:role="line">Sobre mim</tspan></text>
    </g>
    <g
       style="font-style:normal;font-weight:normal;font-size:10.5833px;line-height:1.25;font-family:sans-serif;white-space:pre;shape-inside:url(#rect890-1);fill:#4d4d4d;fill-opacity:1;stroke:none"
       id="text888"
       transform="matrix(0.29904969,0,0,0.29904969,23.894938,22.866513)"
       aria-label="Lorem Ipsum is simply dummy text of the printing and typesetting industry. ">
      <text
         id="text93"
         y="251.32204"
         x="-395.77536"
         style="font-size:17.4593px;line-height:1.25;font-family:ringbearer;-inkscape-font-specification:ringbearer;stroke-width:0.884747"
         xml:space="preserve"><tspan
           style="stroke-width:0.884747"
           y="251.32204"
           x="-395.77536"
           id="tspan91"
           sodipodi:role="line" /></text>
      <text
         id="text97"
         y="97.375069"
         x="86.007851"
         style="font-size:17.4593px;line-height:1.25;font-family:ringbearer;-inkscape-font-specification:ringbearer;text-align:center;text-anchor:middle;stroke-width:0.884747"
         xml:space="preserve"><tspan
           style="font-style:normal;font-variant:normal;font-weight:normal;font-stretch:normal;font-family:sans-serif;-inkscape-font-specification:sans-serif;text-align:center;text-anchor:middle;stroke-width:0.884747"
           y="97.375069"
           x="86.007851"
           id="tspan95"
           sodipodi:role="line">Lorem Ipsum is simply du</tspan><tspan
           id="tspan99"
           style="font-style:normal;font-variant:normal;font-weight:normal;font-stretch:normal;font-family:sans-serif;-inkscape-font-specification:sans-serif;text-align:center;text-anchor:middle;stroke-width:0.884747"
           y="119.1992"
           x="86.007851"
           sodipodi:role="line">mmy text of the printi</tspan></text>
    </g>
    <g
       id="g903"
       transform="matrix(0.64770952,0,0,0.64770952,-114.21177,32.121902)">
      <rect
         ry="12.033323"
         y="154.07887"
         x="-0.29629663"
         height="24.066647"
         width="72.199944"
         id="rect894"
         style="fill:none;stroke:#333333;stroke-width:0.90943;stroke-linecap:round;stroke-linejoin:round" />
      <text
         id="text898"
         y="169.85922"
         x="8.2746582"
         style="font-style:normal;font-weight:normal;font-size:13.5821px;line-height:1.25;font-family:sans-serif;fill:#000000;fill-opacity:1;stroke:none;stroke-width:0.339554"
         xml:space="preserve"><tspan
           style="stroke-width:0.339554"
           y="169.85922"
           x="8.2746582"
           id="tspan896"
           sodipodi:role="line">Projetos</tspan></text>
    </g>
    <g
       aria-label="Hey, I’m .... "
       transform="matrix(1.1546427,0,0,1.1546427,2.3512061,43.028112)"
       id="g105"
       style="font-style:normal;font-weight:normal;font-size:10.5833px;line-height:1.25;font-family:sans-serif;white-space:pre;shape-inside:url(#rect870-7);mix-blend-mode:normal;fill:#000000;fill-opacity:1;stroke:none">
      <text
         xml:space="preserve"
         style="font-style:normal;font-variant:normal;font-weight:normal;font-stretch:normal;font-size:8.37206px;line-height:1.25;font-family:'URW Gothic';-inkscape-font-specification:'URW Gothic';stroke-width:0.424252"
         x="1.2319559"
         y="51.954033"
         id="text103"><tspan
           sodipodi:role="line"
           id="tspan101"
           x="1.2319559"
           y="51.954033"
           style="font-style:normal;font-variant:normal;font-weight:normal;font-stretch:normal;font-family:sans-serif;-inkscape-font-specification:sans-serif;stroke-width:0.424252">Quem sou eu?</tspan></text>
    </g>
    <text
       transform="translate(0.59918844)"
       style="font-size:5.2212px;line-height:1.25;font-family:ringbearer;-inkscape-font-specification:ringbearer;white-space:pre;shape-inside:url(#rect109);"
       id="text107"
       xml:space="preserve"><tspan
         x="3.4980469"
         y="115.75235"><tspan
           style="font-style:normal;font-variant:normal;font-weight:normal;font-stretch:normal;font-family:sans-serif;-inkscape-font-specification:sans-serif">. It was popularised in the 1960s </tspan></tspan><tspan
         x="3.4980469"
         y="122.27885"><tspan
           style="font-style:normal;font-variant:normal;font-weight:normal;font-stretch:normal;font-family:sans-serif;-inkscape-font-specification:sans-serif">with the release of Letraset sheets </tspan></tspan><tspan
         x="3.4980469"
         y="128.80534"><tspan
           style="font-style:normal;font-variant:normal;font-weight:normal;font-stretch:normal;font-family:sans-serif;-inkscape-font-specification:sans-serif">containing Lorem Ipsum passages, </tspan></tspan><tspan
         x="3.4980469"
         y="135.33185"><tspan
           style="font-style:normal;font-variant:normal;font-weight:normal;font-stretch:normal;font-family:sans-serif;-inkscape-font-specification:sans-serif">and more recently with ...</tspan></tspan></text>
  </g>
</svg>
