<svg xmlns="http://www.w3.org/2000/svg" xmlns:svg="http://www.w3.org/2000/svg" id="svg8" width="375" height="667" version="1.1" viewBox="0 0 99.219 176.477"><defs id="defs2"><rect id="rect109" width="96.046" height="62.277" x="3.498" y="111.132"/><rect id="rect1055" width="278.761" height="103.879" x="17.123" y="86.826"/><rect id="rect890" width="144.052" height="38.627" x="14.435" y="82.962"/><rect id="rect870" width="113.602" height="24.862" x="14.059" y="44.049"/><symbol id="Restrooms"><title id="title2213">Restrooms</title><g style="stroke:none" id="g2225"><rect style="stroke-width:.264583" id="rect2215" width="1.323" height="12.7" x="8.864" y="3.175"/><circle style="stroke-width:.264583" id="circle2217" cx="5.159" cy="3.969" r="1.058"/><path style="stroke-width:.264583" id="path2219" d="m 5.0270833,11.773958 v 3.704167 a 0.52916667,0.52916667 0 0 1 -1.0583333,0 V 11.773958 H 2.6458333 L 4.1010417,6.8791667 H 3.8364583 l -0.79375,2.778125 A 0.48180625,0.48180625 0 0 1 2.1166667,9.3927083 l 0.9260416,-3.175 A 1.508125,1.2170833 0 0 1 4.4979167,5.2916667 h 1.3229166 a 1.508125,1.2170833 0 0 1 1.4552084,0.9260416 l 0.9260416,3.175 A 0.48180625,0.48180625 0 0 1 7.2760417,9.6572917 l -0.79375,-2.778125 H 6.2177083 L 7.6729167,11.773958 H 6.35 v 3.704167 a 0.52916667,0.52916667 0 0 1 -1.0583333,0 v -3.704167 z"/><circle style="stroke-width:.264583" id="circle2221" cx="13.891" cy="3.969" r="1.058"/><path style="stroke-width:.264583" id="path2223" d="m 11.377083,6.6145833 v 3.4395837 a 0.463021,0.463021 0 0 0 0.926042,0 V 7.0114583 h 0.264583 v 8.4005207 a 0.5953125,0.5953125 0 0 0 1.190625,0 v -4.960937 h 0.264584 v 4.960937 a 0.5953125,0.5953125 0 0 0 1.190625,0 V 7.0114583 h 0.264583 v 3.0427087 a 0.463021,0.463021 0 0 0 0.926042,0 V 6.6145833 A 1.3229167,1.3229167 0 0 0 15.08125,5.2916667 H 12.7 a 1.3229167,1.3229167 0 0 0 -1.322917,1.3229166 z"/></g></symbol><symbol id="Amphitheatre"><title id="title1462">Amphitheatre</title><circle style="stroke:none;stroke-width:.264583" id="circle1464" cx="9.525" cy="2.249" r=".926"/><path style="stroke:none;stroke-width:.264583" id="path1466" d="M 11.1125,3.571875 A 1.190625,1.190625 0 0 1 12.303125,4.7625 v 2.2489583 a 0.396875,0.396875 0 0 1 -0.79375,0 V 4.8947917 h -0.79375 v 2.778125 a 5.2916667,5.2916667 0 0 1 -2.38125,0 v -2.778125 h -0.79375 v 2.1166666 a 0.396875,0.396875 0 0 1 -0.79375,0 V 4.7625 A 1.190625,1.190625 0 0 1 7.9375,3.571875 Z"/><path style="fill:none;stroke-width:1.45521" id="path1468" d="m 13.520208,9.1016667 a 7.14375,7.14375 0 0 1 -7.9904163,0"/><path style="fill:none;stroke-width:1.45521" id="path1470" d="m 15.160625,11.509375 a 10.054167,10.054167 0 0 1 -11.27125,0"/><path style="fill:none;stroke-width:1.45521" id="path1472" d="m 16.774583,13.917083 a 12.964583,12.964583 0 0 1 -14.4991663,0"/></symbol><rect id="rect890-1" width="144.052" height="38.627" x="14.435" y="82.962"/><rect id="rect943" width="144.052" height="38.627" x="14.435" y="82.962"/><rect id="rect870-7" width="113.602" height="24.862" x="14.059" y="44.049"/><rect id="rect946" width="113.602" height="24.862" x="14.059" y="44.049"/></defs><metadata id="metadata5"/><g style="display:inline" id="layer1"><text id="text873" x="3.006" y="10.993" xml:space="preserve" style="font-style:normal;font-weight:400;font-size:7.08562px;line-height:1.25;font-family:sans-serif;fill:#98a690;fill-opacity:1;stroke:none;stroke-width:.177141"><tspan style="fill:#98a690;fill-opacity:1;stroke-width:.177141" id="tspan871" x="3.006" y="10.993">LOGO</tspan></text><g id="g146" transform="translate(2.3257603,-2.1296597)"><rect style="fill:#e6e6e6;stroke:#e6e6e6;stroke-width:.013266;paint-order:markers stroke fill" id="rect137" width="10.582" height="2.123" x="80.006" y="5.61" ry="1.061"/><rect id="rect139" width="10.582" height="2.123" x="80.006" y="9.482" ry="1.061" style="fill:#e6e6e6;stroke:#e6e6e6;stroke-width:.013266;paint-order:markers stroke fill"/><rect style="fill:#e6e6e6;stroke:#e6e6e6;stroke-width:.013266;paint-order:markers stroke fill" id="rect141" width="10.582" height="2.123" x="80.411" y="13.353" ry="1.061"/></g><path id="path148" d="M 3.9266705,17.978231 H 93.10026" style="fill:#4d4d4d;stroke:#4d4d4d;stroke-width:.449792;stroke-linecap:round;stroke-linejoin:round;stroke-miterlimit:4;stroke-dasharray:none;stroke-opacity:1"/></g><g style="display:inline;opacity:1;mix-blend-mode:normal" id="layer3"><g id="g886" transform="matrix(0.71811649,0,0,0.71811649,-269.12787,17.901679)"><path style="fill:none;fill-opacity:1;stroke:#4d4d4d;stroke-width:.386208;stroke-linecap:round;stroke-linejoin:round;stroke-miterlimit:4;stroke-dasharray:none;stroke-opacity:1" id="path8318" d="M 286.50601,88.158384 A 43.986968,43.986968 0 0 1 242.51905,132.14535 43.986968,43.986968 0 0 1 198.53209,88.158384 43.986968,43.986968 0 0 1 242.51905,44.171423 43.986968,43.986968 0 0 1 286.50601,88.158384"/><g id="g8589" transform="matrix(0.44183395,0,0,0.44183395,140.64286,42.639786)"><g id="g8579" transform="matrix(15.32202,0,0,15.32202,83.046001,33.065321)" style="fill:#4d4d4d;stroke:none;stroke-width:.0172682;stroke-miterlimit:4;stroke-dasharray:none"><title id="title8573">Amphitheatre</title><path id="path8575" d="M 10.451041,2.2489583 A 0.92604166,0.92604166 0 0 1 9.5249996,3.175 0.92604166,0.92604166 0 0 1 8.598958,2.2489583 0.92604166,0.92604166 0 0 1 9.5249996,1.3229167 0.92604166,0.92604166 0 0 1 10.451041,2.2489583" style="fill:#4d4d4d;stroke:none;stroke-width:.0172682;stroke-miterlimit:4;stroke-dasharray:none"/><path style="fill:#4d4d4d;stroke:none;stroke-width:.0172682;stroke-miterlimit:4;stroke-dasharray:none" id="path8577" d="M 11.1125,3.571875 A 1.190625,1.190625 0 0 1 12.303125,4.7625 v 2.2489583 a 0.396875,0.396875 0 0 1 -0.79375,0 V 4.8947917 h -0.79375 v 2.778125 a 5.2916667,5.2916667 0 0 1 -2.38125,0 v -2.778125 h -0.79375 v 2.1166666 a 0.396875,0.396875 0 0 1 -0.79375,0 V 4.7625 A 1.190625,1.190625 0 0 1 7.9375,3.571875 Z"/></g><g style="fill:#e6e6e6;stroke:none;stroke-width:.0172682;stroke-miterlimit:4;stroke-dasharray:none" id="use8536" transform="matrix(15.32202,0,0,15.32202,86.221003,33.065321)"><title id="title8558">Amphitheatre</title><path style="fill:#e6e6e6;stroke:none;stroke-width:.0172682;stroke-miterlimit:4;stroke-dasharray:none" id="circle8560" d="M 10.451041,2.2489583 A 0.92604166,0.92604166 0 0 1 9.5249996,3.175 0.92604166,0.92604166 0 0 1 8.598958,2.2489583 0.92604166,0.92604166 0 0 1 9.5249996,1.3229167 0.92604166,0.92604166 0 0 1 10.451041,2.2489583"/><path id="path8562" d="M 11.1125,3.571875 A 1.190625,1.190625 0 0 1 12.303125,4.7625 v 2.2489583 a 0.396875,0.396875 0 0 1 -0.79375,0 V 4.8947917 h -0.79375 v 2.778125 a 5.2916667,5.2916667 0 0 1 -2.38125,0 v -2.778125 h -0.79375 v 2.1166666 a 0.396875,0.396875 0 0 1 -0.79375,0 V 4.7625 A 1.190625,1.190625 0 0 1 7.9375,3.571875 Z" style="fill:#e6e6e6;stroke:none;stroke-width:.0172682;stroke-miterlimit:4;stroke-dasharray:none"/></g></g></g></g><g style="display:inline" id="layer2"><path id="rect28" d="M 0.12458525,0.12458548 H 99.17441 l 0,90.05721852 L 0.12458525,60.753199 Z" style="display:inline;fill:none;fill-opacity:1;stroke:#4d4d4d;stroke-width:.24917;stroke-linecap:round;stroke-linejoin:round;stroke-miterlimit:4;stroke-dasharray:none;stroke-opacity:1"/></g><g style="display:inline" id="layer4"><g id="text868" aria-label="Hey, I’m ...." transform="matrix(1.1546427,0,0,1.1546427,-1.8478053,-22.588563)" style="font-style:normal;font-weight:400;font-size:10.5833px;line-height:1.25;font-family:sans-serif;white-space:pre;shape-inside:url(#rect870-7);mix-blend-mode:normal;fill:#000;fill-opacity:1;stroke:none"><text style="font-style:normal;font-variant:normal;font-weight:400;font-stretch:normal;font-size:11.9224px;line-height:1.25;font-family:'URW Gothic';-inkscape-font-specification:'URW Gothic';stroke-width:.604164" id="text89" x="14.311" y="55.279" xml:space="preserve"><tspan id="tspan87" x="14.311" y="55.279" style="font-style:normal;font-variant:normal;font-weight:400;font-stretch:normal;font-family:sans-serif;-inkscape-font-specification:sans-serif;stroke-width:.604164">Sobre mim</tspan></text></g><g id="text888" aria-label="Lorem Ipsum is simply dummy text of the printing and typesetting industry." transform="matrix(0.29904969,0,0,0.29904969,23.894938,22.866513)" style="font-style:normal;font-weight:400;font-size:10.5833px;line-height:1.25;font-family:sans-serif;white-space:pre;shape-inside:url(#rect890-1);fill:#4d4d4d;fill-opacity:1;stroke:none"><text style="font-size:17.4593px;line-height:1.25;font-family:ringbearer;-inkscape-font-specification:ringbearer;text-align:center;text-anchor:middle;stroke-width:.884747" id="text97" x="86.008" y="97.375" xml:space="preserve"><tspan id="tspan95" x="86.008" y="97.375" style="font-style:normal;font-variant:normal;font-weight:400;font-stretch:normal;font-family:sans-serif;-inkscape-font-specification:sans-serif;text-align:center;text-anchor:middle;stroke-width:.884747">Lorem Ipsum is simply du</tspan><tspan style="font-style:normal;font-variant:normal;font-weight:400;font-stretch:normal;font-family:sans-serif;-inkscape-font-specification:sans-serif;text-align:center;text-anchor:middle;stroke-width:.884747" id="tspan99" x="86.008" y="119.199">mmy text of the printi</tspan></text></g><g id="g903" transform="matrix(0.64770952,0,0,0.64770952,-114.21177,32.121902)"><rect style="fill:none;stroke:#333;stroke-width:.90943;stroke-linecap:round;stroke-linejoin:round" id="rect894" width="72.2" height="24.067" x="-.296" y="154.079" ry="12.033"/><text style="font-style:normal;font-weight:400;font-size:13.5821px;line-height:1.25;font-family:sans-serif;fill:#000;fill-opacity:1;stroke:none;stroke-width:.339554" id="text898" x="8.275" y="169.859" xml:space="preserve"><tspan id="tspan896" x="8.275" y="169.859" style="stroke-width:.339554">Projetos</tspan></text></g><g style="font-style:normal;font-weight:400;font-size:10.5833px;line-height:1.25;font-family:sans-serif;white-space:pre;shape-inside:url(#rect870-7);mix-blend-mode:normal;fill:#000;fill-opacity:1;stroke:none" id="g105" aria-label="Hey, I’m ...." transform="matrix(1.1546427,0,0,1.1546427,2.3512061,43.028112)"><text id="text103" x="1.232" y="51.954" xml:space="preserve" style="font-style:normal;font-variant:normal;font-weight:400;font-stretch:normal;font-size:8.37206px;line-height:1.25;font-family:'URW Gothic';-inkscape-font-specification:'URW Gothic';stroke-width:.424252"><tspan style="font-style:normal;font-variant:normal;font-weight:400;font-stretch:normal;font-family:sans-serif;-inkscape-font-specification:sans-serif;stroke-width:.424252" id="tspan101" x="1.232" y="51.954">Quem sou eu?</tspan></text></g><text id="text107" transform="translate(0.59918844)" xml:space="preserve" style="font-size:5.2212px;line-height:1.25;font-family:ringbearer;-inkscape-font-specification:ringbearer;white-space:pre;shape-inside:url(#rect109)"><tspan x="3.498" y="115.752"><tspan style="font-style:normal;font-variant:normal;font-weight:400;font-stretch:normal;font-family:sans-serif;-inkscape-font-specification:sans-serif">. It was popularised in the 1960s </tspan></tspan><tspan x="3.498" y="122.279"><tspan style="font-style:normal;font-variant:normal;font-weight:400;font-stretch:normal;font-family:sans-serif;-inkscape-font-specification:sans-serif">with the release of Letraset sheets </tspan></tspan><tspan x="3.498" y="128.805"><tspan style="font-style:normal;font-variant:normal;font-weight:400;font-stretch:normal;font-family:sans-serif;-inkscape-font-specification:sans-serif">containing Lorem Ipsum passages, </tspan></tspan><tspan x="3.498" y="135.332"><tspan style="font-style:normal;font-variant:normal;font-weight:400;font-stretch:normal;font-family:sans-serif;-inkscape-font-specification:sans-serif">and more recently with ...</tspan></tspan></text></g></svg>