<?xml version="1.0" encoding="UTF-8" standalone="no"?>
<svg
   xmlns:dc="http://purl.org/dc/elements/1.1/"
   xmlns:cc="http://creativecommons.org/ns#"
   xmlns:rdf="http://www.w3.org/1999/02/22-rdf-syntax-ns#"
   xmlns:svg="http://www.w3.org/2000/svg"
   xmlns="http://www.w3.org/2000/svg"
   xmlns:sodipodi="http://sodipodi.sourceforge.net/DTD/sodipodi-0.dtd"
   xmlns:inkscape="http://www.inkscape.org/namespaces/inkscape"
   sodipodi:docname="sobre2.svg"
   inkscape:version="1.0 (1.0+r73+1)"
   id="svg8"
   version="1.1"
   viewBox="0 0 99.218754 176.47708"
   height="667"
   width="375"
   inkscape:export-filename="/home/kaell/Documentos/aboutme/wireframes/mobile/sobre1.png"
   inkscape:export-xdpi="110"
   inkscape:export-ydpi="110">
  <defs
     id="defs2">
    <rect
       x="3.4977562"
       y="111.13238"
       width="96.045816"
       height="62.277482"
       id="rect109" />
    <rect
       id="rect1055"
       height="103.87922"
       width="278.76069"
       y="86.825863"
       x="17.122874" />
    <rect
       x="14.434642"
       y="82.962128"
       width="144.05202"
       height="38.626713"
       id="rect890" />
    <rect
       x="14.058795"
       y="44.049358"
       width="113.60208"
       height="24.862329"
       id="rect870" />
    <symbol
       id="Restrooms">
      <title
         id="title2213">Restrooms</title>
      <g
         style="stroke:none"
         id="g2225">
        <!-- Divider -->
        <rect
           style="stroke-width:0.264583"
           x="8.8635416"
           y="3.175"
           width="1.3229166"
           height="12.7"
           id="rect2215" />
        <!-- Woman -->
        <circle
           style="stroke-width:0.264583"
           cx="5.1593752"
           cy="3.96875"
           r="1.0583333"
           id="circle2217" />
        <path
           style="stroke-width:0.264583"
           d="m 5.0270833,11.773958 v 3.704167 a 0.52916667,0.52916667 0 0 1 -1.0583333,0 V 11.773958 H 2.6458333 L 4.1010417,6.8791667 H 3.8364583 l -0.79375,2.778125 A 0.48180625,0.48180625 0 0 1 2.1166667,9.3927083 l 0.9260416,-3.175 A 1.508125,1.2170833 0 0 1 4.4979167,5.2916667 h 1.3229166 a 1.508125,1.2170833 0 0 1 1.4552084,0.9260416 l 0.9260416,3.175 A 0.48180625,0.48180625 0 0 1 7.2760417,9.6572917 l -0.79375,-2.778125 H 6.2177083 L 7.6729167,11.773958 H 6.35 v 3.704167 a 0.52916667,0.52916667 0 0 1 -1.0583333,0 v -3.704167 z"
           id="path2219" />
        <!-- Man -->
        <circle
           style="stroke-width:0.264583"
           cx="13.890625"
           cy="3.96875"
           r="1.0583333"
           id="circle2221" />
        <path
           style="stroke-width:0.264583"
           d="m 11.377083,6.6145833 v 3.4395837 a 0.463021,0.463021 0 0 0 0.926042,0 V 7.0114583 h 0.264583 v 8.4005207 a 0.5953125,0.5953125 0 0 0 1.190625,0 v -4.960937 h 0.264584 v 4.960937 a 0.5953125,0.5953125 0 0 0 1.190625,0 V 7.0114583 h 0.264583 v 3.0427087 a 0.463021,0.463021 0 0 0 0.926042,0 V 6.6145833 A 1.3229167,1.3229167 0 0 0 15.08125,5.2916667 H 12.7 a 1.3229167,1.3229167 0 0 0 -1.322917,1.3229166 z"
           id="path2223" />
      </g>
    </symbol>
    <symbol
       id="Amphitheatre">
      <title
         id="title1462">Amphitheatre</title>
      <circle
         cx="9.5249996"
         cy="2.2489583"
         r="0.92604166"
         style="stroke:none;stroke-width:0.264583"
         id="circle1464" />
      <path
         d="M 11.1125,3.571875 A 1.190625,1.190625 0 0 1 12.303125,4.7625 v 2.2489583 a 0.396875,0.396875 0 0 1 -0.79375,0 V 4.8947917 h -0.79375 v 2.778125 a 5.2916667,5.2916667 0 0 1 -2.38125,0 v -2.778125 h -0.79375 v 2.1166666 a 0.396875,0.396875 0 0 1 -0.79375,0 V 4.7625 A 1.190625,1.190625 0 0 1 7.9375,3.571875 Z"
         style="stroke:none;stroke-width:0.264583"
         id="path1466" />
      <path
         d="m 13.520208,9.1016667 a 7.14375,7.14375 0 0 1 -7.9904163,0"
         style="fill:none;stroke-width:1.45521"
         id="path1468" />
      <path
         d="m 15.160625,11.509375 a 10.054167,10.054167 0 0 1 -11.27125,0"
         style="fill:none;stroke-width:1.45521"
         id="path1470" />
      <path
         d="m 16.774583,13.917083 a 12.964583,12.964583 0 0 1 -14.4991663,0"
         style="fill:none;stroke-width:1.45521"
         id="path1472" />
    </symbol>
    <rect
       id="rect890-1"
       height="38.626713"
       width="144.05202"
       y="82.962128"
       x="14.434642" />
    <rect
       id="rect943"
       height="38.626713"
       width="144.05202"
       y="82.962128"
       x="14.434642" />
    <rect
       id="rect870-7"
       height="24.862329"
       width="113.60208"
       y="44.049358"
       x="14.058795" />
    <rect
       id="rect946"
       height="24.862329"
       width="113.60208"
       y="44.049358"
       x="14.058795" />
  </defs>
  <sodipodi:namedview
     inkscape:guide-bbox="true"
     showguides="true"
     inkscape:window-maximized="1"
     inkscape:window-y="0"
     inkscape:window-x="0"
     inkscape:window-height="704"
     inkscape:window-width="1366"
     units="px"
     showgrid="false"
     inkscape:document-rotation="0"
     inkscape:current-layer="layer3"
     inkscape:document-units="px"
     inkscape:cy="341.51763"
     inkscape:cx="111.74893"
     inkscape:zoom="0.70000002"
     inkscape:pageshadow="2"
     inkscape:pageopacity="1"
     borderopacity="1.0"
     bordercolor="#666666"
     pagecolor="#ffffff"
     id="base" />
  <metadata
     id="metadata5">
    <rdf:RDF>
      <cc:Work
         rdf:about="">
        <dc:format>image/svg+xml</dc:format>
        <dc:type
           rdf:resource="http://purl.org/dc/dcmitype/StillImage" />
        <dc:title />
      </cc:Work>
    </rdf:RDF>
  </metadata>
  <g
     style="display:inline"
     id="layer1"
     inkscape:groupmode="layer"
     inkscape:label="Barra_menu">
    <path
       style="fill:#4d4d4d;stroke:#4d4d4d;stroke-width:0.449792;stroke-linecap:round;stroke-linejoin:round;stroke-miterlimit:4;stroke-dasharray:none;stroke-opacity:1;opacity:0.32700376"
       d="M 3.9266705,142.44701 H 93.10026"
       id="path1014" />
  </g>
  <g
     style="display:inline;opacity:1;mix-blend-mode:normal"
     inkscape:label="img"
     id="layer3"
     inkscape:groupmode="layer">
    <g
       transform="matrix(1.182937,0,0,1.182937,-9.0753894,-24.629036)"
       id="g1043">
      <g
         id="g963"
         transform="matrix(0.92364647,0,0,0.92364647,2.6773599,-7.9884872)">
        <text
           id="text101"
           y="91.763908"
           x="21.275887"
           style="font-size:3.27509px;line-height:1.25;font-family:ringbearer;-inkscape-font-specification:ringbearer;stroke-width:0.165964"
           xml:space="preserve"><tspan
             style="font-style:normal;font-variant:normal;font-weight:normal;font-stretch:normal;font-family:sans-serif;-inkscape-font-specification:sans-serif;stroke-width:0.165964"
             y="91.763908"
             x="21.275887"
             id="tspan99"
             sodipodi:role="line">like readable English. Many desktop</tspan></text>
        <g
           transform="matrix(0.62726683,0,0,0.62726683,18.939193,22.557307)"
           id="g948">
          <g
             id="g8589"
             transform="matrix(0.49467717,0,0,0.49467717,-64.451174,6.9838258)">
            <g
               id="g8579"
               style="fill:#4d4d4d;stroke:none;stroke-width:0.0172682;stroke-miterlimit:4;stroke-dasharray:none"
               transform="matrix(15.32202,0,0,15.32202,83.046001,33.065321)">
              <title
                 id="title8573">Amphitheatre</title>
              <path
                 id="path8575"
                 style="fill:#4d4d4d;stroke:none;stroke-width:0.0172682;stroke-miterlimit:4;stroke-dasharray:none"
                 d="M 10.451041,2.2489583 A 0.92604166,0.92604166 0 0 1 9.5249996,3.175 0.92604166,0.92604166 0 0 1 8.598958,2.2489583 0.92604166,0.92604166 0 0 1 9.5249996,1.3229167 0.92604166,0.92604166 0 0 1 10.451041,2.2489583" />
              <path
                 d="M 11.1125,3.571875 A 1.190625,1.190625 0 0 1 12.303125,4.7625 v 2.2489583 a 0.396875,0.396875 0 0 1 -0.79375,0 V 4.8947917 h -0.79375 v 2.778125 a 5.2916667,5.2916667 0 0 1 -2.38125,0 v -2.778125 h -0.79375 v 2.1166666 a 0.396875,0.396875 0 0 1 -0.79375,0 V 4.7625 A 1.190625,1.190625 0 0 1 7.9375,3.571875 Z"
                 style="fill:#4d4d4d;stroke:none;stroke-width:0.0172682;stroke-miterlimit:4;stroke-dasharray:none"
                 id="path8577" />
            </g>
            <g
               transform="matrix(15.32202,0,0,15.32202,86.221003,33.065321)"
               style="fill:#e6e6e6;stroke:none;stroke-width:0.0172682;stroke-miterlimit:4;stroke-dasharray:none"
               id="use8536">
              <title
                 id="title8558">Amphitheatre</title>
              <path
                 d="M 10.451041,2.2489583 A 0.92604166,0.92604166 0 0 1 9.5249996,3.175 0.92604166,0.92604166 0 0 1 8.598958,2.2489583 0.92604166,0.92604166 0 0 1 9.5249996,1.3229167 0.92604166,0.92604166 0 0 1 10.451041,2.2489583"
                 style="fill:#e6e6e6;stroke:none;stroke-width:0.0172682;stroke-miterlimit:4;stroke-dasharray:none"
                 id="circle8560" />
              <path
                 id="path8562"
                 style="fill:#e6e6e6;stroke:none;stroke-width:0.0172682;stroke-miterlimit:4;stroke-dasharray:none"
                 d="M 11.1125,3.571875 A 1.190625,1.190625 0 0 1 12.303125,4.7625 v 2.2489583 a 0.396875,0.396875 0 0 1 -0.79375,0 V 4.8947917 h -0.79375 v 2.778125 a 5.2916667,5.2916667 0 0 1 -2.38125,0 v -2.778125 h -0.79375 v 2.1166666 a 0.396875,0.396875 0 0 1 -0.79375,0 V 4.7625 A 1.190625,1.190625 0 0 1 7.9375,3.571875 Z" />
            </g>
          </g>
          <rect
             style="opacity:1;fill:none;stroke:#000000;stroke-width:0.405906;stroke-linecap:round;paint-order:stroke markers fill"
             id="rect113"
             width="87.96151"
             height="87.96151"
             x="5.628624"
             y="13.965687"
             rx="0"
             ry="43.980755" />
        </g>
      </g>
      <text
         id="text967"
         y="135.98402"
         x="23.198721"
         style="font-size:2.92856px;line-height:1.25;font-family:ringbearer;-inkscape-font-specification:ringbearer;stroke-width:0.148404"
         xml:space="preserve"><tspan
           style="font-style:normal;font-variant:normal;font-weight:normal;font-stretch:normal;font-family:sans-serif;-inkscape-font-specification:sans-serif;stroke-width:0.148404"
           y="135.98402"
           x="23.198721"
           id="tspan965"
           sodipodi:role="line">like readable English. Many desktop</tspan></text>
      <g
         transform="matrix(0.56089693,0,0,0.56089693,21.109268,74.100038)"
         id="g989">
        <g
           id="g985"
           transform="matrix(0.49467717,0,0,0.49467717,-64.451174,6.9838258)">
          <g
             id="g975"
             style="fill:#4d4d4d;stroke:none;stroke-width:0.0172682;stroke-miterlimit:4;stroke-dasharray:none"
             transform="matrix(15.32202,0,0,15.32202,83.046001,33.065321)">
            <title
               id="title969">Amphitheatre</title>
            <path
               id="path971"
               style="fill:#4d4d4d;stroke:none;stroke-width:0.0172682;stroke-miterlimit:4;stroke-dasharray:none"
               d="M 10.451041,2.2489583 A 0.92604166,0.92604166 0 0 1 9.5249996,3.175 0.92604166,0.92604166 0 0 1 8.598958,2.2489583 0.92604166,0.92604166 0 0 1 9.5249996,1.3229167 0.92604166,0.92604166 0 0 1 10.451041,2.2489583" />
            <path
               d="M 11.1125,3.571875 A 1.190625,1.190625 0 0 1 12.303125,4.7625 v 2.2489583 a 0.396875,0.396875 0 0 1 -0.79375,0 V 4.8947917 h -0.79375 v 2.778125 a 5.2916667,5.2916667 0 0 1 -2.38125,0 v -2.778125 h -0.79375 v 2.1166666 a 0.396875,0.396875 0 0 1 -0.79375,0 V 4.7625 A 1.190625,1.190625 0 0 1 7.9375,3.571875 Z"
               style="fill:#4d4d4d;stroke:none;stroke-width:0.0172682;stroke-miterlimit:4;stroke-dasharray:none"
               id="path973" />
          </g>
          <g
             transform="matrix(15.32202,0,0,15.32202,86.221003,33.065321)"
             style="fill:#e6e6e6;stroke:none;stroke-width:0.0172682;stroke-miterlimit:4;stroke-dasharray:none"
             id="g983">
            <title
               id="title977">Amphitheatre</title>
            <path
               d="M 10.451041,2.2489583 A 0.92604166,0.92604166 0 0 1 9.5249996,3.175 0.92604166,0.92604166 0 0 1 8.598958,2.2489583 0.92604166,0.92604166 0 0 1 9.5249996,1.3229167 0.92604166,0.92604166 0 0 1 10.451041,2.2489583"
               style="fill:#e6e6e6;stroke:none;stroke-width:0.0172682;stroke-miterlimit:4;stroke-dasharray:none"
               id="path979" />
            <path
               id="path981"
               style="fill:#e6e6e6;stroke:none;stroke-width:0.0172682;stroke-miterlimit:4;stroke-dasharray:none"
               d="M 11.1125,3.571875 A 1.190625,1.190625 0 0 1 12.303125,4.7625 v 2.2489583 a 0.396875,0.396875 0 0 1 -0.79375,0 V 4.8947917 h -0.79375 v 2.778125 a 5.2916667,5.2916667 0 0 1 -2.38125,0 v -2.778125 h -0.79375 v 2.1166666 a 0.396875,0.396875 0 0 1 -0.79375,0 V 4.7625 A 1.190625,1.190625 0 0 1 7.9375,3.571875 Z" />
          </g>
        </g>
        <rect
           style="opacity:1;fill:none;stroke:#000000;stroke-width:0.405906;stroke-linecap:round;paint-order:stroke markers fill"
           id="rect987"
           width="87.96151"
           height="87.96151"
           x="5.628624"
           y="13.965687"
           rx="0"
           ry="43.980755" />
      </g>
    </g>
    <text
       id="text1008"
       y="151.94154"
       x="21.048981"
       style="font-style:normal;font-variant:normal;font-weight:bold;font-stretch:normal;font-size:7.4087px;line-height:1.25;font-family:sans-serif;-inkscape-font-specification:'sans-serif Bold';stroke-width:0.375434"
       xml:space="preserve"><tspan
         style="font-style:normal;font-variant:normal;font-weight:bold;font-stretch:normal;font-family:sans-serif;-inkscape-font-specification:'sans-serif Bold';stroke-width:0.375434"
         y="151.94154"
         x="21.048981"
         id="tspan1006"
         sodipodi:role="line">Like readable </tspan></text>
    <text
       id="text1012"
       y="158.20724"
       x="23.198713"
       style="font-size:2.92856px;line-height:1.25;font-family:ringbearer;-inkscape-font-specification:ringbearer;stroke-width:0.148404"
       xml:space="preserve"><tspan
         style="font-style:normal;font-variant:normal;font-weight:normal;font-stretch:normal;font-family:sans-serif;-inkscape-font-specification:sans-serif;stroke-width:0.148404"
         y="158.20724"
         x="23.198713"
         id="tspan1010"
         sodipodi:role="line">like readable English. Many desktop</tspan></text>
  </g>
  <g
     style="display:inline"
     inkscape:label="menu_itens"
     id="layer2"
     inkscape:groupmode="layer" />
  <g
     style="display:inline"
     inkscape:groupmode="layer"
     id="layer4"
     inkscape:label="Descricao">
    <g
       transform="matrix(0.44075344,0,0,0.44075344,33.828783,95.20092)"
       id="g903">
      <rect
         style="fill:none;stroke:#333333;stroke-width:0.90943;stroke-linecap:round;stroke-linejoin:round"
         id="rect894"
         width="72.199944"
         height="24.066647"
         x="-0.29629663"
         y="154.07887"
         ry="12.033323" />
      <text
         xml:space="preserve"
         style="font-style:normal;font-weight:normal;font-size:13.5821px;line-height:1.25;font-family:sans-serif;fill:#000000;fill-opacity:1;stroke:none;stroke-width:0.339554"
         x="8.2746582"
         y="169.85922"
         id="text898"><tspan
           sodipodi:role="line"
           id="tspan896"
           x="8.2746582"
           y="169.85922"
           style="stroke-width:0.339554">Projetos</tspan></text>
    </g>
  </g>
</svg>
