<svg xmlns="http://www.w3.org/2000/svg" xmlns:svg="http://www.w3.org/2000/svg" id="svg8" width="375" height="667" version="1.1" viewBox="0 0 99.219 176.477"><defs id="defs2"><rect id="rect109" width="96.046" height="62.277" x="3.498" y="111.132"/><rect id="rect1055" width="278.761" height="103.879" x="17.123" y="86.826"/><rect id="rect890" width="144.052" height="38.627" x="14.435" y="82.962"/><rect id="rect870" width="113.602" height="24.862" x="14.059" y="44.049"/><symbol id="Restrooms"><title id="title2213">Restrooms</title><g style="stroke:none" id="g2225"><rect style="stroke-width:.264583" id="rect2215" width="1.323" height="12.7" x="8.864" y="3.175"/><circle style="stroke-width:.264583" id="circle2217" cx="5.159" cy="3.969" r="1.058"/><path style="stroke-width:.264583" id="path2219" d="m 5.0270833,11.773958 v 3.704167 a 0.52916667,0.52916667 0 0 1 -1.0583333,0 V 11.773958 H 2.6458333 L 4.1010417,6.8791667 H 3.8364583 l -0.79375,2.778125 A 0.48180625,0.48180625 0 0 1 2.1166667,9.3927083 l 0.9260416,-3.175 A 1.508125,1.2170833 0 0 1 4.4979167,5.2916667 h 1.3229166 a 1.508125,1.2170833 0 0 1 1.4552084,0.9260416 l 0.9260416,3.175 A 0.48180625,0.48180625 0 0 1 7.2760417,9.6572917 l -0.79375,-2.778125 H 6.2177083 L 7.6729167,11.773958 H 6.35 v 3.704167 a 0.52916667,0.52916667 0 0 1 -1.0583333,0 v -3.704167 z"/><circle style="stroke-width:.264583" id="circle2221" cx="13.891" cy="3.969" r="1.058"/><path style="stroke-width:.264583" id="path2223" d="m 11.377083,6.6145833 v 3.4395837 a 0.463021,0.463021 0 0 0 0.926042,0 V 7.0114583 h 0.264583 v 8.4005207 a 0.5953125,0.5953125 0 0 0 1.190625,0 v -4.960937 h 0.264584 v 4.960937 a 0.5953125,0.5953125 0 0 0 1.190625,0 V 7.0114583 h 0.264583 v 3.0427087 a 0.463021,0.463021 0 0 0 0.926042,0 V 6.6145833 A 1.3229167,1.3229167 0 0 0 15.08125,5.2916667 H 12.7 a 1.3229167,1.3229167 0 0 0 -1.322917,1.3229166 z"/></g></symbol><symbol id="Amphitheatre"><title id="title1462">Amphitheatre</title><circle style="stroke:none;stroke-width:.264583" id="circle1464" cx="9.525" cy="2.249" r=".926"/><path style="stroke:none;stroke-width:.264583" id="path1466" d="M 11.1125,3.571875 A 1.190625,1.190625 0 0 1 12.303125,4.7625 v 2.2489583 a 0.396875,0.396875 0 0 1 -0.79375,0 V 4.8947917 h -0.79375 v 2.778125 a 5.2916667,5.2916667 0 0 1 -2.38125,0 v -2.778125 h -0.79375 v 2.1166666 a 0.396875,0.396875 0 0 1 -0.79375,0 V 4.7625 A 1.190625,1.190625 0 0 1 7.9375,3.571875 Z"/><path style="fill:none;stroke-width:1.45521" id="path1468" d="m 13.520208,9.1016667 a 7.14375,7.14375 0 0 1 -7.9904163,0"/><path style="fill:none;stroke-width:1.45521" id="path1470" d="m 15.160625,11.509375 a 10.054167,10.054167 0 0 1 -11.27125,0"/><path style="fill:none;stroke-width:1.45521" id="path1472" d="m 16.774583,13.917083 a 12.964583,12.964583 0 0 1 -14.4991663,0"/></symbol><rect id="rect890-1" width="144.052" height="38.627" x="14.435" y="82.962"/><rect id="rect943" width="144.052" height="38.627" x="14.435" y="82.962"/><rect id="rect870-7" width="113.602" height="24.862" x="14.059" y="44.049"/><rect id="rect946" width="113.602" height="24.862" x="14.059" y="44.049"/></defs><metadata id="metadata5"/><g style="display:inline" id="layer1"><path style="fill:#4d4d4d;stroke:#4d4d4d;stroke-width:.449792;stroke-linecap:round;stroke-linejoin:round;stroke-miterlimit:4;stroke-dasharray:none;stroke-opacity:1;opacity:.32700376" id="path1014" d="M 3.9266705,142.44701 H 93.10026"/></g><g style="display:inline;opacity:1;mix-blend-mode:normal" id="layer3"><g id="g1043" transform="matrix(1.182937,0,0,1.182937,-9.0753894,-24.629036)"><g id="g963" transform="matrix(0.92364647,0,0,0.92364647,2.6773599,-7.9884872)"><text id="text101" x="21.276" y="91.764" xml:space="preserve" style="font-size:3.27509px;line-height:1.25;font-family:ringbearer;-inkscape-font-specification:ringbearer;stroke-width:.165964"><tspan style="font-style:normal;font-variant:normal;font-weight:400;font-stretch:normal;font-family:sans-serif;-inkscape-font-specification:sans-serif;stroke-width:.165964" id="tspan99" x="21.276" y="91.764">like readable English. Many desktop</tspan></text><g id="g948" transform="matrix(0.62726683,0,0,0.62726683,18.939193,22.557307)"><g id="g8589" transform="matrix(0.49467717,0,0,0.49467717,-64.451174,6.9838258)"><g id="g8579" transform="matrix(15.32202,0,0,15.32202,83.046001,33.065321)" style="fill:#4d4d4d;stroke:none;stroke-width:.0172682;stroke-miterlimit:4;stroke-dasharray:none"><title id="title8573">Amphitheatre</title><path id="path8575" d="M 10.451041,2.2489583 A 0.92604166,0.92604166 0 0 1 9.5249996,3.175 0.92604166,0.92604166 0 0 1 8.598958,2.2489583 0.92604166,0.92604166 0 0 1 9.5249996,1.3229167 0.92604166,0.92604166 0 0 1 10.451041,2.2489583" style="fill:#4d4d4d;stroke:none;stroke-width:.0172682;stroke-miterlimit:4;stroke-dasharray:none"/><path style="fill:#4d4d4d;stroke:none;stroke-width:.0172682;stroke-miterlimit:4;stroke-dasharray:none" id="path8577" d="M 11.1125,3.571875 A 1.190625,1.190625 0 0 1 12.303125,4.7625 v 2.2489583 a 0.396875,0.396875 0 0 1 -0.79375,0 V 4.8947917 h -0.79375 v 2.778125 a 5.2916667,5.2916667 0 0 1 -2.38125,0 v -2.778125 h -0.79375 v 2.1166666 a 0.396875,0.396875 0 0 1 -0.79375,0 V 4.7625 A 1.190625,1.190625 0 0 1 7.9375,3.571875 Z"/></g><g style="fill:#e6e6e6;stroke:none;stroke-width:.0172682;stroke-miterlimit:4;stroke-dasharray:none" id="use8536" transform="matrix(15.32202,0,0,15.32202,86.221003,33.065321)"><title id="title8558">Amphitheatre</title><path style="fill:#e6e6e6;stroke:none;stroke-width:.0172682;stroke-miterlimit:4;stroke-dasharray:none" id="circle8560" d="M 10.451041,2.2489583 A 0.92604166,0.92604166 0 0 1 9.5249996,3.175 0.92604166,0.92604166 0 0 1 8.598958,2.2489583 0.92604166,0.92604166 0 0 1 9.5249996,1.3229167 0.92604166,0.92604166 0 0 1 10.451041,2.2489583"/><path id="path8562" d="M 11.1125,3.571875 A 1.190625,1.190625 0 0 1 12.303125,4.7625 v 2.2489583 a 0.396875,0.396875 0 0 1 -0.79375,0 V 4.8947917 h -0.79375 v 2.778125 a 5.2916667,5.2916667 0 0 1 -2.38125,0 v -2.778125 h -0.79375 v 2.1166666 a 0.396875,0.396875 0 0 1 -0.79375,0 V 4.7625 A 1.190625,1.190625 0 0 1 7.9375,3.571875 Z" style="fill:#e6e6e6;stroke:none;stroke-width:.0172682;stroke-miterlimit:4;stroke-dasharray:none"/></g></g><rect style="opacity:1;fill:none;stroke:#000;stroke-width:.405906;stroke-linecap:round;paint-order:stroke markers fill" id="rect113" width="87.962" height="87.962" x="5.629" y="13.966" rx="0" ry="43.981"/></g></g><text id="text967" x="23.199" y="135.984" xml:space="preserve" style="font-size:2.92856px;line-height:1.25;font-family:ringbearer;-inkscape-font-specification:ringbearer;stroke-width:.148404"><tspan style="font-style:normal;font-variant:normal;font-weight:400;font-stretch:normal;font-family:sans-serif;-inkscape-font-specification:sans-serif;stroke-width:.148404" id="tspan965" x="23.199" y="135.984">like readable English. Many desktop</tspan></text><g id="g989" transform="matrix(0.56089693,0,0,0.56089693,21.109268,74.100038)"><g id="g985" transform="matrix(0.49467717,0,0,0.49467717,-64.451174,6.9838258)"><g id="g975" transform="matrix(15.32202,0,0,15.32202,83.046001,33.065321)" style="fill:#4d4d4d;stroke:none;stroke-width:.0172682;stroke-miterlimit:4;stroke-dasharray:none"><title id="title969">Amphitheatre</title><path id="path971" d="M 10.451041,2.2489583 A 0.92604166,0.92604166 0 0 1 9.5249996,3.175 0.92604166,0.92604166 0 0 1 8.598958,2.2489583 0.92604166,0.92604166 0 0 1 9.5249996,1.3229167 0.92604166,0.92604166 0 0 1 10.451041,2.2489583" style="fill:#4d4d4d;stroke:none;stroke-width:.0172682;stroke-miterlimit:4;stroke-dasharray:none"/><path style="fill:#4d4d4d;stroke:none;stroke-width:.0172682;stroke-miterlimit:4;stroke-dasharray:none" id="path973" d="M 11.1125,3.571875 A 1.190625,1.190625 0 0 1 12.303125,4.7625 v 2.2489583 a 0.396875,0.396875 0 0 1 -0.79375,0 V 4.8947917 h -0.79375 v 2.778125 a 5.2916667,5.2916667 0 0 1 -2.38125,0 v -2.778125 h -0.79375 v 2.1166666 a 0.396875,0.396875 0 0 1 -0.79375,0 V 4.7625 A 1.190625,1.190625 0 0 1 7.9375,3.571875 Z"/></g><g style="fill:#e6e6e6;stroke:none;stroke-width:.0172682;stroke-miterlimit:4;stroke-dasharray:none" id="g983" transform="matrix(15.32202,0,0,15.32202,86.221003,33.065321)"><title id="title977">Amphitheatre</title><path style="fill:#e6e6e6;stroke:none;stroke-width:.0172682;stroke-miterlimit:4;stroke-dasharray:none" id="path979" d="M 10.451041,2.2489583 A 0.92604166,0.92604166 0 0 1 9.5249996,3.175 0.92604166,0.92604166 0 0 1 8.598958,2.2489583 0.92604166,0.92604166 0 0 1 9.5249996,1.3229167 0.92604166,0.92604166 0 0 1 10.451041,2.2489583"/><path id="path981" d="M 11.1125,3.571875 A 1.190625,1.190625 0 0 1 12.303125,4.7625 v 2.2489583 a 0.396875,0.396875 0 0 1 -0.79375,0 V 4.8947917 h -0.79375 v 2.778125 a 5.2916667,5.2916667 0 0 1 -2.38125,0 v -2.778125 h -0.79375 v 2.1166666 a 0.396875,0.396875 0 0 1 -0.79375,0 V 4.7625 A 1.190625,1.190625 0 0 1 7.9375,3.571875 Z" style="fill:#e6e6e6;stroke:none;stroke-width:.0172682;stroke-miterlimit:4;stroke-dasharray:none"/></g></g><rect style="opacity:1;fill:none;stroke:#000;stroke-width:.405906;stroke-linecap:round;paint-order:stroke markers fill" id="rect987" width="87.962" height="87.962" x="5.629" y="13.966" rx="0" ry="43.981"/></g></g><text id="text1008" x="21.049" y="151.942" xml:space="preserve" style="font-style:normal;font-variant:normal;font-weight:700;font-stretch:normal;font-size:7.4087px;line-height:1.25;font-family:sans-serif;-inkscape-font-specification:'sans-serif Bold';stroke-width:.375434"><tspan style="font-style:normal;font-variant:normal;font-weight:700;font-stretch:normal;font-family:sans-serif;-inkscape-font-specification:'sans-serif Bold';stroke-width:.375434" id="tspan1006" x="21.049" y="151.942">Like readable</tspan></text><text id="text1012" x="23.199" y="158.207" xml:space="preserve" style="font-size:2.92856px;line-height:1.25;font-family:ringbearer;-inkscape-font-specification:ringbearer;stroke-width:.148404"><tspan style="font-style:normal;font-variant:normal;font-weight:400;font-stretch:normal;font-family:sans-serif;-inkscape-font-specification:sans-serif;stroke-width:.148404" id="tspan1010" x="23.199" y="158.207">like readable English. Many desktop</tspan></text></g><g style="display:inline" id="layer4"><g id="g903" transform="matrix(0.44075344,0,0,0.44075344,33.828783,95.20092)"><rect style="fill:none;stroke:#333;stroke-width:.90943;stroke-linecap:round;stroke-linejoin:round" id="rect894" width="72.2" height="24.067" x="-.296" y="154.079" ry="12.033"/><text style="font-style:normal;font-weight:400;font-size:13.5821px;line-height:1.25;font-family:sans-serif;fill:#000;fill-opacity:1;stroke:none;stroke-width:.339554" id="text898" x="8.275" y="169.859" xml:space="preserve"><tspan id="tspan896" x="8.275" y="169.859" style="stroke-width:.339554">Projetos</tspan></text></g></g></svg>