<svg xmlns="http://www.w3.org/2000/svg" xmlns:svg="http://www.w3.org/2000/svg" id="svg8" width="1280" height="720" version="1.1" viewBox="0 0 338.667 190.5"><defs id="defs2"><rect id="rect1043" width="156.113" height="20.821" x="7.231" y="89.544"/><rect id="rect890" width="144.052" height="38.627" x="14.435" y="82.962"/><rect id="rect870" width="113.602" height="24.862" x="14.059" y="44.049"/><symbol id="Restrooms"><title id="title2213">Restrooms</title><g id="g2225" style="stroke:none"><rect id="rect2215" width="1.323" height="12.7" x="8.864" y="3.175" style="stroke-width:.264583"/><circle id="circle2217" cx="5.159" cy="3.969" r="1.058" style="stroke-width:.264583"/><path id="path2219" d="m 5.0270833,11.773958 v 3.704167 a 0.52916667,0.52916667 0 0 1 -1.0583333,0 V 11.773958 H 2.6458333 L 4.1010417,6.8791667 H 3.8364583 l -0.79375,2.778125 A 0.48180625,0.48180625 0 0 1 2.1166667,9.3927083 l 0.9260416,-3.175 A 1.508125,1.2170833 0 0 1 4.4979167,5.2916667 h 1.3229166 a 1.508125,1.2170833 0 0 1 1.4552084,0.9260416 l 0.9260416,3.175 A 0.48180625,0.48180625 0 0 1 7.2760417,9.6572917 l -0.79375,-2.778125 H 6.2177083 L 7.6729167,11.773958 H 6.35 v 3.704167 a 0.52916667,0.52916667 0 0 1 -1.0583333,0 v -3.704167 z" style="stroke-width:.264583"/><circle id="circle2221" cx="13.891" cy="3.969" r="1.058" style="stroke-width:.264583"/><path id="path2223" d="m 11.377083,6.6145833 v 3.4395837 a 0.463021,0.463021 0 0 0 0.926042,0 V 7.0114583 h 0.264583 v 8.4005207 a 0.5953125,0.5953125 0 0 0 1.190625,0 v -4.960937 h 0.264584 v 4.960937 a 0.5953125,0.5953125 0 0 0 1.190625,0 V 7.0114583 h 0.264583 v 3.0427087 a 0.463021,0.463021 0 0 0 0.926042,0 V 6.6145833 A 1.3229167,1.3229167 0 0 0 15.08125,5.2916667 H 12.7 a 1.3229167,1.3229167 0 0 0 -1.322917,1.3229166 z" style="stroke-width:.264583"/></g></symbol><symbol id="Amphitheatre"><title id="title1462">Amphitheatre</title><circle id="circle1464" cx="9.525" cy="2.249" r=".926" style="stroke:none;stroke-width:.264583"/><path id="path1466" d="M 11.1125,3.571875 A 1.190625,1.190625 0 0 1 12.303125,4.7625 v 2.2489583 a 0.396875,0.396875 0 0 1 -0.79375,0 V 4.8947917 h -0.79375 v 2.778125 a 5.2916667,5.2916667 0 0 1 -2.38125,0 v -2.778125 h -0.79375 v 2.1166666 a 0.396875,0.396875 0 0 1 -0.79375,0 V 4.7625 A 1.190625,1.190625 0 0 1 7.9375,3.571875 Z" style="stroke:none;stroke-width:.264583"/><path id="path1468" d="m 13.520208,9.1016667 a 7.14375,7.14375 0 0 1 -7.9904163,0" style="fill:none;stroke-width:1.45521"/><path id="path1470" d="m 15.160625,11.509375 a 10.054167,10.054167 0 0 1 -11.27125,0" style="fill:none;stroke-width:1.45521"/><path id="path1472" d="m 16.774583,13.917083 a 12.964583,12.964583 0 0 1 -14.4991663,0" style="fill:none;stroke-width:1.45521"/></symbol><rect id="rect890-1" width="144.052" height="38.627" x="14.435" y="82.962"/><rect id="rect943" width="144.052" height="38.627" x="14.435" y="82.962"/><rect id="rect870-7" width="113.602" height="24.862" x="14.059" y="44.049"/><rect id="rect946" width="113.602" height="24.862" x="14.059" y="44.049"/><rect id="rect1081" width="156.113" height="20.821" x="7.231" y="89.544"/></defs><metadata id="metadata5"/><g style="display:inline" id="layer5"><rect id="rect1351" width="424.616" height="241.7" x="-36.476" y="-17.433" ry="7.271" style="fill:#fff;stroke:none;stroke-width:.677985;stroke-linecap:round;stroke-linejoin:round"/></g><g id="layer4" style="display:inline"><g id="g1059" transform="translate(0,0.73530152)"><path id="rect28" d="M 0.36805568,0.36805668 H 338.60476 V 188.66135 L 0.36805568,137.58723 Z" style="display:inline;fill:none;fill-opacity:1;stroke:#4d4d4d;stroke-width:.736112;stroke-linecap:round;stroke-linejoin:round;stroke-miterlimit:4;stroke-dasharray:none;stroke-opacity:1"/><g id="text868" aria-label="Hey, I’m ...." transform="matrix(2.0884075,0,0,2.0884075,45.150474,-39.797898)" style="font-style:normal;font-weight:400;font-size:10.5833px;line-height:1.25;font-family:sans-serif;white-space:pre;shape-inside:url(#rect870-7);mix-blend-mode:normal;fill:#000;fill-opacity:1;stroke:none"><text style="font-size:17.6224px;line-height:1.25;font-family:sans-serif;stroke-width:.236013" id="text966" x="24.696" y="53.696" xml:space="preserve"><tspan id="tspan964" x="24.696" y="53.696" style="font-size:17.6224px;stroke-width:.236013">Contato</tspan></text></g><g id="text888" aria-label="Lorem Ipsum is simply dummy text of the printing and typesetting industry." transform="translate(88.197083,5.8008137)" style="font-style:normal;font-weight:400;font-size:10.5833px;line-height:1.25;font-family:sans-serif;white-space:pre;shape-inside:url(#rect890-1);fill:#4d4d4d;fill-opacity:1;stroke:none"><text style="font-size:7.05556px;line-height:1.25;font-family:sans-serif;white-space:pre;shape-inside:url(#rect1043)" id="text1041" x="74.857" y="0" transform="matrix(1.1268596,0,0,1.1268596,-11.134269,-13.54154)" xml:space="preserve"><tspan x="10.1" y="95.785"><tspan style="text-align:center;text-anchor:middle">Humour, or randomised words which don&apos;t </tspan></tspan><tspan x="33.895" y="104.605"><tspan style="text-align:center;text-anchor:middle">look even slightly believable.</tspan></tspan></text></g></g></g><g id="layer1" style="display:none"><g id="g1176" transform="matrix(1.2397719,0,0,0.58591304,-40.6135,0.27347351)"><rect id="rect1157" width="216.535" height="89.218" x="61.116" y=".131" ry="3.704" style="fill:#5eaa5e;fill-opacity:1;stroke:#5eaa5e;stroke-width:1.21708;stroke-linecap:butt;stroke-miterlimit:2.3;stroke-dasharray:none;stroke-opacity:1;paint-order:markers stroke fill"/><path style="fill:#e6e6e6;fill-opacity:1;stroke:none;stroke-width:1.23133;stroke-linecap:butt;stroke-miterlimit:2.3;stroke-dasharray:none;stroke-opacity:1;paint-order:markers stroke fill" id="rect1159" d="M 278.24301,2.4770536 V 93.299734 H 60.524801 V 2.4770536"/></g><text style="font-size:4.78444px;line-height:1.25;font-family:sans-serif;stroke-width:.179416" id="text1145" x="161.696" y="13.75" xml:space="preserve"><tspan id="tspan1143" x="161.696" y="13.75" style="font-weight:400;stroke-width:.179416">Status</tspan></text><text id="text1149" x="147.007" y="25.139" xml:space="preserve" style="font-size:8.57002px;line-height:1.25;font-family:sans-serif;opacity:.592038;fill:green;fill-opacity:1;stroke:none;stroke-width:.321262;stroke-miterlimit:4;stroke-dasharray:none;stroke-opacity:1"><tspan style="font-weight:400;fill:green;fill-opacity:1;stroke:none;stroke-width:.321262;stroke-miterlimit:4;stroke-dasharray:none;stroke-opacity:1" id="tspan1147" x="147.007" y="25.139">Disponível</tspan></text><text id="text1153" x="141.741" y="34.519" xml:space="preserve" style="font-size:4.78444px;line-height:1.25;font-family:sans-serif;fill:gray;stroke:none;stroke-width:.179416"><tspan style="font-weight:400;fill:gray;stroke:none;stroke-width:.179416" id="tspan1151" x="141.741" y="34.519">Neque porro quisquam</tspan></text><rect style="fill:#e6e6e6;fill-opacity:1;stroke:gray;stroke-width:1.02651;stroke-linecap:butt;stroke-miterlimit:2.3;stroke-dasharray:none;stroke-opacity:1;paint-order:markers stroke fill" id="rect1189" width="97.153" height="16.32" x="35.015" y="62.898" ry="1.94"/><rect id="rect1193" width="136.635" height="16.166" x="167.006" y="62.98" ry="1.922" style="fill:#e6e6e6;fill-opacity:1;stroke:gray;stroke-width:1.21162;stroke-linecap:butt;stroke-miterlimit:2.3;stroke-dasharray:none;stroke-opacity:1;paint-order:markers stroke fill"/><text style="font-size:7.06036px;line-height:1.25;font-family:sans-serif;fill:#666;stroke-width:.264763" id="text1206" x="37.513" y="73.628" xml:space="preserve"><tspan id="tspan1204" x="37.513" y="73.628" style="fill:#666;stroke-width:.264763">NOME</tspan></text><text id="text1210" x="169.411" y="73.632" xml:space="preserve" style="font-size:7.06036px;line-height:1.25;font-family:sans-serif;fill:#666;stroke-width:.264763"><tspan style="fill:#666;stroke-width:.264763" id="tspan1208" x="169.411" y="73.632">EMAIL</tspan></text><rect style="fill:#e6e6e6;fill-opacity:1;stroke:gray;stroke-width:3.16607;stroke-linecap:butt;stroke-miterlimit:2.3;stroke-dasharray:none;stroke-opacity:1;paint-order:markers stroke fill" id="rect1212" width="267.356" height="56.416" x="35.706" y="99.347" ry="2.922"/><text style="font-size:7.06036px;line-height:1.25;font-family:sans-serif;fill:#666;stroke-width:.264763" id="text1220" x="37.81" y="95.714" xml:space="preserve"><tspan id="tspan1218" x="37.81" y="95.714" style="fill:#666;stroke-width:.264763">COMO POSSO AJUDAR ?</tspan></text><rect id="rect894" width="51.983" height="17.328" x="143.392" y="165.082" ry="8.664" style="opacity:.503713;fill:teal;stroke:none;stroke-width:.654783;stroke-linecap:round;stroke-linejoin:round"/><text id="text898" x="153.457" y="177.391" xml:space="preserve" style="font-style:normal;font-weight:400;font-size:9.77901px;line-height:1.25;font-family:sans-serif;fill:#1a1a1a;fill-opacity:1;stroke:none;stroke-width:.244476"><tspan style="fill:#1a1a1a;stroke-width:.244476" id="tspan896" x="153.457" y="177.391">Enviar</tspan></text></g></svg>