<svg xmlns="http://www.w3.org/2000/svg" xmlns:svg="http://www.w3.org/2000/svg" xmlns:xlink="http://www.w3.org/1999/xlink" id="svg8" width="1280" height="720" version="1.1" viewBox="0 0 338.667 190.5"><defs id="defs2"><linearGradient id="linearGradient9800"><stop id="stop9796" offset="0" style="stop-color:#333;stop-opacity:1"/><stop id="stop9798" offset="1" style="stop-color:#333;stop-opacity:0"/></linearGradient><rect id="rect890" width="144.052" height="38.627" x="14.435" y="82.962"/><rect id="rect870" width="113.602" height="24.862" x="14.059" y="44.049"/><symbol id="Restrooms"><title id="title2213">Restrooms</title><g style="stroke:none" id="g2225"><rect style="stroke-width:.264583" id="rect2215" width="1.323" height="12.7" x="8.864" y="3.175"/><circle style="stroke-width:.264583" id="circle2217" cx="5.159" cy="3.969" r="1.058"/><path style="stroke-width:.264583" id="path2219" d="m 5.0270833,11.773958 v 3.704167 a 0.52916667,0.52916667 0 0 1 -1.0583333,0 V 11.773958 H 2.6458333 L 4.1010417,6.8791667 H 3.8364583 l -0.79375,2.778125 A 0.48180625,0.48180625 0 0 1 2.1166667,9.3927083 l 0.9260416,-3.175 A 1.508125,1.2170833 0 0 1 4.4979167,5.2916667 h 1.3229166 a 1.508125,1.2170833 0 0 1 1.4552084,0.9260416 l 0.9260416,3.175 A 0.48180625,0.48180625 0 0 1 7.2760417,9.6572917 l -0.79375,-2.778125 H 6.2177083 L 7.6729167,11.773958 H 6.35 v 3.704167 a 0.52916667,0.52916667 0 0 1 -1.0583333,0 v -3.704167 z"/><circle style="stroke-width:.264583" id="circle2221" cx="13.891" cy="3.969" r="1.058"/><path style="stroke-width:.264583" id="path2223" d="m 11.377083,6.6145833 v 3.4395837 a 0.463021,0.463021 0 0 0 0.926042,0 V 7.0114583 h 0.264583 v 8.4005207 a 0.5953125,0.5953125 0 0 0 1.190625,0 v -4.960937 h 0.264584 v 4.960937 a 0.5953125,0.5953125 0 0 0 1.190625,0 V 7.0114583 h 0.264583 v 3.0427087 a 0.463021,0.463021 0 0 0 0.926042,0 V 6.6145833 A 1.3229167,1.3229167 0 0 0 15.08125,5.2916667 H 12.7 a 1.3229167,1.3229167 0 0 0 -1.322917,1.3229166 z"/></g></symbol><symbol id="Amphitheatre"><title id="title1462">Amphitheatre</title><circle style="stroke:none;stroke-width:.264583" id="circle1464" cx="9.525" cy="2.249" r=".926"/><path style="stroke:none;stroke-width:.264583" id="path1466" d="M 11.1125,3.571875 A 1.190625,1.190625 0 0 1 12.303125,4.7625 v 2.2489583 a 0.396875,0.396875 0 0 1 -0.79375,0 V 4.8947917 h -0.79375 v 2.778125 a 5.2916667,5.2916667 0 0 1 -2.38125,0 v -2.778125 h -0.79375 v 2.1166666 a 0.396875,0.396875 0 0 1 -0.79375,0 V 4.7625 A 1.190625,1.190625 0 0 1 7.9375,3.571875 Z"/><path style="fill:none;stroke-width:1.45521" id="path1468" d="m 13.520208,9.1016667 a 7.14375,7.14375 0 0 1 -7.9904163,0"/><path style="fill:none;stroke-width:1.45521" id="path1470" d="m 15.160625,11.509375 a 10.054167,10.054167 0 0 1 -11.27125,0"/><path style="fill:none;stroke-width:1.45521" id="path1472" d="m 16.774583,13.917083 a 12.964583,12.964583 0 0 1 -14.4991663,0"/></symbol><rect id="rect890-1" width="144.052" height="38.627" x="14.435" y="82.962"/><rect id="rect943" width="144.052" height="38.627" x="14.435" y="82.962"/><rect id="rect870-7" width="113.602" height="24.862" x="14.059" y="44.049"/><rect id="rect946" width="113.602" height="24.862" x="14.059" y="44.049"/><symbol id="LogicalAnd"><title id="title1372">Logical And</title><desc id="desc1374">Summing junction. Shows when multiple branches converge.</desc><circle style="stroke-width:2" id="circle1376" cx="75" cy="75" r="20"/><path style="stroke-width:2" id="path1378" d="m 61,61 28,28"/><path style="stroke-width:2" id="path1380" d="m 61,89 28,-28"/></symbol><symbol id="Core"><title id="title1310">Core</title><desc id="desc1312">Core memory. (ISO)</desc><rect style="stroke-width:2" id="rect1314" width="80" height="80" x="35" y="35"/><path style="stroke-width:2" id="path1316" d="m 35,50 80,0"/><path style="stroke-width:2" id="path1318" d="m 50,35 0,80"/></symbol><linearGradient id="linearGradient9802" x1="167.203" x2="169.529" y1="62.757" y2="189.149" gradientUnits="userSpaceOnUse" xlink:href="#linearGradient9800"/></defs><metadata id="metadata5"/><g id="layer5" style="display:inline"><rect style="fill:#fff;stroke:none;stroke-width:.677985;stroke-linecap:round;stroke-linejoin:round" id="rect1351" width="424.616" height="241.7" x="-36.476" y="-17.433" ry="7.271"/></g><g style="display:inline;opacity:1;mix-blend-mode:normal" id="layer3"><rect id="rect9612" width="337.988" height="113.336" x=".533" y="30.279" ry="0" style="display:inline;opacity:.354203;mix-blend-mode:normal;fill:url(#linearGradient9802);fill-opacity:1;stroke:#ccc;stroke-width:.233228;stroke-linecap:square;stroke-linejoin:miter;stroke-miterlimit:4;stroke-dasharray:none;stroke-dashoffset:0"/></g><g style="display:inline" id="layer1"><text id="text9663" x="227.381" y="70.261" transform="matrix(0.70889953,0,0,0.70889953,-71.46374,20.954504)" xml:space="preserve" style="font-style:normal;font-weight:400;font-size:10.5833px;line-height:1.25;font-family:sans-serif;white-space:pre;inline-size:224.1;display:inline;opacity:1;mix-blend-mode:normal;fill:#000;fill-opacity:1;stroke:none;stroke-width:.264583"><tspan x="227.381" y="70.261"><tspan style="text-align:center;text-anchor:middle;stroke-width:.264583">Lorem Ipsum is simply dummy text of the </tspan></tspan><tspan x="227.381" y="83.49"><tspan style="text-align:center;text-anchor:middle;stroke-width:.264583">printing and typesetting industrLorem </tspan></tspan><tspan x="227.381" y="96.719"><tspan style="text-align:center;text-anchor:middle;stroke-width:.264583">Ipsum is simply dummy text of the </tspan></tspan><tspan x="227.381" y="109.948"><tspan style="text-align:center;text-anchor:middle;stroke-width:.264583">printing and typesetting industry.y.</tspan></tspan></text><text id="text9759" x="128.386" y="56.35" xml:space="preserve" style="font-size:12.004px;line-height:1.25;font-family:sans-serif;stroke-width:.187563"><tspan style="font-size:12.004px;stroke-width:.187563" id="tspan9757" x="128.386" y="56.35">Lorem Ipsum!</tspan></text></g><g style="display:inline" id="layer4"><rect id="rect9786" width="297.764" height="82.733" x="20.645" y="107.713" ry="10.104" style="opacity:1;fill:#fff;stroke:#fff;stroke-width:1.01911;stroke-linecap:square;stroke-linejoin:miter;stroke-miterlimit:2.3;stroke-dasharray:none;stroke-dashoffset:0"/></g><g id="layer6"><g id="g9952"><rect style="fill:none;stroke:#4d4d4d;stroke-width:1.09088;stroke-linecap:square;stroke-linejoin:miter;stroke-miterlimit:2.3;stroke-dasharray:none;stroke-dashoffset:0" id="rect9805" width="43.957" height="43.957" x="37.777" y="131.032"/><text style="font-size:73.5446px;line-height:1.25;font-family:sans-serif;fill:none;stroke:#999;stroke-width:2.75792" id="text9809" x="38.138" y="173.121" xml:space="preserve"><tspan id="tspan9807" x="38.138" y="173.121" style="fill:none;stroke:#999;stroke-width:2.75792">x</tspan></text><rect id="rect9822" width="43.957" height="43.957" x="110.958" y="131.032" style="fill:none;stroke:#4d4d4d;stroke-width:1.09088;stroke-linecap:square;stroke-linejoin:miter;stroke-miterlimit:2.3;stroke-dasharray:none;stroke-dashoffset:0"/><text id="text9826" x="111.318" y="173.121" xml:space="preserve" style="font-size:73.5446px;line-height:1.25;font-family:sans-serif;fill:none;stroke:#999;stroke-width:2.75792"><tspan style="fill:none;stroke:#999;stroke-width:2.75792" id="tspan9824" x="111.318" y="173.121">x</tspan></text><rect style="fill:none;stroke:#4d4d4d;stroke-width:1.09088;stroke-linecap:square;stroke-linejoin:miter;stroke-miterlimit:2.3;stroke-dasharray:none;stroke-dashoffset:0" id="rect9832" width="43.957" height="43.957" x="184.138" y="131.032"/><text style="font-size:73.5446px;line-height:1.25;font-family:sans-serif;fill:none;stroke:#999;stroke-width:2.75792" id="text9836" x="184.499" y="173.121" xml:space="preserve"><tspan id="tspan9834" x="184.499" y="173.121" style="fill:none;stroke:#999;stroke-width:2.75792">x</tspan></text><rect id="rect9842" width="43.957" height="43.957" x="257.319" y="131.032" style="fill:none;stroke:#4d4d4d;stroke-width:1.09088;stroke-linecap:square;stroke-linejoin:miter;stroke-miterlimit:2.3;stroke-dasharray:none;stroke-dashoffset:0"/><text id="text9846" x="257.679" y="173.121" xml:space="preserve" style="font-size:73.5446px;line-height:1.25;font-family:sans-serif;fill:none;stroke:#999;stroke-width:2.75792"><tspan style="fill:none;stroke:#999;stroke-width:2.75792" id="tspan9844" x="257.679" y="173.121">x</tspan></text></g></g><g style="display:inline;opacity:1" id="layer2"><g id="g9765" transform="translate(0,-27.72732)"><rect id="rect9604" width="99.688" height="28.338" x="118.38" y="27.727" ry="0" style="opacity:.697037;fill:#ff0;stroke:none;stroke-width:.435683;stroke-linecap:square;stroke-linejoin:miter;stroke-miterlimit:2.3;stroke-dasharray:none;stroke-dashoffset:0"/><rect style="opacity:1;fill:none;stroke:#1a1a1a;stroke-width:.773324;stroke-linecap:square;stroke-linejoin:miter;stroke-miterlimit:2.3;stroke-dasharray:none;stroke-dashoffset:0" id="rect9553" width="99.688" height="28.338" x="120.599" y="29.391" ry="0"/><text style="font-style:normal;font-weight:400;font-size:8.66098px;line-height:1.25;font-family:sans-serif;opacity:1;fill:#000;fill-opacity:1;stroke:#4d4d4d;stroke-width:.216525" id="text9592" x="121.949" y="46.713" xml:space="preserve"><tspan id="tspan9590" x="121.949" y="46.713" style="fill:#000;stroke:#4d4d4d;stroke-width:.216525">IMG SECTION CURSOS</tspan></text></g></g></svg>