<svg xmlns="http://www.w3.org/2000/svg" xmlns:svg="http://www.w3.org/2000/svg" id="svg8" width="1280" height="720" version="1.1" viewBox="0 0 338.667 190.5"><defs id="defs2"><rect id="rect976" width="86.123" height="16.285" x="64.679" y="75.462"/><rect id="rect890" width="144.052" height="38.627" x="14.435" y="82.962"/><rect id="rect870" width="113.602" height="24.862" x="14.059" y="44.049"/><symbol id="Restrooms"><title id="title2213">Restrooms</title><g id="g2225" style="stroke:none"><rect id="rect2215" width="1.323" height="12.7" x="8.864" y="3.175" style="stroke-width:.264583"/><circle id="circle2217" cx="5.159" cy="3.969" r="1.058" style="stroke-width:.264583"/><path id="path2219" d="m 5.0270833,11.773958 v 3.704167 a 0.52916667,0.52916667 0 0 1 -1.0583333,0 V 11.773958 H 2.6458333 L 4.1010417,6.8791667 H 3.8364583 l -0.79375,2.778125 A 0.48180625,0.48180625 0 0 1 2.1166667,9.3927083 l 0.9260416,-3.175 A 1.508125,1.2170833 0 0 1 4.4979167,5.2916667 h 1.3229166 a 1.508125,1.2170833 0 0 1 1.4552084,0.9260416 l 0.9260416,3.175 A 0.48180625,0.48180625 0 0 1 7.2760417,9.6572917 l -0.79375,-2.778125 H 6.2177083 L 7.6729167,11.773958 H 6.35 v 3.704167 a 0.52916667,0.52916667 0 0 1 -1.0583333,0 v -3.704167 z" style="stroke-width:.264583"/><circle id="circle2221" cx="13.891" cy="3.969" r="1.058" style="stroke-width:.264583"/><path id="path2223" d="m 11.377083,6.6145833 v 3.4395837 a 0.463021,0.463021 0 0 0 0.926042,0 V 7.0114583 h 0.264583 v 8.4005207 a 0.5953125,0.5953125 0 0 0 1.190625,0 v -4.960937 h 0.264584 v 4.960937 a 0.5953125,0.5953125 0 0 0 1.190625,0 V 7.0114583 h 0.264583 v 3.0427087 a 0.463021,0.463021 0 0 0 0.926042,0 V 6.6145833 A 1.3229167,1.3229167 0 0 0 15.08125,5.2916667 H 12.7 a 1.3229167,1.3229167 0 0 0 -1.322917,1.3229166 z" style="stroke-width:.264583"/></g></symbol><symbol id="Amphitheatre"><title id="title1462">Amphitheatre</title><circle id="circle1464" style="stroke:none;stroke-width:.264583" cx="9.525" cy="2.249" r=".926"/><path id="path1466" style="stroke:none;stroke-width:.264583" d="M 11.1125,3.571875 A 1.190625,1.190625 0 0 1 12.303125,4.7625 v 2.2489583 a 0.396875,0.396875 0 0 1 -0.79375,0 V 4.8947917 h -0.79375 v 2.778125 a 5.2916667,5.2916667 0 0 1 -2.38125,0 v -2.778125 h -0.79375 v 2.1166666 a 0.396875,0.396875 0 0 1 -0.79375,0 V 4.7625 A 1.190625,1.190625 0 0 1 7.9375,3.571875 Z"/><path id="path1468" style="fill:none;stroke-width:1.45521" d="m 13.520208,9.1016667 a 7.14375,7.14375 0 0 1 -7.9904163,0"/><path id="path1470" style="fill:none;stroke-width:1.45521" d="m 15.160625,11.509375 a 10.054167,10.054167 0 0 1 -11.27125,0"/><path id="path1472" style="fill:none;stroke-width:1.45521" d="m 16.774583,13.917083 a 12.964583,12.964583 0 0 1 -14.4991663,0"/></symbol><rect id="rect890-1" width="144.052" height="38.627" x="14.435" y="82.962"/><rect id="rect943" width="144.052" height="38.627" x="14.435" y="82.962"/><rect id="rect870-7" width="113.602" height="24.862" x="14.059" y="44.049"/><rect id="rect946" width="113.602" height="24.862" x="14.059" y="44.049"/></defs><metadata id="metadata5"/><g style="display:inline" id="layer5"><rect id="rect1351" width="424.616" height="241.7" x="-36.476" y="-17.433" ry="7.271" style="fill:#fff;stroke:none;stroke-width:.677985;stroke-linecap:round;stroke-linejoin:round"/></g><g style="display:inline" id="layer2"><path d="M 338.60476,190.33321 H 0.36805568 V 0.36805071 L 338.60476,51.895661 Z" style="display:inline;opacity:1;fill:#b3b3b3;fill-opacity:1;stroke:#000;stroke-width:.238125;stroke-linecap:round;stroke-linejoin:round;stroke-miterlimit:4;stroke-dasharray:none;stroke-opacity:1" id="rect28"/><rect style="opacity:1;fill:#333;stroke:#1a1a1a;stroke-width:.818658;stroke-miterlimit:4;stroke-dasharray:none;paint-order:markers stroke fill" id="rect960" width="338.237" height="25.909" x=".368" y="164.424"/><text xml:space="preserve" style="font-size:7.05556px;line-height:1.25;font-family:sans-serif;fill:#e6e6e6;stroke:#e6e6e6;stroke-width:.264583" id="text964" x="120.886" y="179.325"><tspan id="tspan962" x="120.886" y="179.325" style="fill:#e6e6e6;stroke:#e6e6e6;stroke-width:.264583">© 2020 All rights reserved.</tspan></text><text xml:space="preserve" style="font-size:10.5532px;line-height:1.25;font-family:sans-serif;fill:#1a1a1a;stroke:#000;stroke-width:.395744" id="text968" x="79.038" y="57.732"><tspan x="79.038" y="57.732" style="text-align:center;text-anchor:middle;fill:#1a1a1a;stroke:#000;stroke-width:.395744" id="tspan972">Vamos Trabalhar Juntos</tspan></text><text id="text986" x="79.075" y="79.606" style="font-size:6.96346px;line-height:1.25;font-family:sans-serif;fill:#999;stroke:#999;stroke-width:.26113" xml:space="preserve"><tspan id="tspan982" style="text-align:center;text-anchor:middle;fill:#999;stroke:#999;stroke-width:.26113" x="79.075" y="79.606">Tem algum projeto em mente ?</tspan></text><rect style="opacity:1;fill:#000;stroke:#000;stroke-width:.952359;stroke-miterlimit:4;stroke-dasharray:none;paint-order:markers stroke fill" id="rect990" width="87.119" height="29.018" x="35.262" y="101.611" ry="14.509"/><g id="g1065" transform="matrix(0.87203232,0,0,0.87203232,43.593004,20.700644)"><g id="g1001"><rect style="opacity:1;fill:none;stroke:#000;stroke-width:.0887982;stroke-miterlimit:4;stroke-dasharray:none;paint-order:markers stroke fill" id="rect992" width="12.375" height="11.138" x="229.369" y="74.499"/><text xml:space="preserve" style="font-size:20.1638px;line-height:1.25;font-family:sans-serif;fill:none;stroke:#000;stroke-width:.0943122;stroke-miterlimit:4;stroke-dasharray:none" id="text996" x="229.63" y="85.582"><tspan id="tspan994" x="229.63" y="85.582" style="fill:none;stroke:#000;stroke-width:.0943122;stroke-miterlimit:4;stroke-dasharray:none">x</tspan></text></g><text id="text1005" x="247.749" y="82.699" style="font-size:7.05556px;line-height:1.25;font-family:sans-serif;stroke-width:.264583" xml:space="preserve"><tspan style="stroke-width:.264583" id="tspan1003" x="247.749" y="82.699">github</tspan></text></g><g id="g1057" transform="matrix(0.87203232,0,0,0.87203232,43.593004,38.912991)"><g id="g1013" transform="translate(0,26.987511)"><rect id="rect1007" width="12.375" height="11.138" x="229.369" y="74.499" style="opacity:1;fill:none;stroke:#000;stroke-width:.0887982;stroke-miterlimit:4;stroke-dasharray:none;paint-order:markers stroke fill"/><text id="text1011" x="229.63" y="85.582" style="font-size:20.1638px;line-height:1.25;font-family:sans-serif;fill:none;stroke:#000;stroke-width:.0943122;stroke-miterlimit:4;stroke-dasharray:none" xml:space="preserve"><tspan style="fill:none;stroke:#000;stroke-width:.0943122;stroke-miterlimit:4;stroke-dasharray:none" id="tspan1009" x="229.63" y="85.582">x</tspan></text></g><text xml:space="preserve" style="font-size:7.05556px;line-height:1.25;font-family:sans-serif;stroke-width:.264583" id="text1017" x="247.749" y="109.686"><tspan id="tspan1015" x="247.749" y="109.686" style="stroke-width:.264583">instagram</tspan></text></g><g id="g1049" transform="matrix(0.87203232,0,0,0.87203232,43.593004,-6.4170625)"><g id="g1025" transform="translate(0,55.033362)"><rect style="opacity:1;fill:none;stroke:#000;stroke-width:.0887982;stroke-miterlimit:4;stroke-dasharray:none;paint-order:markers stroke fill" id="rect1019" width="12.375" height="11.138" x="229.369" y="74.499"/><text xml:space="preserve" style="font-size:20.1638px;line-height:1.25;font-family:sans-serif;fill:none;stroke:#000;stroke-width:.0943122;stroke-miterlimit:4;stroke-dasharray:none" id="text1023" x="229.63" y="85.582"><tspan id="tspan1021" x="229.63" y="85.582" style="fill:none;stroke:#000;stroke-width:.0943122;stroke-miterlimit:4;stroke-dasharray:none">x</tspan></text></g><text id="text1029" x="247.749" y="137.732" style="font-size:7.05556px;line-height:1.25;font-family:sans-serif;stroke-width:.264583" xml:space="preserve"><tspan style="stroke-width:.264583" id="tspan1027" x="247.749" y="137.732">twitter</tspan></text></g><g id="g1073" transform="matrix(0.87203232,0,0,0.87203232,43.593004,20.592758)"><g id="g1037" transform="translate(0,-23.812509)"><rect id="rect1031" width="12.375" height="11.138" x="229.369" y="74.499" style="opacity:1;fill:none;stroke:#000;stroke-width:.0887982;stroke-miterlimit:4;stroke-dasharray:none;paint-order:markers stroke fill"/><text id="text1035" x="229.63" y="85.582" style="font-size:20.1638px;line-height:1.25;font-family:sans-serif;fill:none;stroke:#000;stroke-width:.0943122;stroke-miterlimit:4;stroke-dasharray:none" xml:space="preserve"><tspan style="fill:none;stroke:#000;stroke-width:.0943122;stroke-miterlimit:4;stroke-dasharray:none" id="tspan1033" x="229.63" y="85.582">x</tspan></text></g><text xml:space="preserve" style="font-size:7.05556px;line-height:1.25;font-family:sans-serif;stroke-width:.264583" id="text1041" x="247.749" y="58.886"><tspan id="tspan1039" x="247.749" y="58.886" style="stroke-width:.264583">email</tspan></text></g><text id="text1079" x="78.812" y="120.912" style="font-size:13.1627px;line-height:1.25;font-family:sans-serif;fill:#fff;stroke:#fff;stroke-width:.493598" xml:space="preserve"><tspan id="tspan1075" style="text-align:center;text-anchor:middle;fill:#fff;stroke:#fff;stroke-width:.493598" x="78.812" y="120.912">Contato</tspan></text></g></svg>