<svg xmlns="http://www.w3.org/2000/svg" xmlns:svg="http://www.w3.org/2000/svg" id="svg8" width="1280" height="720" version="1.1" viewBox="0 0 338.667 190.5"><defs id="defs2"><rect id="rect889" width="88.116" height="35.978" x="41.35" y="118.307"/><rect id="rect890" width="144.052" height="38.627" x="14.435" y="82.962"/><rect id="rect870" width="113.602" height="24.862" x="14.059" y="44.049"/><symbol id="Restrooms"><title id="title2213">Restrooms</title><g style="stroke:none" id="g2225"><rect style="stroke-width:.264583" id="rect2215" width="1.323" height="12.7" x="8.864" y="3.175"/><circle style="stroke-width:.264583" id="circle2217" cx="5.159" cy="3.969" r="1.058"/><path style="stroke-width:.264583" id="path2219" d="m 5.0270833,11.773958 v 3.704167 a 0.52916667,0.52916667 0 0 1 -1.0583333,0 V 11.773958 H 2.6458333 L 4.1010417,6.8791667 H 3.8364583 l -0.79375,2.778125 A 0.48180625,0.48180625 0 0 1 2.1166667,9.3927083 l 0.9260416,-3.175 A 1.508125,1.2170833 0 0 1 4.4979167,5.2916667 h 1.3229166 a 1.508125,1.2170833 0 0 1 1.4552084,0.9260416 l 0.9260416,3.175 A 0.48180625,0.48180625 0 0 1 7.2760417,9.6572917 l -0.79375,-2.778125 H 6.2177083 L 7.6729167,11.773958 H 6.35 v 3.704167 a 0.52916667,0.52916667 0 0 1 -1.0583333,0 v -3.704167 z"/><circle style="stroke-width:.264583" id="circle2221" cx="13.891" cy="3.969" r="1.058"/><path style="stroke-width:.264583" id="path2223" d="m 11.377083,6.6145833 v 3.4395837 a 0.463021,0.463021 0 0 0 0.926042,0 V 7.0114583 h 0.264583 v 8.4005207 a 0.5953125,0.5953125 0 0 0 1.190625,0 v -4.960937 h 0.264584 v 4.960937 a 0.5953125,0.5953125 0 0 0 1.190625,0 V 7.0114583 h 0.264583 v 3.0427087 a 0.463021,0.463021 0 0 0 0.926042,0 V 6.6145833 A 1.3229167,1.3229167 0 0 0 15.08125,5.2916667 H 12.7 a 1.3229167,1.3229167 0 0 0 -1.322917,1.3229166 z"/></g></symbol><symbol id="Amphitheatre"><title id="title1462">Amphitheatre</title><circle style="stroke:none;stroke-width:.264583" id="circle1464" cx="9.525" cy="2.249" r=".926"/><path style="stroke:none;stroke-width:.264583" id="path1466" d="M 11.1125,3.571875 A 1.190625,1.190625 0 0 1 12.303125,4.7625 v 2.2489583 a 0.396875,0.396875 0 0 1 -0.79375,0 V 4.8947917 h -0.79375 v 2.778125 a 5.2916667,5.2916667 0 0 1 -2.38125,0 v -2.778125 h -0.79375 v 2.1166666 a 0.396875,0.396875 0 0 1 -0.79375,0 V 4.7625 A 1.190625,1.190625 0 0 1 7.9375,3.571875 Z"/><path style="fill:none;stroke-width:1.45521" id="path1468" d="m 13.520208,9.1016667 a 7.14375,7.14375 0 0 1 -7.9904163,0"/><path style="fill:none;stroke-width:1.45521" id="path1470" d="m 15.160625,11.509375 a 10.054167,10.054167 0 0 1 -11.27125,0"/><path style="fill:none;stroke-width:1.45521" id="path1472" d="m 16.774583,13.917083 a 12.964583,12.964583 0 0 1 -14.4991663,0"/></symbol><rect id="rect890-1" width="144.052" height="38.627" x="14.435" y="82.962"/><rect id="rect943" width="144.052" height="38.627" x="14.435" y="82.962"/><rect id="rect870-7" width="113.602" height="24.862" x="14.059" y="44.049"/><rect id="rect946" width="113.602" height="24.862" x="14.059" y="44.049"/><symbol id="LogicalAnd"><title id="title1372">Logical And</title><desc id="desc1374">Summing junction. Shows when multiple branches converge.</desc><circle style="stroke-width:2" id="circle1376" cx="75" cy="75" r="20"/><path style="stroke-width:2" id="path1378" d="m 61,61 28,28"/><path style="stroke-width:2" id="path1380" d="m 61,89 28,-28"/></symbol><symbol id="Core"><title id="title1310">Core</title><desc id="desc1312">Core memory. (ISO)</desc><rect style="stroke-width:2" id="rect1314" width="80" height="80" x="35" y="35"/><path style="stroke-width:2" id="path1316" d="m 35,50 80,0"/><path style="stroke-width:2" id="path1318" d="m 50,35 0,80"/></symbol><rect id="rect951" width="88.116" height="35.978" x="41.35" y="118.307"/></defs><metadata id="metadata5"/><g id="layer5" style="display:inline"><rect style="fill:#fff;stroke:none;stroke-width:.677985;stroke-linecap:round;stroke-linejoin:round" id="rect1351" width="424.616" height="241.7" x="-36.476" y="-17.433" ry="7.271"/></g><g id="layer6"><g id="g983" transform="translate(1.8464387)"><g id="g919"><g id="g881" transform="matrix(0.99921508,0,0,1.2760818,0.05996765,-12.068379)"><rect style="fill:#4d4d4d;stroke:#4d4d4d;stroke-width:.775758;stroke-linecap:square;stroke-linejoin:miter;stroke-miterlimit:2.3;stroke-dasharray:none;stroke-dashoffset:0" id="rect9805" width="127.687" height="108.338" x="12.556" y="43.895" ry="4.897"/><rect id="rect877" width="127.687" height="108.338" x="12.556" y="47.07" ry="4.897" style="fill:#fff;stroke:#ccc;stroke-width:.775758;stroke-linecap:square;stroke-linejoin:miter;stroke-miterlimit:2.3;stroke-dasharray:none;stroke-dashoffset:0"/></g><g id="g903" transform="translate(0.42196211,16.297562)"><g id="g931" transform="matrix(0.62722921,0,0,0.62722921,42.377758,25.32669)"><rect style="fill:none;stroke:#1a1a1a;stroke-width:.715799;stroke-linecap:square;stroke-linejoin:miter;stroke-miterlimit:2.3;stroke-dasharray:none;stroke-dashoffset:0" id="rect9842" width="28.843" height="28.843" x="39.82" y="47.406"/><text style="font-size:48.2575px;line-height:1.25;font-family:sans-serif;fill:none;stroke:#1a1a1a;stroke-width:1.80965" id="text9846" x="40.057" y="75.024" xml:space="preserve"><tspan id="tspan9844" x="40.057" y="75.024" style="fill:none;stroke:#1a1a1a;stroke-width:1.80965">x</tspan></text></g><text id="text935" x="66.964" y="84.671" xml:space="preserve" style="font-size:8.63884px;line-height:1.25;font-family:sans-serif;fill:#000;stroke:#000;stroke-width:.323956"><tspan style="fill:#000;stroke:#000;stroke-width:.323956" id="tspan933" x="66.964" y="84.671">Title</tspan></text><text style="font-size:6.47965px;line-height:1.25;font-family:sans-serif;fill:#ccc;stroke:#b3b3b3;stroke-width:.242987" id="text885" x="62.267" y="94.979" xml:space="preserve"><tspan id="tspan883" x="62.267" y="94.979" style="fill:#ccc;stroke:#b3b3b3;stroke-width:.242987">Sub-title</tspan></text><text style="font-size:7.05556px;line-height:1.25;font-family:sans-serif;white-space:pre;shape-inside:url(#rect889)" id="text887" x="43.864" y="0" transform="matrix(1.1252423,0,0,1.1252423,-20.487398,-28.813836)" xml:space="preserve"><tspan x="45.833" y="124.549"><tspan style="text-align:center;text-anchor:middle">Lorem Ipsum is simply </tspan></tspan><tspan x="52.456" y="133.369"><tspan style="text-align:center;text-anchor:middle">dummy text of the </tspan></tspan><tspan x="42.673" y="142.188"><tspan style="text-align:center;text-anchor:middle">printing and typesetting </tspan></tspan><tspan x="70.339" y="151.007"><tspan style="text-align:center;text-anchor:middle">industry.</tspan></tspan></text></g></g><g id="g949" transform="translate(182.17378)"><g id="g925" transform="matrix(0.99921508,0,0,1.2760818,0.05996765,-12.068379)"><rect id="rect921" width="127.687" height="108.338" x="12.556" y="43.895" ry="4.897" style="fill:#4d4d4d;stroke:#4d4d4d;stroke-width:.775758;stroke-linecap:square;stroke-linejoin:miter;stroke-miterlimit:2.3;stroke-dasharray:none;stroke-dashoffset:0"/><rect style="fill:#fff;stroke:#ccc;stroke-width:.775758;stroke-linecap:square;stroke-linejoin:miter;stroke-miterlimit:2.3;stroke-dasharray:none;stroke-dashoffset:0" id="rect923" width="127.687" height="108.338" x="12.556" y="47.07" ry="4.897"/></g><g id="g947" transform="translate(0.42196211,16.297562)"><g id="g933" transform="matrix(0.62722921,0,0,0.62722921,42.377758,25.32669)"><rect id="rect927" width="28.843" height="28.843" x="39.82" y="47.406" style="fill:none;stroke:#1a1a1a;stroke-width:.715799;stroke-linecap:square;stroke-linejoin:miter;stroke-miterlimit:2.3;stroke-dasharray:none;stroke-dashoffset:0"/><text id="text931" x="40.057" y="75.024" xml:space="preserve" style="font-size:48.2575px;line-height:1.25;font-family:sans-serif;fill:none;stroke:#1a1a1a;stroke-width:1.80965"><tspan style="fill:none;stroke:#1a1a1a;stroke-width:1.80965" id="tspan929" x="40.057" y="75.024">x</tspan></text></g><text style="font-size:8.63884px;line-height:1.25;font-family:sans-serif;fill:#000;stroke:#000;stroke-width:.323956" id="text937" x="66.964" y="84.671" xml:space="preserve"><tspan id="tspan935" x="66.964" y="84.671" style="fill:#000;stroke:#000;stroke-width:.323956">Title</tspan></text><text id="text941" x="62.267" y="94.979" xml:space="preserve" style="font-size:6.47965px;line-height:1.25;font-family:sans-serif;fill:#ccc;stroke:#b3b3b3;stroke-width:.242987"><tspan style="fill:#ccc;stroke:#b3b3b3;stroke-width:.242987" id="tspan939" x="62.267" y="94.979">Sub-title</tspan></text><text id="text945" x="43.864" y="0" transform="matrix(1.1252423,0,0,1.1252423,-20.487398,-28.813836)" xml:space="preserve" style="font-size:7.05556px;line-height:1.25;font-family:sans-serif;white-space:pre;shape-inside:url(#rect951)"><tspan x="45.833" y="124.549"><tspan style="text-align:center;text-anchor:middle">Lorem Ipsum is simply </tspan></tspan><tspan x="52.456" y="133.369"><tspan style="text-align:center;text-anchor:middle">dummy text of the </tspan></tspan><tspan x="42.673" y="142.188"><tspan style="text-align:center;text-anchor:middle">printing and typesetting </tspan></tspan><tspan x="70.339" y="151.007"><tspan style="text-align:center;text-anchor:middle">industry.</tspan></tspan></text></g></g></g></g><g style="display:inline" id="layer1"><text id="text9759" x="108.126" y="14.201" xml:space="preserve" style="font-size:12.004px;line-height:1.25;font-family:sans-serif;stroke-width:.187563"><tspan style="font-size:12.004px;stroke-width:.187563" id="tspan9757" x="108.126" y="14.201">&lt;MEUS SERVIÇOS/&gt;</tspan></text><path style="opacity:.07995756;fill:#000;stroke:#000;stroke-width:1.95792;stroke-linecap:butt;stroke-linejoin:miter;stroke-miterlimit:4;stroke-dasharray:none;stroke-opacity:1" id="path91" d="M 109.07253,17.653814 H 229.59414"/></g></svg>