<svg xmlns="http://www.w3.org/2000/svg" xmlns:svg="http://www.w3.org/2000/svg" id="svg8" width="1280" height="720" version="1.1" viewBox="0 0 338.667 190.5"><defs id="defs2"><rect id="rect439" width="153.165" height="20.082" x="10.362" y="51.775"/><rect id="rect433" width="143.056" height="27.908" x="19.984" y="45.1"/><rect id="rect890" width="144.052" height="38.627" x="14.435" y="82.962"/><rect id="rect870" width="113.602" height="24.862" x="14.059" y="44.049"/><symbol id="Restrooms"><title id="title2213">Restrooms</title><g style="stroke:none" id="g2225"><rect style="stroke-width:.264583" id="rect2215" width="1.323" height="12.7" x="8.864" y="3.175"/><circle style="stroke-width:.264583" id="circle2217" cx="5.159" cy="3.969" r="1.058"/><path style="stroke-width:.264583" id="path2219" d="m 5.0270833,11.773958 v 3.704167 a 0.52916667,0.52916667 0 0 1 -1.0583333,0 V 11.773958 H 2.6458333 L 4.1010417,6.8791667 H 3.8364583 l -0.79375,2.778125 A 0.48180625,0.48180625 0 0 1 2.1166667,9.3927083 l 0.9260416,-3.175 A 1.508125,1.2170833 0 0 1 4.4979167,5.2916667 h 1.3229166 a 1.508125,1.2170833 0 0 1 1.4552084,0.9260416 l 0.9260416,3.175 A 0.48180625,0.48180625 0 0 1 7.2760417,9.6572917 l -0.79375,-2.778125 H 6.2177083 L 7.6729167,11.773958 H 6.35 v 3.704167 a 0.52916667,0.52916667 0 0 1 -1.0583333,0 v -3.704167 z"/><circle style="stroke-width:.264583" id="circle2221" cx="13.891" cy="3.969" r="1.058"/><path style="stroke-width:.264583" id="path2223" d="m 11.377083,6.6145833 v 3.4395837 a 0.463021,0.463021 0 0 0 0.926042,0 V 7.0114583 h 0.264583 v 8.4005207 a 0.5953125,0.5953125 0 0 0 1.190625,0 v -4.960937 h 0.264584 v 4.960937 a 0.5953125,0.5953125 0 0 0 1.190625,0 V 7.0114583 h 0.264583 v 3.0427087 a 0.463021,0.463021 0 0 0 0.926042,0 V 6.6145833 A 1.3229167,1.3229167 0 0 0 15.08125,5.2916667 H 12.7 a 1.3229167,1.3229167 0 0 0 -1.322917,1.3229166 z"/></g></symbol><symbol id="Amphitheatre"><title id="title1462">Amphitheatre</title><circle style="stroke:none;stroke-width:.264583" id="circle1464" cx="9.525" cy="2.249" r=".926"/><path style="stroke:none;stroke-width:.264583" id="path1466" d="M 11.1125,3.571875 A 1.190625,1.190625 0 0 1 12.303125,4.7625 v 2.2489583 a 0.396875,0.396875 0 0 1 -0.79375,0 V 4.8947917 h -0.79375 v 2.778125 a 5.2916667,5.2916667 0 0 1 -2.38125,0 v -2.778125 h -0.79375 v 2.1166666 a 0.396875,0.396875 0 0 1 -0.79375,0 V 4.7625 A 1.190625,1.190625 0 0 1 7.9375,3.571875 Z"/><path style="fill:none;stroke-width:1.45521" id="path1468" d="m 13.520208,9.1016667 a 7.14375,7.14375 0 0 1 -7.9904163,0"/><path style="fill:none;stroke-width:1.45521" id="path1470" d="m 15.160625,11.509375 a 10.054167,10.054167 0 0 1 -11.27125,0"/><path style="fill:none;stroke-width:1.45521" id="path1472" d="m 16.774583,13.917083 a 12.964583,12.964583 0 0 1 -14.4991663,0"/></symbol><rect id="rect890-1" width="144.052" height="38.627" x="14.435" y="82.962"/><rect id="rect943" width="144.052" height="38.627" x="14.435" y="82.962"/><rect id="rect870-7" width="113.602" height="24.862" x="14.059" y="44.049"/><rect id="rect946" width="113.602" height="24.862" x="14.059" y="44.049"/></defs><metadata id="metadata5"/><g id="layer5" style="display:none"><rect style="fill:#fff;stroke:none;stroke-width:.677985;stroke-linecap:round;stroke-linejoin:round" id="rect1351" width="424.616" height="241.7" x="-36.476" y="-17.433" ry="7.271"/></g><g style="display:inline;opacity:1;mix-blend-mode:normal" id="layer3"><g id="g1393" transform="matrix(0.85197819,0,0,0.85197819,4.0181906,10.336346)"><g id="g8589" transform="matrix(0.59443964,0,0,0.59443964,-67.989423,72.998531)"><g id="g8579" transform="matrix(15.32202,0,0,15.32202,83.046001,33.065321)" style="fill:#4d4d4d;stroke:none;stroke-width:.0172682;stroke-miterlimit:4;stroke-dasharray:none"><title id="title8573">Amphitheatre</title><path id="path8575" d="M 10.451041,2.2489583 A 0.92604166,0.92604166 0 0 1 9.5249996,3.175 0.92604166,0.92604166 0 0 1 8.598958,2.2489583 0.92604166,0.92604166 0 0 1 9.5249996,1.3229167 0.92604166,0.92604166 0 0 1 10.451041,2.2489583" style="fill:#4d4d4d;stroke:none;stroke-width:.0172682;stroke-miterlimit:4;stroke-dasharray:none"/><path style="fill:#4d4d4d;stroke:none;stroke-width:.0172682;stroke-miterlimit:4;stroke-dasharray:none" id="path8577" d="M 11.1125,3.571875 A 1.190625,1.190625 0 0 1 12.303125,4.7625 v 2.2489583 a 0.396875,0.396875 0 0 1 -0.79375,0 V 4.8947917 h -0.79375 v 2.778125 a 5.2916667,5.2916667 0 0 1 -2.38125,0 v -2.778125 h -0.79375 v 2.1166666 a 0.396875,0.396875 0 0 1 -0.79375,0 V 4.7625 A 1.190625,1.190625 0 0 1 7.9375,3.571875 Z"/></g><g style="fill:#e6e6e6;stroke:none;stroke-width:.0172682;stroke-miterlimit:4;stroke-dasharray:none" id="use8536" transform="matrix(15.32202,0,0,15.32202,86.221003,33.065321)"><title id="title8558">Amphitheatre</title><path style="fill:#e6e6e6;stroke:none;stroke-width:.0172682;stroke-miterlimit:4;stroke-dasharray:none" id="circle8560" d="M 10.451041,2.2489583 A 0.92604166,0.92604166 0 0 1 9.5249996,3.175 0.92604166,0.92604166 0 0 1 8.598958,2.2489583 0.92604166,0.92604166 0 0 1 9.5249996,1.3229167 0.92604166,0.92604166 0 0 1 10.451041,2.2489583"/><path id="path8562" d="M 11.1125,3.571875 A 1.190625,1.190625 0 0 1 12.303125,4.7625 v 2.2489583 a 0.396875,0.396875 0 0 1 -0.79375,0 V 4.8947917 h -0.79375 v 2.778125 a 5.2916667,5.2916667 0 0 1 -2.38125,0 v -2.778125 h -0.79375 v 2.1166666 a 0.396875,0.396875 0 0 1 -0.79375,0 V 4.7625 A 1.190625,1.190625 0 0 1 7.9375,3.571875 Z" style="fill:#e6e6e6;stroke:none;stroke-width:.0172682;stroke-miterlimit:4;stroke-dasharray:none"/></g></g><rect style="opacity:1;fill:none;stroke:#000;stroke-width:.670184;stroke-linecap:square;stroke-miterlimit:2.3" id="rect558" width="89.645" height="89.645" x="24.251" y="89.416" ry="8.893"/></g><g id="g1415" transform="matrix(0.85197819,0,0,0.85197819,202.27243,10.336346)"><g id="g1411" transform="matrix(0.59443964,0,0,0.59443964,-67.989423,72.998531)"><g style="fill:#4d4d4d;stroke:none;stroke-width:.0172682;stroke-miterlimit:4;stroke-dasharray:none" id="g1401" transform="matrix(15.32202,0,0,15.32202,83.046001,33.065321)"><title id="title1395">Amphitheatre</title><path style="fill:#4d4d4d;stroke:none;stroke-width:.0172682;stroke-miterlimit:4;stroke-dasharray:none" id="path1397" d="M 10.451041,2.2489583 A 0.92604166,0.92604166 0 0 1 9.5249996,3.175 0.92604166,0.92604166 0 0 1 8.598958,2.2489583 0.92604166,0.92604166 0 0 1 9.5249996,1.3229167 0.92604166,0.92604166 0 0 1 10.451041,2.2489583"/><path id="path1399" d="M 11.1125,3.571875 A 1.190625,1.190625 0 0 1 12.303125,4.7625 v 2.2489583 a 0.396875,0.396875 0 0 1 -0.79375,0 V 4.8947917 h -0.79375 v 2.778125 a 5.2916667,5.2916667 0 0 1 -2.38125,0 v -2.778125 h -0.79375 v 2.1166666 a 0.396875,0.396875 0 0 1 -0.79375,0 V 4.7625 A 1.190625,1.190625 0 0 1 7.9375,3.571875 Z" style="fill:#4d4d4d;stroke:none;stroke-width:.0172682;stroke-miterlimit:4;stroke-dasharray:none"/></g><g id="g1409" transform="matrix(15.32202,0,0,15.32202,86.221003,33.065321)" style="fill:#e6e6e6;stroke:none;stroke-width:.0172682;stroke-miterlimit:4;stroke-dasharray:none"><title id="title1403">Amphitheatre</title><path id="path1405" d="M 10.451041,2.2489583 A 0.92604166,0.92604166 0 0 1 9.5249996,3.175 0.92604166,0.92604166 0 0 1 8.598958,2.2489583 0.92604166,0.92604166 0 0 1 9.5249996,1.3229167 0.92604166,0.92604166 0 0 1 10.451041,2.2489583" style="fill:#e6e6e6;stroke:none;stroke-width:.0172682;stroke-miterlimit:4;stroke-dasharray:none"/><path style="fill:#e6e6e6;stroke:none;stroke-width:.0172682;stroke-miterlimit:4;stroke-dasharray:none" id="path1407" d="M 11.1125,3.571875 A 1.190625,1.190625 0 0 1 12.303125,4.7625 v 2.2489583 a 0.396875,0.396875 0 0 1 -0.79375,0 V 4.8947917 h -0.79375 v 2.778125 a 5.2916667,5.2916667 0 0 1 -2.38125,0 v -2.778125 h -0.79375 v 2.1166666 a 0.396875,0.396875 0 0 1 -0.79375,0 V 4.7625 A 1.190625,1.190625 0 0 1 7.9375,3.571875 Z"/></g></g><rect id="rect1413" width="89.645" height="89.645" x="24.251" y="89.416" ry="8.893" style="opacity:1;fill:none;stroke:#000;stroke-width:.670184;stroke-linecap:square;stroke-miterlimit:2.3"/></g></g><g id="layer4"><g id="g903" transform="matrix(0.71999247,0,0,0.71999247,-197.48044,52.654255)"><rect style="fill:none;stroke:#333;stroke-width:.90943;stroke-linecap:round;stroke-linejoin:round" id="rect894" width="72.2" height="24.067" x="-.296" y="154.079" ry="12.033"/><text style="font-style:normal;font-weight:400;font-size:13.5821px;line-height:1.25;font-family:sans-serif;fill:#000;fill-opacity:1;stroke:none;stroke-width:.339554" id="text898" x="8.275" y="169.859" xml:space="preserve"><tspan id="tspan896" x="8.275" y="169.859" style="stroke-width:.339554">Projetos</tspan></text></g><g id="g556" transform="translate(0,-109.00835)"><text style="font-style:normal;font-weight:400;font-size:7.85932px;line-height:1.25;font-family:sans-serif;display:inline;fill:#98a690;fill-opacity:1;stroke:none;stroke-width:.196484" id="text873" x="14.574" y="12.154" xml:space="preserve"><tspan id="tspan871" x="14.574" y="12.154" style="fill:#98a690;fill-opacity:1;stroke-width:.196484">LOGO</tspan></text><g id="g373" transform="translate(58.991399)"><g id="g1265" transform="matrix(0.62210147,0,0,0.62210147,64.048662,1.029003)" style="display:inline"><text id="text856" x="300.047" y="15.026" xml:space="preserve" style="font-style:normal;font-weight:400;font-size:6.27169px;line-height:1.25;font-family:sans-serif;fill:#98a690;fill-opacity:1;stroke:none;stroke-width:.156793"><tspan style="fill:#98a690;fill-opacity:1;stroke-width:.156793" id="tspan854" x="300.047" y="15.026">Contato</tspan></text><text style="font-style:normal;font-weight:400;font-size:6.27169px;line-height:1.25;font-family:sans-serif;fill:#98a690;fill-opacity:1;stroke:none;stroke-width:.156793" id="text861" x="269.482" y="15.137" xml:space="preserve"><tspan id="tspan859" x="269.482" y="15.137" style="fill:#98a690;fill-opacity:1;stroke-width:.156793">Sobre</tspan></text><text id="text865" x="231.429" y="15.137" xml:space="preserve" style="font-style:normal;font-weight:400;font-size:6.27169px;line-height:1.25;font-family:sans-serif;fill:#98a690;fill-opacity:1;stroke:none;stroke-width:.156793"><tspan style="fill:#98a690;fill-opacity:1;stroke-width:.156793" id="tspan863" x="231.429" y="15.137">Serviços</tspan></text><text style="font-style:normal;font-weight:400;font-size:6.27169px;line-height:1.25;font-family:sans-serif;fill:#98a690;fill-opacity:1;stroke:none;stroke-width:.156793" id="text1230" x="197.553" y="14.876" xml:space="preserve"><tspan id="tspan1228" x="197.553" y="14.876" style="fill:#98a690;fill-opacity:1;stroke-width:.156793">Cursos</tspan></text></g></g><path style="display:inline;fill:none;fill-opacity:1;stroke:#4d4d4d;stroke-width:.607063;stroke-linecap:round;stroke-linejoin:round;stroke-miterlimit:4;stroke-dasharray:none;stroke-opacity:1" id="rect28" d="M -0.46135193,0.61229626 H 339.43417 V 128.04809 L -0.46135193,93.48142 Z"/><g id="g362" transform="translate(0,23.561667)"><g id="text868" aria-label="Hey, I’m ...." transform="matrix(1.8004869,0,0,1.8004869,89.246884,-49.890623)" style="font-style:normal;font-weight:400;font-size:10.5833px;line-height:1.25;font-family:sans-serif;white-space:pre;shape-inside:url(#rect870-7);mix-blend-mode:normal;fill:#000;fill-opacity:1;stroke:none"><path id="path1131" d="m 15.097287,45.697301 c 1.375365,-0.429828 1.027061,0.864012 1.04386,1.79275 -0.262307,1.167107 0.160186,1.649414 1.344562,1.369838 0.726934,-0.188822 2.217049,0.385537 2.448476,-0.298792 0,-0.954598 0,-1.909197 0,-2.863796 1.375365,-0.429828 1.027063,0.864011 1.043861,1.79275 0,1.974172 0,3.948345 0,5.922517 -1.375365,0.429828 -1.027063,-0.864011 -1.043861,-1.79275 -0.105297,-0.820639 0.45289,-2.304762 -0.896375,-1.881433 -0.965554,0 -1.931109,0 -2.896663,0 0,1.224728 0,2.449455 0,3.674183 -1.375365,0.429828 -1.027061,-0.864012 -1.04386,-1.79275 0,-1.974172 0,-3.948345 0,-5.922517 z"/><path id="path1133" d="m 27.964677,50.280986 c 0.08226,0.984268 -1.575127,0.228888 -2.240937,0.465086 -1.235733,-0.10911 -3.124697,-0.18607 -1.541765,1.498612 0.877871,1.308823 5.030528,-0.74299 3.04244,1.064531 -2.579774,1.278049 -5.592411,-1.310458 -4.432532,-4.007494 0.906079,-2.860987 5.489233,-2.188905 5.172794,0.979265 z m -0.950843,-0.279052 c 0.449922,-2.866821 -4.581713,-1.34871 -2.941776,0.0045 0.980592,-0.0015 1.961184,-0.003 2.941776,-0.0045 z"/><path id="path1135" d="m 31.933414,53.950001 c 0.24627,1.539435 -3.304342,2.434591 -2.418914,0.868161 1.320556,0.254951 2.06427,-1.519221 1.272006,-2.465848 -0.647777,-1.57583 -1.295555,-3.151659 -1.943332,-4.727488 1.2061,-0.402499 1.303824,0.831415 1.672842,1.664788 0.381171,0.954018 0.762343,1.908035 1.143514,2.862053 0.60289,-1.508947 1.20578,-3.017894 1.80867,-4.526841 1.52857,-0.402163 0.63772,0.830721 0.339066,1.663399 -0.624618,1.553926 -1.249235,3.107851 -1.873852,4.661776 z"/><path id="path1137" d="m 36.031343,52.099991 c 1.252422,-0.441477 1.365582,0.739882 0.74968,1.553593 -0.0819,1.063245 -1.658293,1.455363 -0.950918,0.120559 0.192155,-0.550605 0.2342,-1.094179 0.201238,-1.674152 z"/><path id="path1139" d="m 42.558056,45.697301 c 1.375365,-0.429828 1.027063,0.864011 1.043861,1.79275 0,1.974172 0,3.948345 0,5.922517 -1.375365,0.429828 -1.027063,-0.864011 -1.043861,-1.79275 0,-1.974172 0,-3.948345 0,-5.922517 z"/><path id="path1141" d="m 45.984193,45.697301 c 1.197307,-0.417563 1.38428,0.649406 0.748834,1.449807 -0.08295,1.063345 -1.658276,1.446466 -0.949419,0.115994 0.172114,-0.517416 0.241202,-1.020596 0.200585,-1.565801 z"/><path id="path1143" d="m 53.508257,48.735866 c 1.202333,-2.528584 4.734792,-0.758073 3.906725,1.780969 0,0.965245 0,1.930489 0,2.895733 -1.353896,0.437643 -0.892594,-0.939913 -0.956011,-1.79275 0.04726,-1.323872 0.230088,-3.896674 -1.855177,-3.184967 -1.476732,0.875038 -0.766093,2.828334 -0.935341,4.246338 0.329192,1.256586 -1.566149,0.846028 -0.956011,-0.314392 -0.153796,-1.319283 0.444181,-2.979581 -0.669207,-3.953908 -2.054081,-0.638785 -2.279885,1.797457 -2.121311,3.222529 -0.05199,0.859064 0.37299,2.195098 -0.956011,1.77715 0,-1.929247 0,-3.858495 0,-5.787742 1.558433,-0.63636 0.430268,1.990882 1.736322,0.113688 1.007892,-0.567397 2.48143,-0.19349 2.806022,0.997352 z"/><path id="path1145" d="m 62.809986,52.099991 c 1.138062,-0.596318 1.509426,1.03064 0.791578,1.312577 -1.198391,0.279883 -0.688253,-0.504604 -0.791578,-1.312577 z"/><path id="path1147" d="m 66.174111,52.099991 c 1.138062,-0.596318 1.509424,1.030641 0.791577,1.312577 -1.198391,0.279883 -0.688251,-0.504605 -0.791577,-1.312577 z"/><path id="path1149" d="m 69.538235,52.099991 c 1.138062,-0.596318 1.509424,1.030641 0.791577,1.312577 -1.198391,0.279883 -0.688251,-0.504605 -0.791577,-1.312577 z"/><path id="path1151" d="m 72.902359,52.099991 c 1.138062,-0.596318 1.509424,1.030641 0.791577,1.312577 -1.198391,0.279883 -0.688251,-0.504605 -0.791577,-1.312577 z"/></g><g style="font-style:normal;font-weight:400;font-size:10.5833px;line-height:1.25;font-family:sans-serif;white-space:pre;shape-inside:url(#rect870-7);mix-blend-mode:normal;fill:#000;fill-opacity:1;stroke:none" id="g273" aria-label="Hey, I’m ...." transform="matrix(1.8004869,0,0,1.8004869,89.246884,-27.992408)"><text id="text277" x="3.342" y="51.895" xml:space="preserve" style="font-size:3.37844px;line-height:1.25;font-family:sans-serif;stroke-width:.126691"><tspan style="stroke-width:.126691" id="tspan275" x="3.342" y="51.895">Lorem Ipsum é simplesmente uma simulação de</tspan></text></g></g><g id="g429" transform="translate(-83.974716,85.667879)"><g id="g427" aria-label="Hey, I’m ...." transform="matrix(1.8004869,0,0,1.8004869,89.246884,-27.992408)" style="font-style:normal;font-weight:400;font-size:10.5833px;line-height:1.25;font-family:sans-serif;white-space:pre;shape-inside:url(#rect870-7);mix-blend-mode:normal;fill:#000;fill-opacity:1;stroke:none"><text style="font-size:4.86984px;line-height:1.25;font-family:sans-serif;stroke-width:.182618" id="text425" x="5.679" y="41.638" xml:space="preserve"><tspan id="tspan423" x="5.679" y="41.638" style="font-weight:700;stroke-width:.182618">&lt;Quem sou eu?/&gt;</tspan></text><text id="text437" x="75.558" y="0" xml:space="preserve" style="font-size:3.91869px;line-height:1.25;font-family:sans-serif;white-space:pre;shape-inside:url(#rect439)"><tspan x="10.361" y="55.243"><tspan dx="0 0 0 0 0 0 .151 0 0 0 0 0 .151 0 0 0 0 0 0 0 0 0 0 .151 0 0 0 .151 0 0 .151 0 .151 0 0 0 0 0 .151 0 0 0 0 0 0 0 0 .151 0 0 0 0 .151 0 0 0 0 0 0 .151 0 0 .151 0 0 0 0 0 .151" style="text-align:justify;text-anchor:start">Lorem Ipsum sobreviveu não só a cinco séculos, como também ao salto para </tspan></tspan><tspan x="10.361" y="60.141"><tspan dx="0 0 2.568 0 0 0 0 0 0 0 0 0 0 2.568 0 0 0 0 0 0 0 0 0 0 0 2.568 0 0 0 0 0 0 0 0 0 0 0 0 2.568 0 0 0 0 0 0 0 0 0 0 0 0 0 0 2.568 0 0 0 0 0 0 0 0 0 0 0 2.568" style="text-align:justify;text-anchor:start">a editoração eletrônica, permanecendo essencialmente inalterado. Se </tspan></tspan><tspan x="10.361" y="65.039"><tspan dx="0 0 0 0 0 0 0 0 0 0 0 0 .283 0 0 .283 0 0 0 0 0 0 .283 0 0 .283 0 0 0 .283 0 0 0 0 0 0 .283 0 .283 0 0 0 0 0 0 0 0 .283 0 0 0 0 0 0 .283 0 0 0 0 0 0 0 0 0 .283" style="text-align:justify;text-anchor:start">popularizou na década de 60, quando a Letraset lançou decalques contendo </tspan></tspan><tspan x="10.361" y="69.938"><tspan dx="0 0 0 0 0 0 0 0 0 0 1.311 0 0 1.311 0 0 0 0 0 1.311 0 0 0 0 0 0 1.311 0 1.311 0 0 0 0 1.311 0 0 0 0 0 0 0 0 0 0 0 0 1.311 0 0 0 0 0 0 1.311 0 0 0 0 0 0 1.311 0 1.311" style="text-align:justify;text-anchor:start">passagens de Lorem Ipsum, e mais recentemente quando passou a ser </tspan></tspan><tspan style="visibility:hidden" x="10.361" y="75.325"><tspan dx="0 1.089 2.484 1.536 2.411 2.487 1.611 2.401 2.487 2.398 140.526 2.401 140.526 2.042 2.398 1.311 1.536 3.205 2.401 1.525 2.411 2.042 140.526 2.487 2.411 140.526 2.411 2.487 1.089 1.536 2.398 1.611 2.401 2.154 2.401 2.398 140.526 2.411 1.089 2.411 1.536 1.525 2.398 2.484 1.089 2.154 2.401 140.526 2.155 2.398 3.817 2.398 140.526 2.681 1.089 2.487 2.484 2.042 140.526 2.187 2.401 2.487 2.411 3.381 2.401 2.13 2.411 1.251" style="text-align:justify;text-anchor:start">integrado a softwares de editoração eletrônica como Aldus PageMaker.</tspan></tspan></text></g></g></g><text id="text1473" x="21.53" y="171.765" xml:space="preserve" style="font-size:7.05556px;line-height:1.25;font-family:sans-serif;stroke-width:.264583"><tspan style="stroke-width:.264583" id="tspan1471" x="21.53" y="171.765">Lorem Ipsum sobrevive</tspan></text><text style="font-size:7.05556px;line-height:1.25;font-family:sans-serif;stroke-width:.264583" id="text1477" x="219.784" y="171.765" xml:space="preserve"><tspan id="tspan1475" x="219.784" y="171.765" style="stroke-width:.264583">Lorem Ipsum sobrevive</tspan></text></g></svg>