<?xml version="1.0" encoding="UTF-8" standalone="no"?>
<svg
   xmlns:dc="http://purl.org/dc/elements/1.1/"
   xmlns:cc="http://creativecommons.org/ns#"
   xmlns:rdf="http://www.w3.org/1999/02/22-rdf-syntax-ns#"
   xmlns:svg="http://www.w3.org/2000/svg"
   xmlns="http://www.w3.org/2000/svg"
   xmlns:sodipodi="http://sodipodi.sourceforge.net/DTD/sodipodi-0.dtd"
   xmlns:inkscape="http://www.inkscape.org/namespaces/inkscape"
   inkscape:export-ydpi="110"
   inkscape:export-xdpi="110"
   inkscape:export-filename="/home/kaell/Documentos/aboutme/wireframes/HOME.png"
   width="1280"
   height="720"
   viewBox="0 0 338.66668 190.5"
   version="1.1"
   id="svg8"
   inkscape:version="1.0 (1.0+r73+1)"
   sodipodi:docname="wireframe_DESK.svg">
  <defs
     id="defs2">
    <rect
       id="rect890"
       height="38.626713"
       width="144.05202"
       y="82.962128"
       x="14.434642" />
    <rect
       id="rect870"
       height="24.862329"
       width="113.60208"
       y="44.049358"
       x="14.058795" />
    <symbol
       id="Restrooms">
      <title
         id="title2213">Restrooms</title>
      <g
         id="g2225"
         style="stroke:none">
        <!-- Divider -->
        <rect
           id="rect2215"
           height="12.7"
           width="1.3229166"
           y="3.175"
           x="8.8635416"
           style="stroke-width:0.264583" />
        <!-- Woman -->
        <circle
           id="circle2217"
           r="1.0583333"
           cy="3.96875"
           cx="5.1593752"
           style="stroke-width:0.264583" />
        <path
           id="path2219"
           d="m 5.0270833,11.773958 v 3.704167 a 0.52916667,0.52916667 0 0 1 -1.0583333,0 V 11.773958 H 2.6458333 L 4.1010417,6.8791667 H 3.8364583 l -0.79375,2.778125 A 0.48180625,0.48180625 0 0 1 2.1166667,9.3927083 l 0.9260416,-3.175 A 1.508125,1.2170833 0 0 1 4.4979167,5.2916667 h 1.3229166 a 1.508125,1.2170833 0 0 1 1.4552084,0.9260416 l 0.9260416,3.175 A 0.48180625,0.48180625 0 0 1 7.2760417,9.6572917 l -0.79375,-2.778125 H 6.2177083 L 7.6729167,11.773958 H 6.35 v 3.704167 a 0.52916667,0.52916667 0 0 1 -1.0583333,0 v -3.704167 z"
           style="stroke-width:0.264583" />
        <!-- Man -->
        <circle
           id="circle2221"
           r="1.0583333"
           cy="3.96875"
           cx="13.890625"
           style="stroke-width:0.264583" />
        <path
           id="path2223"
           d="m 11.377083,6.6145833 v 3.4395837 a 0.463021,0.463021 0 0 0 0.926042,0 V 7.0114583 h 0.264583 v 8.4005207 a 0.5953125,0.5953125 0 0 0 1.190625,0 v -4.960937 h 0.264584 v 4.960937 a 0.5953125,0.5953125 0 0 0 1.190625,0 V 7.0114583 h 0.264583 v 3.0427087 a 0.463021,0.463021 0 0 0 0.926042,0 V 6.6145833 A 1.3229167,1.3229167 0 0 0 15.08125,5.2916667 H 12.7 a 1.3229167,1.3229167 0 0 0 -1.322917,1.3229166 z"
           style="stroke-width:0.264583" />
      </g>
    </symbol>
    <symbol
       id="Amphitheatre">
      <title
         id="title1462">Amphitheatre</title>
      <circle
         id="circle1464"
         style="stroke:none;stroke-width:0.264583"
         r="0.92604166"
         cy="2.2489583"
         cx="9.5249996" />
      <path
         id="path1466"
         style="stroke:none;stroke-width:0.264583"
         d="M 11.1125,3.571875 A 1.190625,1.190625 0 0 1 12.303125,4.7625 v 2.2489583 a 0.396875,0.396875 0 0 1 -0.79375,0 V 4.8947917 h -0.79375 v 2.778125 a 5.2916667,5.2916667 0 0 1 -2.38125,0 v -2.778125 h -0.79375 v 2.1166666 a 0.396875,0.396875 0 0 1 -0.79375,0 V 4.7625 A 1.190625,1.190625 0 0 1 7.9375,3.571875 Z" />
      <path
         id="path1468"
         style="fill:none;stroke-width:1.45521"
         d="m 13.520208,9.1016667 a 7.14375,7.14375 0 0 1 -7.9904163,0" />
      <path
         id="path1470"
         style="fill:none;stroke-width:1.45521"
         d="m 15.160625,11.509375 a 10.054167,10.054167 0 0 1 -11.27125,0" />
      <path
         id="path1472"
         style="fill:none;stroke-width:1.45521"
         d="m 16.774583,13.917083 a 12.964583,12.964583 0 0 1 -14.4991663,0" />
    </symbol>
    <rect
       x="14.434642"
       y="82.962128"
       width="144.05202"
       height="38.626713"
       id="rect890-1" />
    <rect
       x="14.434642"
       y="82.962128"
       width="144.05202"
       height="38.626713"
       id="rect943" />
    <rect
       x="14.058795"
       y="44.049358"
       width="113.60208"
       height="24.862329"
       id="rect870-7" />
    <rect
       x="14.058795"
       y="44.049358"
       width="113.60208"
       height="24.862329"
       id="rect946" />
  </defs>
  <sodipodi:namedview
     id="base"
     pagecolor="#ffffff"
     bordercolor="#666666"
     borderopacity="1.0"
     inkscape:pageopacity="0.0"
     inkscape:pageshadow="2"
     inkscape:zoom="0.24748738"
     inkscape:cx="473.63735"
     inkscape:cy="500.74382"
     inkscape:document-units="px"
     inkscape:current-layer="layer5"
     inkscape:document-rotation="0"
     showgrid="false"
     units="px"
     inkscape:window-width="1366"
     inkscape:window-height="704"
     inkscape:window-x="0"
     inkscape:window-y="0"
     inkscape:window-maximized="1"
     showguides="true"
     inkscape:guide-bbox="true" />
  <metadata
     id="metadata5">
    <rdf:RDF>
      <cc:Work
         rdf:about="">
        <dc:format>image/svg+xml</dc:format>
        <dc:type
           rdf:resource="http://purl.org/dc/dcmitype/StillImage" />
        <dc:title></dc:title>
      </cc:Work>
    </rdf:RDF>
  </metadata>
  <g
     sodipodi:insensitive="true"
     style="display:inline"
     inkscape:label="fundo"
     id="layer5"
     inkscape:groupmode="layer">
    <rect
       ry="7.2713232"
       y="-17.433332"
       x="-36.475796"
       height="241.69991"
       width="424.61569"
       id="rect1351"
       style="fill:#ffffff;stroke:none;stroke-width:0.677985;stroke-linecap:round;stroke-linejoin:round" />
  </g>
  <g
     sodipodi:insensitive="true"
     inkscape:label="Barra_menu"
     inkscape:groupmode="layer"
     id="layer1"
     style="display:inline">
    <text
       xml:space="preserve"
       style="font-style:normal;font-weight:normal;font-size:12.6335px;line-height:1.25;font-family:sans-serif;fill:#98a690;fill-opacity:1;stroke:none;stroke-width:0.315839"
       x="12.545241"
       y="19.536491"
       id="text873"><tspan
         sodipodi:role="line"
         id="tspan871"
         x="12.545241"
         y="19.536491"
         style="fill:#98a690;fill-opacity:1;stroke-width:0.315839">LOGO</tspan></text>
    <g
       transform="translate(0,1.6540787)"
       id="g1265">
      <text
         xml:space="preserve"
         style="font-style:normal;font-weight:normal;font-size:6.27169px;line-height:1.25;font-family:sans-serif;fill:#98a690;fill-opacity:1;stroke:none;stroke-width:0.156793"
         x="300.04739"
         y="15.026475"
         id="text856"><tspan
           sodipodi:role="line"
           id="tspan854"
           x="300.04739"
           y="15.026475"
           style="fill:#98a690;fill-opacity:1;stroke-width:0.156793">Contato</tspan></text>
      <text
         id="text861"
         y="15.13672"
         x="269.48169"
         style="font-style:normal;font-weight:normal;font-size:6.27169px;line-height:1.25;font-family:sans-serif;fill:#98a690;fill-opacity:1;stroke:none;stroke-width:0.156793"
         xml:space="preserve"><tspan
           style="fill:#98a690;fill-opacity:1;stroke-width:0.156793"
           y="15.13672"
           x="269.48169"
           id="tspan859"
           sodipodi:role="line">Sobre</tspan></text>
      <text
         xml:space="preserve"
         style="font-style:normal;font-weight:normal;font-size:6.27169px;line-height:1.25;font-family:sans-serif;fill:#98a690;fill-opacity:1;stroke:none;stroke-width:0.156793"
         x="231.42859"
         y="15.13672"
         id="text865"><tspan
           sodipodi:role="line"
           id="tspan863"
           x="231.42859"
           y="15.13672"
           style="fill:#98a690;fill-opacity:1;stroke-width:0.156793">Serviços</tspan></text>
      <text
         id="text1230"
         y="14.875714"
         x="197.55251"
         style="font-style:normal;font-weight:normal;font-size:6.27169px;line-height:1.25;font-family:sans-serif;fill:#98a690;fill-opacity:1;stroke:none;stroke-width:0.156793"
         xml:space="preserve"><tspan
           style="fill:#98a690;fill-opacity:1;stroke-width:0.156793"
           y="14.875714"
           x="197.55251"
           id="tspan1228"
           sodipodi:role="line">Cursos</tspan></text>
    </g>
  </g>
  <g
     sodipodi:insensitive="true"
     inkscape:groupmode="layer"
     id="layer3"
     inkscape:label="img"
     style="opacity:1;mix-blend-mode:normal">
    <g
       transform="matrix(1.3453915,0,0,1.3453915,-61.131646,-24.748802)"
       id="g886">
      <path
         id="path8318"
         d="M 286.50601,88.158384 A 43.986968,43.986968 0 0 1 242.51905,132.14535 43.986968,43.986968 0 0 1 198.53209,88.158384 43.986968,43.986968 0 0 1 242.51905,44.171423 43.986968,43.986968 0 0 1 286.50601,88.158384"
         style="fill:none;fill-opacity:1;stroke:#4d4d4d;stroke-width:0.386208;stroke-linecap:round;stroke-linejoin:round;stroke-miterlimit:4;stroke-dasharray:none;stroke-opacity:1" />
      <g
         transform="matrix(0.44183395,0,0,0.44183395,140.64286,42.639786)"
         id="g8589">
        <g
           transform="matrix(15.32202,0,0,15.32202,83.046001,33.065321)"
           style="fill:#4d4d4d;stroke:none;stroke-width:0.0172682;stroke-miterlimit:4;stroke-dasharray:none"
           id="g8579">
          <title
             id="title8573">Amphitheatre</title>
          <path
             d="M 10.451041,2.2489583 A 0.92604166,0.92604166 0 0 1 9.5249996,3.175 0.92604166,0.92604166 0 0 1 8.598958,2.2489583 0.92604166,0.92604166 0 0 1 9.5249996,1.3229167 0.92604166,0.92604166 0 0 1 10.451041,2.2489583"
             style="fill:#4d4d4d;stroke:none;stroke-width:0.0172682;stroke-miterlimit:4;stroke-dasharray:none"
             id="path8575" />
          <path
             id="path8577"
             style="fill:#4d4d4d;stroke:none;stroke-width:0.0172682;stroke-miterlimit:4;stroke-dasharray:none"
             d="M 11.1125,3.571875 A 1.190625,1.190625 0 0 1 12.303125,4.7625 v 2.2489583 a 0.396875,0.396875 0 0 1 -0.79375,0 V 4.8947917 h -0.79375 v 2.778125 a 5.2916667,5.2916667 0 0 1 -2.38125,0 v -2.778125 h -0.79375 v 2.1166666 a 0.396875,0.396875 0 0 1 -0.79375,0 V 4.7625 A 1.190625,1.190625 0 0 1 7.9375,3.571875 Z" />
        </g>
        <g
           id="use8536"
           style="fill:#e6e6e6;stroke:none;stroke-width:0.0172682;stroke-miterlimit:4;stroke-dasharray:none"
           transform="matrix(15.32202,0,0,15.32202,86.221003,33.065321)">
          <title
             id="title8558">Amphitheatre</title>
          <path
             id="circle8560"
             style="fill:#e6e6e6;stroke:none;stroke-width:0.0172682;stroke-miterlimit:4;stroke-dasharray:none"
             d="M 10.451041,2.2489583 A 0.92604166,0.92604166 0 0 1 9.5249996,3.175 0.92604166,0.92604166 0 0 1 8.598958,2.2489583 0.92604166,0.92604166 0 0 1 9.5249996,1.3229167 0.92604166,0.92604166 0 0 1 10.451041,2.2489583" />
          <path
             d="M 11.1125,3.571875 A 1.190625,1.190625 0 0 1 12.303125,4.7625 v 2.2489583 a 0.396875,0.396875 0 0 1 -0.79375,0 V 4.8947917 h -0.79375 v 2.778125 a 5.2916667,5.2916667 0 0 1 -2.38125,0 v -2.778125 h -0.79375 v 2.1166666 a 0.396875,0.396875 0 0 1 -0.79375,0 V 4.7625 A 1.190625,1.190625 0 0 1 7.9375,3.571875 Z"
             style="fill:#e6e6e6;stroke:none;stroke-width:0.0172682;stroke-miterlimit:4;stroke-dasharray:none"
             id="path8562" />
        </g>
      </g>
    </g>
  </g>
  <g
     sodipodi:insensitive="true"
     inkscape:groupmode="layer"
     id="layer2"
     inkscape:label="menu_itens">
    <path
       sodipodi:nodetypes="ccccc"
       d="M 0.36805568,0.36805668 H 338.60476 V 188.66135 L 0.36805568,137.58723 Z"
       style="display:inline;fill:none;fill-opacity:1;stroke:#4d4d4d;stroke-width:0.736112;stroke-linecap:round;stroke-linejoin:round;stroke-miterlimit:4;stroke-dasharray:none;stroke-opacity:1"
       id="rect28" />
  </g>
  <g
     inkscape:label="Descricao"
     id="layer4"
     inkscape:groupmode="layer">
    <g
       transform="translate(-19.579173,-1.7862954)"
       id="g1349">
      <g
         aria-label="Hey, I’m .... "
         transform="matrix(2.0884075,0,0,2.0884075,33.06635,-48.87801)"
         id="text868"
         style="font-style:normal;font-weight:normal;font-size:10.5833px;line-height:1.25;font-family:sans-serif;white-space:pre;shape-inside:url(#rect870-7);opacity:1;mix-blend-mode:normal;fill:#000000;fill-opacity:1;stroke:none">
        <path
           id="path1131"
           d="m 15.097287,45.697301 c 1.375365,-0.429828 1.027061,0.864012 1.04386,1.79275 -0.262307,1.167107 0.160186,1.649414 1.344562,1.369838 0.726934,-0.188822 2.217049,0.385537 2.448476,-0.298792 0,-0.954598 0,-1.909197 0,-2.863796 1.375365,-0.429828 1.027063,0.864011 1.043861,1.79275 0,1.974172 0,3.948345 0,5.922517 -1.375365,0.429828 -1.027063,-0.864011 -1.043861,-1.79275 -0.105297,-0.820639 0.45289,-2.304762 -0.896375,-1.881433 -0.965554,0 -1.931109,0 -2.896663,0 0,1.224728 0,2.449455 0,3.674183 -1.375365,0.429828 -1.027061,-0.864012 -1.04386,-1.79275 0,-1.974172 0,-3.948345 0,-5.922517 z" />
        <path
           id="path1133"
           d="m 27.964677,50.280986 c 0.08226,0.984268 -1.575127,0.228888 -2.240937,0.465086 -1.235733,-0.10911 -3.124697,-0.18607 -1.541765,1.498612 0.877871,1.308823 5.030528,-0.74299 3.04244,1.064531 -2.579774,1.278049 -5.592411,-1.310458 -4.432532,-4.007494 0.906079,-2.860987 5.489233,-2.188905 5.172794,0.979265 z m -0.950843,-0.279052 c 0.449922,-2.866821 -4.581713,-1.34871 -2.941776,0.0045 0.980592,-0.0015 1.961184,-0.003 2.941776,-0.0045 z" />
        <path
           id="path1135"
           d="m 31.933414,53.950001 c 0.24627,1.539435 -3.304342,2.434591 -2.418914,0.868161 1.320556,0.254951 2.06427,-1.519221 1.272006,-2.465848 -0.647777,-1.57583 -1.295555,-3.151659 -1.943332,-4.727488 1.2061,-0.402499 1.303824,0.831415 1.672842,1.664788 0.381171,0.954018 0.762343,1.908035 1.143514,2.862053 0.60289,-1.508947 1.20578,-3.017894 1.80867,-4.526841 1.52857,-0.402163 0.63772,0.830721 0.339066,1.663399 -0.624618,1.553926 -1.249235,3.107851 -1.873852,4.661776 z" />
        <path
           id="path1137"
           d="m 36.031343,52.099991 c 1.252422,-0.441477 1.365582,0.739882 0.74968,1.553593 -0.0819,1.063245 -1.658293,1.455363 -0.950918,0.120559 0.192155,-0.550605 0.2342,-1.094179 0.201238,-1.674152 z" />
        <path
           id="path1139"
           d="m 42.558056,45.697301 c 1.375365,-0.429828 1.027063,0.864011 1.043861,1.79275 0,1.974172 0,3.948345 0,5.922517 -1.375365,0.429828 -1.027063,-0.864011 -1.043861,-1.79275 0,-1.974172 0,-3.948345 0,-5.922517 z" />
        <path
           id="path1141"
           d="m 45.984193,45.697301 c 1.197307,-0.417563 1.38428,0.649406 0.748834,1.449807 -0.08295,1.063345 -1.658276,1.446466 -0.949419,0.115994 0.172114,-0.517416 0.241202,-1.020596 0.200585,-1.565801 z" />
        <path
           id="path1143"
           d="m 53.508257,48.735866 c 1.202333,-2.528584 4.734792,-0.758073 3.906725,1.780969 0,0.965245 0,1.930489 0,2.895733 -1.353896,0.437643 -0.892594,-0.939913 -0.956011,-1.79275 0.04726,-1.323872 0.230088,-3.896674 -1.855177,-3.184967 -1.476732,0.875038 -0.766093,2.828334 -0.935341,4.246338 0.329192,1.256586 -1.566149,0.846028 -0.956011,-0.314392 -0.153796,-1.319283 0.444181,-2.979581 -0.669207,-3.953908 -2.054081,-0.638785 -2.279885,1.797457 -2.121311,3.222529 -0.05199,0.859064 0.37299,2.195098 -0.956011,1.77715 0,-1.929247 0,-3.858495 0,-5.787742 1.558433,-0.63636 0.430268,1.990882 1.736322,0.113688 1.007892,-0.567397 2.48143,-0.19349 2.806022,0.997352 z" />
        <path
           id="path1145"
           d="m 62.809986,52.099991 c 1.138062,-0.596318 1.509426,1.03064 0.791578,1.312577 -1.198391,0.279883 -0.688253,-0.504604 -0.791578,-1.312577 z" />
        <path
           id="path1147"
           d="m 66.174111,52.099991 c 1.138062,-0.596318 1.509424,1.030641 0.791577,1.312577 -1.198391,0.279883 -0.688251,-0.504605 -0.791577,-1.312577 z" />
        <path
           id="path1149"
           d="m 69.538235,52.099991 c 1.138062,-0.596318 1.509424,1.030641 0.791577,1.312577 -1.198391,0.279883 -0.688251,-0.504605 -0.791577,-1.312577 z" />
        <path
           id="path1151"
           d="m 72.902359,52.099991 c 1.138062,-0.596318 1.509424,1.030641 0.791577,1.312577 -1.198391,0.279883 -0.688251,-0.504605 -0.791577,-1.312577 z" />
      </g>
      <g
         aria-label="Lorem Ipsum is simply dummy text of the printing and typesetting industry. "
         transform="translate(40.150014,-9.6380758)"
         id="text888"
         style="font-style:normal;font-weight:normal;font-size:10.5833px;line-height:1.25;font-family:sans-serif;white-space:pre;shape-inside:url(#rect890-1);fill:#4d4d4d;fill-opacity:1;stroke:none">
        <path
           id="path1004"
           style="fill:#4d4d4d"
           d="m 15.47424,84.611364 c 2.143928,-0.235978 0.557092,3.258808 1.04386,4.67999 -0.900086,2.86701 1.824516,2.109332 3.743992,2.15678 0.03523,1.832151 -3.257285,0.448431 -4.667117,0.878496 -0.277838,-2.316338 -0.04294,-5.202872 -0.120735,-7.715266 z" />
        <path
           id="path1006"
           style="fill:#4d4d4d"
           d="m 23.385876,87.205512 c -4.540798,1.03016 1.192939,7.746397 1.648473,2.232415 0.06431,-0.972845 -0.486734,-2.283384 -1.648473,-2.232415 z m 0,-0.80615 c 7.123618,1.273714 -1.825108,10.707177 -2.65616,3.038565 -0.104917,-1.516065 0.963265,-3.183114 2.65616,-3.038565 z" />
        <path
           id="path1008"
           style="fill:#4d4d4d"
           d="m 30.971952,87.42772 c -4.070565,-1.448764 -1.025601,4.978498 -3.36995,4.89891 -0.04647,-1.889446 -0.0068,-3.864997 -0.02001,-5.787742 0.603587,1.505946 3.423814,-1.905065 3.389963,0.888832 z" />
        <path
           id="path1010"
           style="fill:#4d4d4d"
           d="m 36.687347,89.195049 c -0.335549,1.552963 -6.061023,-1.081426 -3.782703,1.963698 2.069667,0.65919 5.902695,0.08483 1.421097,1.317745 -7.466396,-0.679042 0.693242,-11.18925 2.361606,-3.281443 z m -0.950843,-0.279052 c -0.614647,-4.323789 -7.047205,1.093037 0,0 z" />
        <path
           id="path1012"
           style="fill:#4d4d4d"
           d="m 42.75414,87.649928 c 3.145687,-3.698717 4.520131,1.943492 3.906726,4.61538 -2.134517,0.409864 -0.170472,-3.398831 -1.250565,-4.63605 -3.765255,-1.972858 -1.526247,4.254962 -3.119963,4.697372 -1.143707,-0.941421 1.011846,-5.703447 -2.189773,-4.976424 -2.055969,0.563656 0.206276,6.005995 -1.888768,4.664425 0.217804,-1.711444 -0.429948,-4.288443 0.311999,-5.475743 1.291422,1.376453 2.637247,-1.771432 4.230344,1.11104 z" />
        <path
           id="path1014"
           style="fill:#4d4d4d"
           d="m 51.962853,84.611364 c 2.143929,-0.235979 0.557093,3.258808 1.043861,4.67999 0.756636,1.908852 -1.151357,4.776607 -1.043861,1.475279 0,-2.051756 0,-4.103513 0,-6.155269 z" />
        <path
           id="path1016"
           style="fill:#4d4d4d"
           d="m 55.962596,91.458469 c 0.708089,1.837246 -1.076078,4.837083 -0.956011,1.509573 0,-2.143051 0,-4.286103 0,-6.429154 1.512014,1.084769 4.949008,-1.557069 5.177962,2.899039 0.394543,2.343229 -2.744305,4.367726 -4.221951,2.020542 z m 3.234934,-2.020542 c -2.367078,-7.253 -4.928174,6.001334 -0.10852,0.936632 z" />
        <path
           id="path1018"
           style="fill:#4d4d4d"
           d="m 65.450358,86.70942 c 0.62154,1.431644 -5.767461,0.140907 -1.881016,2.232415 5.606305,0.674295 -1.589708,6.350797 -2.232415,2.191075 3.173086,1.980881 4.738834,-1.534014 0.949552,-1.63555 -2.822536,-2.048158 1.183274,-4.020821 3.163879,-2.78794 z" />
        <path
           id="path1020"
           style="fill:#4d4d4d"
           d="m 67.176347,90.042539 c -0.389582,-1.244387 0.296879,-5.348846 0.950843,-2.567653 -1.246141,2.969062 2.672822,6.37332 2.945547,1.721446 -0.76836,-2.265863 1.400465,-3.965091 0.950844,-0.785448 0.11092,1.132042 0.169077,5.460393 -0.950844,3.291747 -0.661324,1.225697 -4.388874,1.064621 -3.89639,-1.660092 z" />
        <path
           id="path1022"
           style="fill:#4d4d4d"
           d="m 78.488279,87.649928 c 3.145686,-3.698717 4.520131,1.943492 3.906726,4.61538 -2.134517,0.409864 -0.170471,-3.398832 -1.250566,-4.63605 -3.765255,-1.972858 -1.526247,4.254962 -3.119963,4.697372 -1.143708,-0.941421 1.011846,-5.703447 -2.189774,-4.976424 -2.055968,0.563656 0.206277,6.005995 -1.888767,4.664425 0.217804,-1.711444 -0.429948,-4.288443 0.311999,-5.475743 1.291423,1.376453 2.637246,-1.771432 4.230345,1.11104 z" />
        <path
           id="path1024"
           style="fill:#4d4d4d"
           d="m 87.655654,86.538888 c 2.030291,-0.153346 0.455948,3.297941 0.950844,4.67999 -0.542756,3.028249 -1.394595,-0.946416 -0.950844,-2.324241 0,-0.78525 0,-1.570499 0,-2.355749 z m 0,-2.253085 c 2.701802,-0.4026 -0.538281,3.176771 0,0 z" />
        <path
           id="path1026"
           style="fill:#4d4d4d"
           d="m 94.285716,86.70942 c 0.62154,1.431644 -5.767461,0.140907 -1.881016,2.232415 5.606305,0.674296 -1.589708,6.350797 -2.232415,2.191075 3.173085,1.980881 4.738832,-1.534014 0.949551,-1.63555 -2.822537,-2.048159 1.183275,-4.020821 3.16388,-2.78794 z" />
        <path
           id="path1028"
           style="fill:#4d4d4d"
           d="m 103.1637,86.70942 c 0.62154,1.431644 -5.767454,0.140906 -1.88102,2.232415 5.60631,0.674293 -1.589702,6.350798 -2.232412,2.191075 3.173092,1.98088 4.738842,-1.534015 0.949551,-1.63555 -2.822537,-2.048161 1.183281,-4.020819 3.163881,-2.78794 z" />
        <path
           id="path1030"
           style="fill:#4d4d4d"
           d="m 104.98787,86.538888 c 2.03029,-0.153343 0.45594,3.297943 0.95084,4.67999 -0.54276,3.02825 -1.39459,-0.946419 -0.95084,-2.324241 0,-0.78525 0,-1.570499 0,-2.355749 z m 0,-2.253085 c 2.70179,-0.402601 -0.53828,3.176772 0,0 z" />
        <path
           id="path1032"
           style="fill:#4d4d4d"
           d="m 112.43442,87.649928 c 3.14569,-3.698716 4.52014,1.943492 3.90673,4.61538 -2.13452,0.409864 -0.17047,-3.398835 -1.25057,-4.63605 -3.76525,-1.972856 -1.52624,4.254963 -3.11996,4.697372 -1.1437,-0.941423 1.01184,-5.703444 -2.18977,-4.976424 -2.05597,0.563652 0.20627,6.005995 -1.88877,4.664425 0.2178,-1.711444 -0.42995,-4.288443 0.312,-5.475743 1.29142,1.376453 2.63724,-1.771431 4.23034,1.11104 z" />
        <path
           id="path1034"
           style="fill:#4d4d4d"
           d="m 119.15751,91.458469 c 0.70809,1.837245 -1.07608,4.837083 -0.95601,1.509573 0,-2.143051 0,-4.286103 0,-6.429154 1.51201,1.084768 4.949,-1.557067 5.17796,2.899039 0.39454,2.343223 -2.74431,4.36773 -4.22195,2.020542 z m 3.23493,-2.020542 c -2.36707,-7.252999 -4.92817,6.001333 -0.10852,0.936632 z" />
        <path
           id="path1036"
           style="fill:#4d4d4d"
           d="m 124.95558,84.285803 c 2.03029,-0.153343 0.45594,3.297943 0.95084,4.67999 0.5785,1.495466 -0.70966,5.286294 -0.95084,2.11284 0,-2.264277 0,-4.528553 0,-6.79283 z" />
        <path
           id="path1038"
           style="fill:#4d4d4d"
           d="m 130.30407,92.864064 c -1.16235,2.983435 -4.22742,1.152287 -0.91984,-0.19637 -0.001,-1.977731 -1.50289,-3.943706 -2.08329,-5.916898 1.44672,-0.968367 1.76803,2.68423 2.54121,3.844308 0.83775,0.584681 1.14123,-3.566599 2.30871,-4.056216 1.45797,0.295949 -1.04679,3.269915 -1.16612,4.631808 -0.22689,0.564456 -0.45378,1.128912 -0.68067,1.693368 z" />
        <path
           id="path1040"
           style="fill:#4d4d4d"
           d="m 19.24144,100.64651 c -0.614361,-1.513943 0.737893,-4.987805 0.950843,-1.883584 0,2.264274 0,4.528554 0,6.792834 -1.510326,-1.0746 -4.957049,1.5703 -5.172794,-2.88871 -0.394118,-2.35142 2.731572,-4.358524 4.221951,-2.02054 z m -3.240102,2.02054 c 2.361205,7.25811 4.937366,-6.000164 0.107228,-0.93534 z" />
        <path
           id="path1042"
           style="fill:#4d4d4d"
           d="m 22.052629,103.27167 c -0.389581,-1.24439 0.296878,-5.348852 0.950843,-2.56766 -1.246139,2.96906 2.67282,6.37332 2.945547,1.72145 -0.768359,-2.26586 1.400463,-3.965095 0.950843,-0.78545 0.11092,1.13204 0.169077,5.4604 -0.950843,3.29175 -0.661303,1.22567 -4.388869,1.06464 -3.89639,-1.66009 z" />
        <path
           id="path1044"
           style="fill:#4d4d4d"
           d="m 33.364564,100.87905 c 3.14569,-3.698708 4.520128,1.9435 3.906725,4.61538 -2.134513,0.40988 -0.170475,-3.39883 -1.250565,-4.63605 -3.76526,-1.972847 -1.526244,4.25497 -3.119963,4.69738 -1.143708,-0.94142 1.011848,-5.703452 -2.189773,-4.97643 -2.055969,0.56366 0.206276,6.006 -1.888768,4.66443 0.217804,-1.71144 -0.429947,-4.28844 0.311999,-5.475746 1.291422,1.376456 2.637243,-1.771428 4.230345,1.111036 z" />
        <path
           id="path1046"
           style="fill:#4d4d4d"
           d="m 43.673978,100.87905 c 3.145691,-3.698708 4.520129,1.9435 3.906726,4.61538 -2.134513,0.40988 -0.170475,-3.39883 -1.250565,-4.63605 -3.76526,-1.972847 -1.526244,4.25497 -3.119963,4.69738 -1.143708,-0.94142 1.011848,-5.703452 -2.189774,-4.97643 -2.055969,0.56366 0.206276,6.006 -1.888767,4.66443 0.217804,-1.71144 -0.429947,-4.28844 0.311999,-5.475746 1.291421,1.376456 2.637244,-1.771429 4.230344,1.111036 z" />
        <path
           id="path1048"
           style="fill:#4d4d4d"
           d="m 51.88534,106.09319 c -1.16236,2.98344 -4.227409,1.15229 -0.919838,-0.19637 -10e-4,-1.97774 -1.502895,-3.94371 -2.083294,-5.916899 1.446725,-0.968363 1.76803,2.684229 2.54121,3.844309 0.837749,0.5847 1.141223,-3.5666 2.308706,-4.056216 1.457983,0.295936 -1.046782,3.269916 -1.166117,4.631806 -0.226889,0.56446 -0.453778,1.12891 -0.680667,1.69337 z" />
        <path
           id="path1050"
           style="fill:#4d4d4d"
           d="m 60.045023,98.124709 c -1.46967,2.362071 3.999858,1.490118 1.022532,2.382271 -1.93129,-0.46617 -1.392084,5.00814 0.583316,4.25296 0.744628,2.18494 -4.096711,-0.39501 -2.561859,-2.98304 -0.653192,-2.039351 -0.328853,-1.33627 0,-3.568883 0.04154,-0.244491 0.753141,0.01733 0.956011,-0.08331 z" />
        <path
           id="path1052"
           style="fill:#4d4d4d"
           d="m 68.204706,102.42417 c -0.335541,1.55297 -6.061026,-1.08142 -3.782703,1.9637 2.069665,0.6592 5.902697,0.0848 1.421097,1.31775 -7.466392,-0.67904 0.693232,-11.189252 2.361606,-3.28145 z m -0.950844,-0.27905 c -0.614635,-4.323782 -7.047212,1.09304 0,0 z" />
        <path
           id="path1054"
           style="fill:#4d4d4d"
           d="m 74.390352,99.768014 c -1.156675,1.523086 -3.001521,3.045676 -0.79277,4.571216 1.969531,2.50713 -1.539035,0.5059 -1.904731,-1.05723 -0.35418,1.61316 -3.919238,3.57181 -1.876191,1.02116 2.199774,-1.51149 0.453068,-3.01917 -0.732853,-4.527397 1.885053,-0.811002 2.375264,3.805357 3.58186,0.802757 0.412273,-0.870771 0.827277,-0.900653 1.724685,-0.810506 z" />
        <path
           id="path1056"
           style="fill:#4d4d4d"
           d="m 76.782964,98.124709 c -1.46967,2.362081 3.999859,1.490118 1.022533,2.382271 -1.931291,-0.46617 -1.392085,5.00814 0.583315,4.25296 0.744632,2.18494 -4.096712,-0.39501 -2.561859,-2.98304 -0.653192,-2.03935 -0.328852,-1.33627 0,-3.568883 0.04154,-0.244491 0.753141,0.01733 0.956011,-0.08331 z" />
        <path
           id="path1058"
           style="fill:#4d4d4d"
           d="m 85.598935,100.43464 c -4.5408,1.03016 1.192942,7.7464 1.648473,2.23241 0.06431,-0.97285 -0.486734,-2.28338 -1.648473,-2.23241 z m 0,-0.806152 c 7.123619,1.273722 -1.825115,10.707182 -2.65616,3.038562 -0.104916,-1.51606 0.963268,-3.18311 2.65616,-3.038562 z" />
        <path
           id="path1060"
           style="fill:#4d4d4d"
           d="m 92.761266,97.514929 c -0.672892,1.265691 -2.969934,2.097935 -0.253213,2.565081 -1.708558,0.0997 -1.80467,1.81183 -1.565791,3.85896 0.208601,3.20219 -1.716301,0.76944 -0.956011,-1.1912 0.829667,-2.2862 -1.99416,-2.52506 0,-3.382831 -0.203683,-1.746446 1.48595,-1.953948 2.775015,-1.85001 z" />
        <path
           id="path1062"
           style="fill:#4d4d4d"
           d="m 97.861711,98.124709 c -1.46967,2.362081 3.999859,1.490118 1.022533,2.382271 -1.931291,-0.46617 -1.392085,5.00814 0.583315,4.25296 0.744631,2.18494 -4.096712,-0.39501 -2.561859,-2.98304 -0.653192,-2.039351 -0.328853,-1.33627 0,-3.568883 0.04154,-0.244491 0.753141,0.01733 0.956011,-0.08331 z" />
        <path
           id="path1064"
           style="fill:#4d4d4d"
           d="m 105.88187,102.06244 c 0.39046,1.24377 -0.29718,5.33792 -0.95085,2.55732 1.2481,-2.96799 -2.67975,-6.35634 -2.94037,-1.71111 0.77296,2.27235 -1.40889,3.94531 -0.95602,0.77511 0,-2.05627 0,-4.112553 0,-6.168831 2.50839,-0.426767 -0.84294,5.532161 2.8267,2.113559 1.34482,-0.140065 2.1503,1.247512 2.02054,2.433952 z" />
        <path
           id="path1066"
           style="fill:#4d4d4d"
           d="m 112.72897,102.42417 c -0.33554,1.55297 -6.06103,-1.08142 -3.7827,1.9637 2.06967,0.6592 5.9027,0.0848 1.4211,1.31775 -7.46639,-0.67904 0.69324,-11.189253 2.3616,-3.28145 z m -0.95084,-0.27905 c -0.61461,-4.32378 -7.04722,1.09304 0,0 z" />
        <path
           id="path1068"
           style="fill:#4d4d4d"
           d="m 118.57356,104.6876 c 0.70809,1.83725 -1.07608,4.83708 -0.95601,1.50957 0,-2.14305 0,-4.2861 0,-6.429156 1.51201,1.084766 4.94902,-1.557072 5.17796,2.899036 0.39454,2.34324 -2.74429,4.36772 -4.22195,2.02055 z m 3.23494,-2.02055 c -2.36709,-7.252998 -4.92818,6.00134 -0.10852,0.93663 z" />
        <path
           id="path1070"
           style="fill:#4d4d4d"
           d="m 127.72543,100.65685 c -4.07056,-1.448747 -1.0256,4.9785 -3.36995,4.89892 -0.0465,-1.88945 -0.007,-3.865 -0.02,-5.787746 0.60358,1.505956 3.4238,-1.905072 3.38996,0.888826 z" />
        <path
           id="path1072"
           style="fill:#4d4d4d"
           d="m 128.72278,99.768014 c 2.03029,-0.153343 0.45594,3.297946 0.95084,4.679986 -0.54275,3.02826 -1.39459,-0.94641 -0.95084,-2.32423 0,-0.78525 0,-1.5705 0,-2.355756 z m 0,-2.253085 c 2.70179,-0.402601 -0.53828,3.176771 0,0 z" />
        <path
           id="path1074"
           style="fill:#4d4d4d"
           d="m 136.47422,102.06244 c 0.39045,1.24376 -0.29718,5.33791 -0.95084,2.55732 1.2481,-2.96799 -2.67976,-6.356338 -2.94038,-1.71111 0.77296,2.27234 -1.40888,3.94532 -0.95601,0.77511 -0.1113,-1.13597 -0.16987,-5.461988 0.95601,-3.29175 0.64155,-1.183027 4.39132,-1.084614 3.89122,1.67043 z" />
        <path
           id="path1076"
           style="fill:#4d4d4d"
           d="m 139.31125,98.124709 c -1.46967,2.362071 3.99986,1.490118 1.02253,2.382271 -1.93129,-0.46617 -1.39208,5.00815 0.58332,4.25296 0.74462,2.18494 -4.09671,-0.39501 -2.56186,-2.98304 -0.65319,-2.039351 -0.32885,-1.33627 0,-3.568883 0.0415,-0.244491 0.75314,0.01733 0.95601,-0.08331 z" />
        <path
           id="path1078"
           style="fill:#4d4d4d"
           d="m 142.52035,99.768014 c 2.03029,-0.153343 0.45594,3.297946 0.95084,4.679986 -0.54275,3.02826 -1.39459,-0.94641 -0.95084,-2.32423 0,-0.78525 0,-1.5705 0,-2.355756 z m 0,-2.253085 c 2.70179,-0.402601 -0.53828,3.176771 0,0 z" />
        <path
           id="path1080"
           style="fill:#4d4d4d"
           d="m 150.27179,102.06244 c 0.39045,1.24376 -0.29718,5.33791 -0.95084,2.55732 1.2481,-2.96799 -2.67976,-6.356339 -2.94038,-1.71111 0.77296,2.27234 -1.40888,3.94532 -0.95601,0.77511 -0.1113,-1.13597 -0.16987,-5.461988 0.95601,-3.29175 0.64155,-1.183027 4.39132,-1.084614 3.89122,1.67043 z" />
        <path
           id="path1082"
           style="fill:#4d4d4d"
           d="m 155.97685,102.59471 c -2.36573,-7.056325 -4.94801,5.82495 -0.10723,0.91337 z m 0.95085,2.24275 c 0.9052,5.00368 -8.63187,1.43 -1.99858,2.01152 3.98933,-4.23178 -4.06299,1.03821 -3.17422,-4.25425 0.0206,-3.795332 4.70415,-2.95262 5.1728,-2.2027 0,1.48181 0,2.96362 0,4.44543 z" />
        <path
           id="path1084"
           style="fill:#4d4d4d"
           d="m 18.063221,115.87551 c -4.994282,0.1905 1.199926,4.72964 0.945676,0 -0.315225,0 -0.630451,0 -0.945676,0 z m 1.896519,-0.39274 c 0.429139,2.9503 -0.476081,3.43453 -1.762161,3.20393 -4.923582,1.30899 -2.837519,-4.97983 0.811318,-3.64833 -0.346797,-2.51502 -6.5844,-0.47466 -1.545121,-2.18074 1.50052,-0.1918 2.682789,1.1767 2.495964,2.62514 z" />
        <path
           id="path1086"
           style="fill:#4d4d4d"
           d="m 26.729331,115.29157 c 0.390456,1.24377 -0.297183,5.3379 -0.950843,2.55731 1.248098,-2.96799 -2.679759,-6.35633 -2.94038,-1.71111 0.772958,2.27234 -1.408884,3.94532 -0.956011,0.77511 -0.1113,-1.13597 -0.169872,-5.46198 0.956011,-3.29174 0.641553,-1.18302 4.391312,-1.08463 3.891223,1.67043 z" />
        <path
           id="path1088"
           style="fill:#4d4d4d"
           d="m 32.434391,113.87564 c -0.614361,-1.51394 0.737893,-4.9878 0.950843,-1.88358 0,2.26427 0,4.52855 0,6.79282 -1.510325,-1.0746 -4.957041,1.57031 -5.172794,-2.8887 -0.394114,-2.35142 2.731569,-4.35854 4.221951,-2.02054 z m -3.240102,2.02054 c 2.361215,7.25811 4.937357,-6.00017 0.107228,-0.93534 z" />
        <path
           id="path1090"
           style="fill:#4d4d4d"
           d="m 39.648397,111.35383 c -1.469671,2.36208 3.99986,1.49012 1.022533,2.38228 -1.931291,-0.46617 -1.392085,5.00814 0.583315,4.25296 0.744623,2.18492 -4.096712,-0.39501 -2.561859,-2.98304 -0.653193,-2.03935 -0.328853,-1.33628 0,-3.56889 0.04153,-0.2445 0.753147,0.0173 0.956011,-0.0833 z" />
        <path
           id="path1092"
           style="fill:#4d4d4d"
           d="m 45.265608,119.32232 c -1.162345,2.98343 -4.227417,1.15228 -0.919838,-0.19637 -0.001,-1.97774 -1.502894,-3.94371 -2.083293,-5.9169 1.446717,-0.96837 1.768034,2.68423 2.541212,3.84431 0.837748,0.58467 1.141221,-3.5666 2.308703,-4.05622 1.457983,0.29594 -1.046781,3.26991 -1.166116,4.63181 -0.226889,0.56446 -0.453779,1.12891 -0.680668,1.69337 z" />
        <path
           id="path1094"
           style="fill:#4d4d4d"
           d="m 50.040496,117.91672 c 0.708089,1.83725 -1.076078,4.83708 -0.956011,1.50957 0,-2.14305 0,-4.2861 0,-6.42915 1.512015,1.08477 4.949005,-1.55708 5.177962,2.89904 0.394547,2.34323 -2.744313,4.36772 -4.221951,2.02054 z m 3.234934,-2.02054 c -2.367072,-7.253 -4.92818,6.00133 -0.10852,0.93663 z" />
        <path
           id="path1096"
           style="fill:#4d4d4d"
           d="m 60.789159,115.6533 c -0.335541,1.55297 -6.061024,-1.08142 -3.782703,1.9637 2.069674,0.65918 5.902692,0.0848 1.421098,1.31774 -7.466394,-0.67904 0.693242,-11.18925 2.361605,-3.28144 z m -0.950843,-0.27905 c -0.614638,-4.3238 -7.047209,1.09304 0,0 z" />
        <path
           id="path1098"
           style="fill:#4d4d4d"
           d="m 66.039466,113.16767 c 0.621545,1.43165 -5.767462,0.14091 -1.881016,2.23242 5.606321,0.67419 -1.589725,6.35079 -2.232415,2.19104 3.173078,1.98088 4.738836,-1.53402 0.949551,-1.63554 -2.822549,-2.04814 1.183321,-4.02086 3.16388,-2.78792 z" />
        <path
           id="path1100"
           style="fill:#4d4d4d"
           d="m 72.814226,115.6533 c -0.335541,1.55297 -6.061026,-1.08142 -3.782703,1.9637 2.069675,0.65918 5.902692,0.0848 1.421097,1.31774 -7.466394,-0.67904 0.693243,-11.18925 2.361606,-3.28144 z m -0.950844,-0.27905 c -0.614637,-4.3238 -7.047209,1.09304 0,0 z" />
        <path
           id="path1102"
           style="fill:#4d4d4d"
           d="m 75.315359,111.35383 c -1.469671,2.36208 3.999858,1.49012 1.022532,2.38228 -1.93129,-0.46617 -1.392084,5.00814 0.583316,4.25296 0.744619,2.18492 -4.096711,-0.39501 -2.561859,-2.98304 -0.653193,-2.03935 -0.328853,-1.33628 0,-3.56889 0.04153,-0.2445 0.753147,0.0173 0.956011,-0.0833 z" />
        <path
           id="path1104"
           style="fill:#4d4d4d"
           d="m 79.464963,111.35383 c -1.469671,2.36208 3.99986,1.49012 1.022533,2.38228 -1.931291,-0.46617 -1.392085,5.00814 0.583316,4.25296 0.744619,2.18492 -4.096711,-0.39501 -2.561859,-2.98304 -0.653193,-2.03935 -0.328853,-1.33628 0,-3.56889 0.04152,-0.2445 0.753147,0.0173 0.95601,-0.0833 z" />
        <path
           id="path1106"
           style="fill:#4d4d4d"
           d="m 82.674056,112.99714 c 2.030291,-0.15335 0.455948,3.29794 0.950844,4.67999 -0.542757,3.02825 -1.394595,-0.94642 -0.950844,-2.32424 0,-0.78525 0,-1.5705 0,-2.35575 z m 0,-2.25308 c 2.701801,-0.4026 -0.538278,3.17676 0,0 z" />
        <path
           id="path1108"
           style="fill:#4d4d4d"
           d="m 90.425501,115.29157 c 0.390457,1.24377 -0.297183,5.3379 -0.950844,2.55731 1.248098,-2.96799 -2.679757,-6.35633 -2.940379,-1.71111 0.772958,2.27234 -1.408884,3.94532 -0.956011,0.77511 -0.1113,-1.13597 -0.169872,-5.46198 0.956011,-3.29174 0.641553,-1.18302 4.391312,-1.08463 3.891223,1.67043 z" />
        <path
           id="path1110"
           style="fill:#4d4d4d"
           d="m 96.130562,115.82383 c -2.365753,-7.05631 -4.948,5.82497 -0.107228,0.91338 z m 0.950843,2.24275 c 0.905214,5.00368 -8.631864,1.42999 -1.99858,2.01151 3.989348,-4.23177 -4.062996,1.0382 -3.174214,-4.25425 0.02058,-3.79533 4.704155,-2.95261 5.172794,-2.20269 0,1.48181 0,2.96362 0,4.44543 z" />
        <path
           id="path1112"
           style="fill:#4d4d4d"
           d="m 102.40406,112.99714 c 2.03029,-0.15334 0.45594,3.29794 0.95084,4.67999 -0.54276,3.02825 -1.39459,-0.94642 -0.95084,-2.32424 0,-0.78525 0,-1.5705 0,-2.35575 z m 0,-2.25308 c 2.70179,-0.4026 -0.53828,3.17676 0,0 z" />
        <path
           id="path1114"
           style="fill:#4d4d4d"
           d="m 110.1555,115.29157 c 0.39046,1.24377 -0.29718,5.3379 -0.95085,2.55731 1.2481,-2.96799 -2.67975,-6.35633 -2.94038,-1.71111 0.77296,2.27234 -1.40888,3.94532 -0.95601,0.77511 -0.1113,-1.13596 -0.16987,-5.46198 0.95601,-3.29174 0.64156,-1.18302 4.39131,-1.08463 3.89123,1.67043 z" />
        <path
           id="path1116"
           style="fill:#4d4d4d"
           d="m 115.86056,113.87564 c -0.61436,-1.51394 0.73789,-4.9878 0.95084,-1.88358 0,2.26427 0,4.52855 0,6.79282 -1.51032,-1.0746 -4.95704,1.57031 -5.17279,-2.8887 -0.39411,-2.35142 2.73157,-4.35854 4.22195,-2.02054 z m -3.2401,2.02054 c 2.36121,7.25811 4.93736,-6.00017 0.10723,-0.93534 z" />
        <path
           id="path1118"
           style="fill:#4d4d4d"
           d="m 118.67175,116.50079 c -0.38958,-1.24438 0.29688,-5.34885 0.95084,-2.56765 -1.24614,2.96906 2.67283,6.37332 2.94555,1.72144 -0.76836,-2.26586 1.40046,-3.96508 0.95084,-0.78544 0.11092,1.13204 0.16908,5.46039 -0.95084,3.29174 -0.66132,1.2257 -4.38888,1.06462 -3.89639,-1.66009 z" />
        <path
           id="path1120"
           style="fill:#4d4d4d"
           d="m 129.16719,113.16767 c 0.62154,1.43165 -5.76747,0.14091 -1.88101,2.23242 5.60632,0.6742 -1.58973,6.35078 -2.23242,2.19104 3.17308,1.98088 4.73884,-1.53402 0.94955,-1.63554 -2.82255,-2.04813 1.18332,-4.02086 3.16388,-2.78792 z" />
        <path
           id="path1122"
           style="fill:#4d4d4d"
           d="m 131.93188,111.35383 c -1.46967,2.36208 3.99986,1.49012 1.02253,2.38228 -1.93129,-0.46617 -1.39208,5.00815 0.58332,4.25296 0.74462,2.18492 -4.09671,-0.39501 -2.56186,-2.98304 -0.65319,-2.03935 -0.32885,-1.33628 0,-3.56889 0.0415,-0.2445 0.75315,0.0173 0.95601,-0.0833 z" />
        <path
           id="path1124"
           style="fill:#4d4d4d"
           d="m 138.49477,113.88597 c -4.07057,-1.44876 -1.02561,4.97849 -3.36996,4.89891 -0.0465,-1.88945 -0.007,-3.865 -0.02,-5.78774 0.6036,1.50595 3.42379,-1.90506 3.38997,0.88883 z" />
        <path
           id="path1126"
           style="fill:#4d4d4d"
           d="m 141.90023,119.32232 c -1.16235,2.98343 -4.22741,1.15228 -0.91984,-0.19637 -0.001,-1.97773 -1.50289,-3.94371 -2.08329,-5.9169 1.44672,-0.96838 1.76804,2.68423 2.54122,3.84431 0.83774,0.58467 1.14122,-3.5666 2.3087,-4.05622 1.45797,0.29595 -1.04679,3.26992 -1.16612,4.63181 -0.22689,0.56446 -0.45378,1.12891 -0.68067,1.69337 z" />
        <path
           id="path1128"
           style="fill:#4d4d4d"
           d="m 144.38069,117.47231 c 2.99213,-0.46396 -0.43186,3.57934 0,0 z" />
      </g>
      <g
         transform="matrix(0.71999247,0,0,0.71999247,100.35881,16.338338)"
         id="g903">
        <rect
           style="fill:none;stroke:#333333;stroke-width:0.90943;stroke-linecap:round;stroke-linejoin:round"
           id="rect894"
           width="72.199944"
           height="24.066647"
           x="-0.29629663"
           y="154.07887"
           ry="12.033323" />
        <text
           xml:space="preserve"
           style="font-style:normal;font-weight:normal;font-size:13.5821px;line-height:1.25;font-family:sans-serif;fill:#000000;fill-opacity:1;stroke:none;stroke-width:0.339554"
           x="8.2746582"
           y="169.85922"
           id="text898"><tspan
             sodipodi:role="line"
             id="tspan896"
             x="8.2746582"
             y="169.85922"
             style="stroke-width:0.339554">Projetos</tspan></text>
      </g>
    </g>
  </g>
</svg>
